<?xml version="1.0" encoding="utf-8" standalone="no"?>
<!DOCTYPE svg PUBLIC "-//W3C//DTD SVG 1.1//EN"
  "http://www.w3.org/Graphics/SVG/1.1/DTD/svg11.dtd">
<!-- Created with matplotlib (http://matplotlib.org/) -->
<svg height="5170pt" version="1.1" viewBox="0 0 759 5170" width="759pt" xmlns="http://www.w3.org/2000/svg" xmlns:xlink="http://www.w3.org/1999/xlink">
 <defs>
  <style type="text/css">
*{stroke-linecap:butt;stroke-linejoin:round;stroke-miterlimit:100000;}
  </style>
 </defs>
 <g id="figure_1">
  <g id="patch_1">
   <path d="M 0 5170.00575 
L 759.174311 5170.00575 
L 759.174311 0 
L 0 0 
z
" style="fill:#ffffff;"/>
  </g>
  <g id="axes_1">
   <g id="patch_2">
    <path d="M 304.480034 3014.215948 
C 304.480034 2979.844736 292.517532 2946.522378 270.656793 2919.999025 
C 248.796055 2893.475671 218.371261 2875.370067 184.632555 2868.806539 
C 150.893849 2862.243012 115.900336 2867.622139 85.690542 2884.015692 
C 55.480749 2900.409245 31.898408 2926.816709 19.012919 2958.681178 
L 156.34461 3014.215948 
L 304.480034 3014.215948 
z
" style="fill:#7f6e85;"/>
   </g>
   <g id="patch_3">
    <path d="M 19.012919 2958.681178 
C 15.204133 2968.099909 12.37439 2977.885535 10.568405 2987.883423 
C 8.76242 2997.881311 7.989756 3008.038521 8.262624 3018.194549 
L 156.34461 3014.215948 
L 19.012919 2958.681178 
z
" style="fill:#4eae4b;"/>
   </g>
   <g id="patch_4">
    <path d="M 8.262624 3018.194549 
C 9.152193 3051.303955 21.120884 3083.177328 42.243938 3108.688909 
C 63.366991 3134.20049 92.447959 3151.905257 124.810147 3158.955996 
L 156.34461 3014.215948 
L 8.262624 3018.194549 
z
" style="fill:#3e8e95;"/>
   </g>
   <g id="patch_5">
    <path d="M 124.810147 3158.955996 
C 132.914214 3160.721626 141.152272 3161.803515 149.437426 3162.190252 
C 157.722581 3162.576988 166.025599 3162.267208 174.258902 3161.264178 
L 156.34461 3014.215948 
L 124.810147 3158.955996 
z
" style="fill:#725c83;"/>
   </g>
   <g id="patch_6">
    <path d="M 174.258902 3161.264178 
C 210.168991 3156.889396 243.261655 3139.508422 267.245118 3112.425831 
C 291.22858 3085.34324 304.480034 3050.391536 304.480034 3014.215948 
L 156.34461 3014.215948 
L 174.258902 3161.264178 
z
" style="fill:#e41a1c;"/>
   </g>
   <g id="patch_7">
    <path d="M 304.480034 3014.215948 
C 304.480034 3014.215948 304.480034 3014.215948 304.480034 3014.215948 
L 156.34461 3014.215948 
L 304.480034 3014.215948 
z
"/>
   </g>
   <g id="patch_8">
    <path clip-path="url(#p3b8a261c2b)" d="M 156.34461 3058.656575 
C 168.130402 3058.656575 179.435065 3053.97403 187.768879 3045.640216 
C 196.102692 3037.306403 200.785237 3026.00174 200.785237 3014.215948 
C 200.785237 3002.430155 196.102692 2991.125492 187.768879 2982.791679 
C 179.435065 2974.457865 168.130402 2969.77532 156.34461 2969.77532 
C 144.558818 2969.77532 133.254154 2974.457865 124.920341 2982.791679 
C 116.586527 2991.125492 111.903983 3002.430155 111.903983 3014.215948 
C 111.903983 3026.00174 116.586527 3037.306403 124.920341 3045.640216 
C 133.254154 3053.97403 144.558818 3058.656575 156.34461 3058.656575 
z
" style="fill:#ffffff;"/>
   </g>
   <g id="matplotlib.axis_1">
    <g id="text_1">
     <!-- Vinayagam -->
     <defs>
      <path d="M 28.609375 0 
L 0.78125 72.90625 
L 11.078125 72.90625 
L 34.1875 11.53125 
L 57.328125 72.90625 
L 67.578125 72.90625 
L 39.796875 0 
z
" id="BitstreamVeraSans-Roman-56"/>
      <path d="M 45.40625 27.984375 
Q 45.40625 37.75 41.375 43.109375 
Q 37.359375 48.484375 30.078125 48.484375 
Q 22.859375 48.484375 18.828125 43.109375 
Q 14.796875 37.75 14.796875 27.984375 
Q 14.796875 18.265625 18.828125 12.890625 
Q 22.859375 7.515625 30.078125 7.515625 
Q 37.359375 7.515625 41.375 12.890625 
Q 45.40625 18.265625 45.40625 27.984375 
M 54.390625 6.78125 
Q 54.390625 -7.171875 48.1875 -13.984375 
Q 42 -20.796875 29.203125 -20.796875 
Q 24.46875 -20.796875 20.265625 -20.09375 
Q 16.0625 -19.390625 12.109375 -17.921875 
L 12.109375 -9.1875 
Q 16.0625 -11.328125 19.921875 -12.34375 
Q 23.78125 -13.375 27.78125 -13.375 
Q 36.625 -13.375 41.015625 -8.765625 
Q 45.40625 -4.15625 45.40625 5.171875 
L 45.40625 9.625 
Q 42.625 4.78125 38.28125 2.390625 
Q 33.9375 0 27.875 0 
Q 17.828125 0 11.671875 7.65625 
Q 5.515625 15.328125 5.515625 27.984375 
Q 5.515625 40.671875 11.671875 48.328125 
Q 17.828125 56 27.875 56 
Q 33.9375 56 38.28125 53.609375 
Q 42.625 51.21875 45.40625 46.390625 
L 45.40625 54.6875 
L 54.390625 54.6875 
z
" id="BitstreamVeraSans-Roman-67"/>
      <path d="M 54.890625 33.015625 
L 54.890625 0 
L 45.90625 0 
L 45.90625 32.71875 
Q 45.90625 40.484375 42.875 44.328125 
Q 39.84375 48.1875 33.796875 48.1875 
Q 26.515625 48.1875 22.3125 43.546875 
Q 18.109375 38.921875 18.109375 30.90625 
L 18.109375 0 
L 9.078125 0 
L 9.078125 54.6875 
L 18.109375 54.6875 
L 18.109375 46.1875 
Q 21.34375 51.125 25.703125 53.5625 
Q 30.078125 56 35.796875 56 
Q 45.21875 56 50.046875 50.171875 
Q 54.890625 44.34375 54.890625 33.015625 
" id="BitstreamVeraSans-Roman-6e"/>
      <path d="M 52 44.1875 
Q 55.375 50.25 60.0625 53.125 
Q 64.75 56 71.09375 56 
Q 79.640625 56 84.28125 50.015625 
Q 88.921875 44.046875 88.921875 33.015625 
L 88.921875 0 
L 79.890625 0 
L 79.890625 32.71875 
Q 79.890625 40.578125 77.09375 44.375 
Q 74.3125 48.1875 68.609375 48.1875 
Q 61.625 48.1875 57.5625 43.546875 
Q 53.515625 38.921875 53.515625 30.90625 
L 53.515625 0 
L 44.484375 0 
L 44.484375 32.71875 
Q 44.484375 40.625 41.703125 44.40625 
Q 38.921875 48.1875 33.109375 48.1875 
Q 26.21875 48.1875 22.15625 43.53125 
Q 18.109375 38.875 18.109375 30.90625 
L 18.109375 0 
L 9.078125 0 
L 9.078125 54.6875 
L 18.109375 54.6875 
L 18.109375 46.1875 
Q 21.1875 51.21875 25.484375 53.609375 
Q 29.78125 56 35.6875 56 
Q 41.65625 56 45.828125 52.96875 
Q 50 49.953125 52 44.1875 
" id="BitstreamVeraSans-Roman-6d"/>
      <path d="M 9.421875 54.6875 
L 18.40625 54.6875 
L 18.40625 0 
L 9.421875 0 
z
M 9.421875 75.984375 
L 18.40625 75.984375 
L 18.40625 64.59375 
L 9.421875 64.59375 
z
" id="BitstreamVeraSans-Roman-69"/>
      <path d="M 32.171875 -5.078125 
Q 28.375 -14.84375 24.75 -17.8125 
Q 21.140625 -20.796875 15.09375 -20.796875 
L 7.90625 -20.796875 
L 7.90625 -13.28125 
L 13.1875 -13.28125 
Q 16.890625 -13.28125 18.9375 -11.515625 
Q 21 -9.765625 23.484375 -3.21875 
L 25.09375 0.875 
L 2.984375 54.6875 
L 12.5 54.6875 
L 29.59375 11.921875 
L 46.6875 54.6875 
L 56.203125 54.6875 
z
" id="BitstreamVeraSans-Roman-79"/>
      <path d="M 34.28125 27.484375 
Q 23.390625 27.484375 19.1875 25 
Q 14.984375 22.515625 14.984375 16.5 
Q 14.984375 11.71875 18.140625 8.90625 
Q 21.296875 6.109375 26.703125 6.109375 
Q 34.1875 6.109375 38.703125 11.40625 
Q 43.21875 16.703125 43.21875 25.484375 
L 43.21875 27.484375 
z
M 52.203125 31.203125 
L 52.203125 0 
L 43.21875 0 
L 43.21875 8.296875 
Q 40.140625 3.328125 35.546875 0.953125 
Q 30.953125 -1.421875 24.3125 -1.421875 
Q 15.921875 -1.421875 10.953125 3.296875 
Q 6 8.015625 6 15.921875 
Q 6 25.140625 12.171875 29.828125 
Q 18.359375 34.515625 30.609375 34.515625 
L 43.21875 34.515625 
L 43.21875 35.40625 
Q 43.21875 41.609375 39.140625 45 
Q 35.0625 48.390625 27.6875 48.390625 
Q 23 48.390625 18.546875 47.265625 
Q 14.109375 46.140625 10.015625 43.890625 
L 10.015625 52.203125 
Q 14.9375 54.109375 19.578125 55.046875 
Q 24.21875 56 28.609375 56 
Q 40.484375 56 46.34375 49.84375 
Q 52.203125 43.703125 52.203125 31.203125 
" id="BitstreamVeraSans-Roman-61"/>
     </defs>
     <g transform="translate(133.69677002 5158.21875)scale(0.08 -0.08)">
      <use xlink:href="#BitstreamVeraSans-Roman-56"/>
      <use x="68.376953125" xlink:href="#BitstreamVeraSans-Roman-69"/>
      <use x="96.16015625" xlink:href="#BitstreamVeraSans-Roman-6e"/>
      <use x="159.5390625" xlink:href="#BitstreamVeraSans-Roman-61"/>
      <use x="220.818359375" xlink:href="#BitstreamVeraSans-Roman-79"/>
      <use x="279.998046875" xlink:href="#BitstreamVeraSans-Roman-61"/>
      <use x="341.27734375" xlink:href="#BitstreamVeraSans-Roman-67"/>
      <use x="404.75390625" xlink:href="#BitstreamVeraSans-Roman-61"/>
      <use x="466.033203125" xlink:href="#BitstreamVeraSans-Roman-6d"/>
     </g>
     <!-- [$p=100.0, t=000.1$, V4EB, MINKNAP, 4X, TARGET, REVERSE, 38K instances] -->
     <defs>
      <path id="BitstreamVeraSans-Roman-20"/>
      <path d="M 40.578125 39.3125 
Q 47.65625 37.796875 51.625 33 
Q 55.609375 28.21875 55.609375 21.1875 
Q 55.609375 10.40625 48.1875 4.484375 
Q 40.765625 -1.421875 27.09375 -1.421875 
Q 22.515625 -1.421875 17.65625 -0.515625 
Q 12.796875 0.390625 7.625 2.203125 
L 7.625 11.71875 
Q 11.71875 9.328125 16.59375 8.109375 
Q 21.484375 6.890625 26.8125 6.890625 
Q 36.078125 6.890625 40.9375 10.546875 
Q 45.796875 14.203125 45.796875 21.1875 
Q 45.796875 27.640625 41.28125 31.265625 
Q 36.765625 34.90625 28.71875 34.90625 
L 20.21875 34.90625 
L 20.21875 43.015625 
L 29.109375 43.015625 
Q 36.375 43.015625 40.234375 45.921875 
Q 44.09375 48.828125 44.09375 54.296875 
Q 44.09375 59.90625 40.109375 62.90625 
Q 36.140625 65.921875 28.71875 65.921875 
Q 24.65625 65.921875 20.015625 65.03125 
Q 15.375 64.15625 9.8125 62.3125 
L 9.8125 71.09375 
Q 15.4375 72.65625 20.34375 73.4375 
Q 25.25 74.21875 29.59375 74.21875 
Q 40.828125 74.21875 47.359375 69.109375 
Q 53.90625 64.015625 53.90625 55.328125 
Q 53.90625 49.265625 50.4375 45.09375 
Q 46.96875 40.921875 40.578125 39.3125 
" id="BitstreamVeraSans-Roman-33"/>
      <path d="M 6.203125 8.109375 
Q 6.203125 9.578125 6.5 10.890625 
L 13.71875 39.59375 
L 3.21875 39.59375 
Q 2.203125 39.59375 2.203125 40.921875 
Q 2.59375 43.109375 3.515625 43.109375 
L 14.59375 43.109375 
L 18.609375 59.421875 
Q 19 60.75 20.171875 61.671875 
Q 21.34375 62.59375 22.796875 62.59375 
Q 24.078125 62.59375 24.921875 61.828125 
Q 25.78125 61.078125 25.78125 59.8125 
Q 25.78125 59.515625 25.75 59.34375 
Q 25.734375 59.1875 25.6875 58.984375 
L 21.6875 43.109375 
L 31.984375 43.109375 
Q 33.015625 43.109375 33.015625 41.796875 
Q 32.953125 41.546875 32.8125 40.953125 
Q 32.671875 40.375 32.421875 39.984375 
Q 32.171875 39.59375 31.6875 39.59375 
L 20.796875 39.59375 
L 13.625 10.6875 
Q 12.890625 7.859375 12.890625 5.8125 
Q 12.890625 1.515625 15.828125 1.515625 
Q 20.21875 1.515625 23.609375 5.640625 
Q 27 9.765625 28.8125 14.703125 
Q 29.203125 15.28125 29.59375 15.28125 
L 30.8125 15.28125 
Q 31.203125 15.28125 31.4375 15.015625 
Q 31.6875 14.75 31.6875 14.40625 
Q 31.6875 14.203125 31.59375 14.109375 
Q 29.390625 8.0625 25.1875 3.46875 
Q 21 -1.125 15.578125 -1.125 
Q 11.625 -1.125 8.90625 1.453125 
Q 6.203125 4.046875 6.203125 8.109375 
" id="Cmmi10-74"/>
      <path d="M 9.8125 72.90625 
L 23.09375 72.90625 
L 55.421875 11.921875 
L 55.421875 72.90625 
L 64.984375 72.90625 
L 64.984375 0 
L 51.703125 0 
L 19.390625 60.984375 
L 19.390625 0 
L 9.8125 0 
z
" id="BitstreamVeraSans-Roman-4e"/>
      <path d="M 9.8125 72.90625 
L 19.671875 72.90625 
L 19.671875 0 
L 9.8125 0 
z
" id="BitstreamVeraSans-Roman-49"/>
      <path d="M 56.203125 29.59375 
L 56.203125 25.203125 
L 14.890625 25.203125 
Q 15.484375 15.921875 20.484375 11.0625 
Q 25.484375 6.203125 34.421875 6.203125 
Q 39.59375 6.203125 44.453125 7.46875 
Q 49.3125 8.734375 54.109375 11.28125 
L 54.109375 2.78125 
Q 49.265625 0.734375 44.1875 -0.34375 
Q 39.109375 -1.421875 33.890625 -1.421875 
Q 20.796875 -1.421875 13.15625 6.1875 
Q 5.515625 13.8125 5.515625 26.8125 
Q 5.515625 40.234375 12.765625 48.109375 
Q 20.015625 56 32.328125 56 
Q 43.359375 56 49.78125 48.890625 
Q 56.203125 41.796875 56.203125 29.59375 
M 47.21875 32.234375 
Q 47.125 39.59375 43.09375 43.984375 
Q 39.0625 48.390625 32.421875 48.390625 
Q 24.90625 48.390625 20.390625 44.140625 
Q 15.875 39.890625 15.1875 32.171875 
z
" id="BitstreamVeraSans-Roman-65"/>
      <path d="M 53.515625 70.515625 
L 53.515625 60.890625 
Q 47.90625 63.578125 42.921875 64.890625 
Q 37.9375 66.21875 33.296875 66.21875 
Q 25.25 66.21875 20.875 63.09375 
Q 16.5 59.96875 16.5 54.203125 
Q 16.5 49.359375 19.40625 46.890625 
Q 22.3125 44.4375 30.421875 42.921875 
L 36.375 41.703125 
Q 47.40625 39.59375 52.65625 34.296875 
Q 57.90625 29 57.90625 20.125 
Q 57.90625 9.515625 50.796875 4.046875 
Q 43.703125 -1.421875 29.984375 -1.421875 
Q 24.8125 -1.421875 18.96875 -0.25 
Q 13.140625 0.921875 6.890625 3.21875 
L 6.890625 13.375 
Q 12.890625 10.015625 18.65625 8.296875 
Q 24.421875 6.59375 29.984375 6.59375 
Q 38.421875 6.59375 43.015625 9.90625 
Q 47.609375 13.234375 47.609375 19.390625 
Q 47.609375 24.75 44.3125 27.78125 
Q 41.015625 30.8125 33.5 32.328125 
L 27.484375 33.5 
Q 16.453125 35.6875 11.515625 40.375 
Q 6.59375 45.0625 6.59375 53.421875 
Q 6.59375 63.09375 13.40625 68.65625 
Q 20.21875 74.21875 32.171875 74.21875 
Q 37.3125 74.21875 42.625 73.28125 
Q 47.953125 72.359375 53.515625 70.515625 
" id="BitstreamVeraSans-Roman-53"/>
      <path d="M 19.671875 34.8125 
L 19.671875 8.109375 
L 35.5 8.109375 
Q 43.453125 8.109375 47.28125 11.40625 
Q 51.125 14.703125 51.125 21.484375 
Q 51.125 28.328125 47.28125 31.5625 
Q 43.453125 34.8125 35.5 34.8125 
z
M 19.671875 64.796875 
L 19.671875 42.828125 
L 34.28125 42.828125 
Q 41.5 42.828125 45.03125 45.53125 
Q 48.578125 48.25 48.578125 53.8125 
Q 48.578125 59.328125 45.03125 62.0625 
Q 41.5 64.796875 34.28125 64.796875 
z
M 9.8125 72.90625 
L 35.015625 72.90625 
Q 46.296875 72.90625 52.390625 68.21875 
Q 58.5 63.53125 58.5 54.890625 
Q 58.5 48.1875 55.375 44.234375 
Q 52.25 40.28125 46.1875 39.3125 
Q 53.46875 37.75 57.5 32.78125 
Q 61.53125 27.828125 61.53125 20.40625 
Q 61.53125 10.640625 54.890625 5.3125 
Q 48.25 0 35.984375 0 
L 9.8125 0 
z
" id="BitstreamVeraSans-Roman-42"/>
      <path d="M 18.3125 70.21875 
L 18.3125 54.6875 
L 36.8125 54.6875 
L 36.8125 47.703125 
L 18.3125 47.703125 
L 18.3125 18.015625 
Q 18.3125 11.328125 20.140625 9.421875 
Q 21.96875 7.515625 27.59375 7.515625 
L 36.8125 7.515625 
L 36.8125 0 
L 27.59375 0 
Q 17.1875 0 13.234375 3.875 
Q 9.28125 7.765625 9.28125 18.015625 
L 9.28125 47.703125 
L 2.6875 47.703125 
L 2.6875 54.6875 
L 9.28125 54.6875 
L 9.28125 70.21875 
z
" id="BitstreamVeraSans-Roman-74"/>
      <path d="M 34.1875 63.1875 
L 20.796875 26.90625 
L 47.609375 26.90625 
z
M 28.609375 72.90625 
L 39.796875 72.90625 
L 67.578125 0 
L 57.328125 0 
L 50.6875 18.703125 
L 17.828125 18.703125 
L 11.1875 0 
L 0.78125 0 
z
" id="BitstreamVeraSans-Roman-41"/>
      <path d="M 6.296875 72.90625 
L 16.890625 72.90625 
L 35.015625 45.796875 
L 53.21875 72.90625 
L 63.8125 72.90625 
L 40.375 37.890625 
L 65.375 0 
L 54.78125 0 
L 34.28125 31 
L 13.625 0 
L 2.984375 0 
L 29 38.921875 
z
" id="BitstreamVeraSans-Roman-58"/>
      <path d="M 7.515625 13.28125 
Q 6.6875 13.28125 6.140625 13.90625 
Q 5.609375 14.546875 5.609375 15.28125 
Q 5.609375 16.109375 6.140625 16.6875 
Q 6.6875 17.28125 7.515625 17.28125 
L 70.3125 17.28125 
Q 71.046875 17.28125 71.578125 16.6875 
Q 72.125 16.109375 72.125 15.28125 
Q 72.125 14.546875 71.578125 13.90625 
Q 71.046875 13.28125 70.3125 13.28125 
z
M 7.515625 32.71875 
Q 6.6875 32.71875 6.140625 33.296875 
Q 5.609375 33.890625 5.609375 34.71875 
Q 5.609375 35.453125 6.140625 36.078125 
Q 6.6875 36.71875 7.515625 36.71875 
L 70.3125 36.71875 
Q 71.046875 36.71875 71.578125 36.078125 
Q 72.125 35.453125 72.125 34.71875 
Q 72.125 33.890625 71.578125 33.296875 
Q 71.046875 32.71875 70.3125 32.71875 
z
" id="Cmr10-3d"/>
      <path d="M 59.515625 10.40625 
L 59.515625 29.984375 
L 43.40625 29.984375 
L 43.40625 38.09375 
L 69.28125 38.09375 
L 69.28125 6.78125 
Q 63.578125 2.734375 56.6875 0.65625 
Q 49.8125 -1.421875 42 -1.421875 
Q 24.90625 -1.421875 15.25 8.5625 
Q 5.609375 18.5625 5.609375 36.375 
Q 5.609375 54.25 15.25 64.234375 
Q 24.90625 74.21875 42 74.21875 
Q 49.125 74.21875 55.546875 72.453125 
Q 61.96875 70.703125 67.390625 67.28125 
L 67.390625 56.78125 
Q 61.921875 61.421875 55.765625 63.765625 
Q 49.609375 66.109375 42.828125 66.109375 
Q 29.4375 66.109375 22.71875 58.640625 
Q 16.015625 51.171875 16.015625 36.375 
Q 16.015625 21.625 22.71875 14.15625 
Q 29.4375 6.6875 42.828125 6.6875 
Q 48.046875 6.6875 52.140625 7.59375 
Q 56.25 8.5 59.515625 10.40625 
" id="BitstreamVeraSans-Roman-47"/>
      <path d="M 9.8125 72.90625 
L 19.671875 72.90625 
L 19.671875 42.09375 
L 52.390625 72.90625 
L 65.09375 72.90625 
L 28.90625 38.921875 
L 67.671875 0 
L 54.6875 0 
L 19.671875 35.109375 
L 19.671875 0 
L 9.8125 0 
z
" id="BitstreamVeraSans-Roman-4b"/>
      <path d="M -0.296875 72.90625 
L 61.375 72.90625 
L 61.375 64.59375 
L 35.5 64.59375 
L 35.5 0 
L 25.59375 0 
L 25.59375 64.59375 
L -0.296875 64.59375 
z
" id="BitstreamVeraSans-Roman-54"/>
      <path d="M 9.8125 72.90625 
L 55.90625 72.90625 
L 55.90625 64.59375 
L 19.671875 64.59375 
L 19.671875 43.015625 
L 54.390625 43.015625 
L 54.390625 34.71875 
L 19.671875 34.71875 
L 19.671875 8.296875 
L 56.78125 8.296875 
L 56.78125 0 
L 9.8125 0 
z
" id="BitstreamVeraSans-Roman-45"/>
      <path d="M 31.78125 34.625 
Q 24.75 34.625 20.71875 30.859375 
Q 16.703125 27.09375 16.703125 20.515625 
Q 16.703125 13.921875 20.71875 10.15625 
Q 24.75 6.390625 31.78125 6.390625 
Q 38.8125 6.390625 42.859375 10.171875 
Q 46.921875 13.96875 46.921875 20.515625 
Q 46.921875 27.09375 42.890625 30.859375 
Q 38.875 34.625 31.78125 34.625 
M 21.921875 38.8125 
Q 15.578125 40.375 12.03125 44.71875 
Q 8.5 49.078125 8.5 55.328125 
Q 8.5 64.0625 14.71875 69.140625 
Q 20.953125 74.21875 31.78125 74.21875 
Q 42.671875 74.21875 48.875 69.140625 
Q 55.078125 64.0625 55.078125 55.328125 
Q 55.078125 49.078125 51.53125 44.71875 
Q 48 40.375 41.703125 38.8125 
Q 48.828125 37.15625 52.796875 32.3125 
Q 56.78125 27.484375 56.78125 20.515625 
Q 56.78125 9.90625 50.3125 4.234375 
Q 43.84375 -1.421875 31.78125 -1.421875 
Q 19.734375 -1.421875 13.25 4.234375 
Q 6.78125 9.90625 6.78125 20.515625 
Q 6.78125 27.484375 10.78125 32.3125 
Q 14.796875 37.15625 21.921875 38.8125 
M 18.3125 54.390625 
Q 18.3125 48.734375 21.84375 45.5625 
Q 25.390625 42.390625 31.78125 42.390625 
Q 38.140625 42.390625 41.71875 45.5625 
Q 45.3125 48.734375 45.3125 54.390625 
Q 45.3125 60.0625 41.71875 63.234375 
Q 38.140625 66.40625 31.78125 66.40625 
Q 25.390625 66.40625 21.84375 63.234375 
Q 18.3125 60.0625 18.3125 54.390625 
" id="BitstreamVeraSans-Roman-38"/>
      <path d="M 9.8125 72.90625 
L 24.515625 72.90625 
L 43.109375 23.296875 
L 61.8125 72.90625 
L 76.515625 72.90625 
L 76.515625 0 
L 66.890625 0 
L 66.890625 64.015625 
L 48.09375 14.015625 
L 38.1875 14.015625 
L 19.390625 64.015625 
L 19.390625 0 
L 9.8125 0 
z
" id="BitstreamVeraSans-Roman-4d"/>
      <path d="M 48.78125 52.59375 
L 48.78125 44.1875 
Q 44.96875 46.296875 41.140625 47.34375 
Q 37.3125 48.390625 33.40625 48.390625 
Q 24.65625 48.390625 19.8125 42.84375 
Q 14.984375 37.3125 14.984375 27.296875 
Q 14.984375 17.28125 19.8125 11.734375 
Q 24.65625 6.203125 33.40625 6.203125 
Q 37.3125 6.203125 41.140625 7.25 
Q 44.96875 8.296875 48.78125 10.40625 
L 48.78125 2.09375 
Q 45.015625 0.34375 40.984375 -0.53125 
Q 36.96875 -1.421875 32.421875 -1.421875 
Q 20.0625 -1.421875 12.78125 6.34375 
Q 5.515625 14.109375 5.515625 27.296875 
Q 5.515625 40.671875 12.859375 48.328125 
Q 20.21875 56 33.015625 56 
Q 37.15625 56 41.109375 55.140625 
Q 45.0625 54.296875 48.78125 52.59375 
" id="BitstreamVeraSans-Roman-63"/>
      <path d="M 30.421875 75.984375 
L 30.421875 -13.1875 
L 9.71875 -13.1875 
L 9.71875 -6.203125 
L 21.390625 -6.203125 
L 21.390625 69 
L 9.71875 69 
L 9.71875 75.984375 
z
" id="BitstreamVeraSans-Roman-5d"/>
      <path d="M 25 -2.203125 
Q 12.75 -2.203125 8.328125 7.875 
Q 3.90625 17.96875 3.90625 31.890625 
Q 3.90625 40.578125 5.484375 48.234375 
Q 7.078125 55.90625 11.78125 61.25 
Q 16.5 66.609375 25 66.609375 
Q 31.59375 66.609375 35.78125 63.375 
Q 39.984375 60.15625 42.1875 55.046875 
Q 44.390625 49.953125 45.1875 44.109375 
Q 46 38.28125 46 31.890625 
Q 46 23.296875 44.40625 15.796875 
Q 42.828125 8.296875 38.1875 3.046875 
Q 33.546875 -2.203125 25 -2.203125 
M 25 0.390625 
Q 30.5625 0.390625 33.296875 6.09375 
Q 36.03125 11.8125 36.671875 18.75 
Q 37.3125 25.6875 37.3125 33.5 
Q 37.3125 41.015625 36.671875 47.359375 
Q 36.03125 53.71875 33.3125 58.859375 
Q 30.609375 64.015625 25 64.015625 
Q 19.34375 64.015625 16.609375 58.828125 
Q 13.875 53.65625 13.234375 47.328125 
Q 12.59375 41.015625 12.59375 33.5 
Q 12.59375 27.9375 12.859375 23 
Q 13.140625 18.0625 14.3125 12.8125 
Q 15.484375 7.5625 18.09375 3.96875 
Q 20.703125 0.390625 25 0.390625 
" id="Cmr10-30"/>
      <path d="M 11.71875 12.40625 
L 22.015625 12.40625 
L 22.015625 4 
L 14.015625 -11.625 
L 7.71875 -11.625 
L 11.71875 4 
z
" id="BitstreamVeraSans-Roman-2c"/>
      <path d="M 44.390625 34.1875 
Q 47.5625 33.109375 50.5625 29.59375 
Q 53.5625 26.078125 56.59375 19.921875 
L 66.609375 0 
L 56 0 
L 46.6875 18.703125 
Q 43.0625 26.03125 39.671875 28.421875 
Q 36.28125 30.8125 30.421875 30.8125 
L 19.671875 30.8125 
L 19.671875 0 
L 9.8125 0 
L 9.8125 72.90625 
L 32.078125 72.90625 
Q 44.578125 72.90625 50.734375 67.671875 
Q 56.890625 62.453125 56.890625 51.90625 
Q 56.890625 45.015625 53.6875 40.46875 
Q 50.484375 35.9375 44.390625 34.1875 
M 19.671875 64.796875 
L 19.671875 38.921875 
L 32.078125 38.921875 
Q 39.203125 38.921875 42.84375 42.21875 
Q 46.484375 45.515625 46.484375 51.90625 
Q 46.484375 58.296875 42.84375 61.546875 
Q 39.203125 64.796875 32.078125 64.796875 
z
" id="BitstreamVeraSans-Roman-52"/>
      <path d="M 9.28125 0 
L 9.28125 3.515625 
Q 21.78125 3.515625 21.78125 6.6875 
L 21.78125 59.1875 
Q 16.609375 56.6875 8.6875 56.6875 
L 8.6875 60.203125 
Q 20.953125 60.203125 27.203125 66.609375 
L 28.609375 66.609375 
Q 28.953125 66.609375 29.265625 66.328125 
Q 29.59375 66.0625 29.59375 65.71875 
L 29.59375 6.6875 
Q 29.59375 3.515625 42.09375 3.515625 
L 42.09375 0 
z
" id="Cmr10-31"/>
      <path d="M -2.484375 -19.390625 
Q -3.421875 -19.390625 -3.421875 -18.109375 
Q -3.078125 -15.921875 -2.09375 -15.921875 
Q 1.03125 -15.921875 2.265625 -15.359375 
Q 3.515625 -14.796875 4.203125 -12.5 
L 15.484375 32.515625 
Q 16.21875 34.375 16.21875 37.3125 
Q 16.21875 41.609375 13.28125 41.609375 
Q 10.15625 41.609375 8.640625 37.859375 
Q 7.125 34.125 5.71875 28.421875 
Q 5.71875 27.78125 4.890625 27.78125 
L 3.71875 27.78125 
Q 3.46875 27.78125 3.171875 28.140625 
Q 2.875 28.515625 2.875 28.8125 
Q 3.953125 33.15625 4.953125 36.171875 
Q 5.953125 39.203125 8.078125 41.6875 
Q 10.203125 44.1875 13.375 44.1875 
Q 16.796875 44.1875 19.375 42.25 
Q 21.96875 40.328125 22.703125 37.015625 
Q 25.4375 40.1875 28.75 42.1875 
Q 32.078125 44.1875 35.59375 44.1875 
Q 39.796875 44.1875 42.890625 41.9375 
Q 46 39.703125 47.5625 36.0625 
Q 49.125 32.421875 49.125 28.21875 
Q 49.125 21.78125 45.828125 14.890625 
Q 42.53125 8.015625 36.890625 3.4375 
Q 31.25 -1.125 24.8125 -1.125 
Q 21.875 -1.125 19.5 0.53125 
Q 17.140625 2.203125 15.828125 4.890625 
L 11.28125 -12.890625 
Q 11.03125 -14.359375 10.984375 -14.59375 
Q 10.984375 -15.921875 17.578125 -15.921875 
Q 18.609375 -15.921875 18.609375 -17.1875 
Q 18.265625 -18.5 18.046875 -18.9375 
Q 17.828125 -19.390625 16.890625 -19.390625 
z
M 24.90625 1.515625 
Q 28.375 1.515625 31.34375 4.375 
Q 34.328125 7.234375 36.1875 10.796875 
Q 37.546875 13.484375 38.734375 17.359375 
Q 39.9375 21.234375 40.8125 25.625 
Q 41.703125 30.03125 41.703125 32.625 
Q 41.703125 34.90625 41.09375 36.90625 
Q 40.484375 38.921875 39.09375 40.265625 
Q 37.703125 41.609375 35.40625 41.609375 
Q 31.734375 41.609375 28.484375 38.984375 
Q 25.25 36.375 22.609375 32.515625 
L 22.609375 32.171875 
L 17.09375 10.109375 
Q 17.78125 6.546875 19.734375 4.03125 
Q 21.6875 1.515625 24.90625 1.515625 
" id="Cmmi10-70"/>
      <path d="M 44.28125 53.078125 
L 44.28125 44.578125 
Q 40.484375 46.53125 36.375 47.5 
Q 32.28125 48.484375 27.875 48.484375 
Q 21.1875 48.484375 17.84375 46.4375 
Q 14.5 44.390625 14.5 40.28125 
Q 14.5 37.15625 16.890625 35.375 
Q 19.28125 33.59375 26.515625 31.984375 
L 29.59375 31.296875 
Q 39.15625 29.25 43.1875 25.515625 
Q 47.21875 21.78125 47.21875 15.09375 
Q 47.21875 7.46875 41.1875 3.015625 
Q 35.15625 -1.421875 24.609375 -1.421875 
Q 20.21875 -1.421875 15.453125 -0.5625 
Q 10.6875 0.296875 5.421875 2 
L 5.421875 11.28125 
Q 10.40625 8.6875 15.234375 7.390625 
Q 20.0625 6.109375 24.8125 6.109375 
Q 31.15625 6.109375 34.5625 8.28125 
Q 37.984375 10.453125 37.984375 14.40625 
Q 37.984375 18.0625 35.515625 20.015625 
Q 33.0625 21.96875 24.703125 23.78125 
L 21.578125 24.515625 
Q 13.234375 26.265625 9.515625 29.90625 
Q 5.8125 33.546875 5.8125 39.890625 
Q 5.8125 47.609375 11.28125 51.796875 
Q 16.75 56 26.8125 56 
Q 31.78125 56 36.171875 55.265625 
Q 40.578125 54.546875 44.28125 53.078125 
" id="BitstreamVeraSans-Roman-73"/>
      <path d="M 8.40625 5.515625 
Q 8.40625 7.765625 10.0625 9.375 
Q 11.71875 10.984375 13.921875 10.984375 
Q 15.28125 10.984375 16.59375 10.25 
Q 17.921875 9.515625 18.65625 8.203125 
Q 19.390625 6.890625 19.390625 5.515625 
Q 19.390625 3.328125 17.765625 1.65625 
Q 16.15625 0 13.921875 0 
Q 11.71875 0 10.0625 1.65625 
Q 8.40625 3.328125 8.40625 5.515625 
" id="Cmmi10-3a"/>
      <path d="M 9.90625 -18.015625 
Q 9.90625 -17.578125 10.296875 -17.1875 
Q 13.921875 -13.71875 15.921875 -9.171875 
Q 17.921875 -4.640625 17.921875 0.390625 
L 17.921875 1.609375 
Q 16.3125 0 13.921875 0 
Q 11.625 0 10.015625 1.609375 
Q 8.40625 3.21875 8.40625 5.515625 
Q 8.40625 7.859375 10.015625 9.421875 
Q 11.625 10.984375 13.921875 10.984375 
Q 17.484375 10.984375 19 7.6875 
Q 20.515625 4.390625 20.515625 0.390625 
Q 20.515625 -5.171875 18.28125 -10.171875 
Q 16.0625 -15.1875 12.015625 -19.1875 
Q 11.625 -19.390625 11.375 -19.390625 
Q 10.890625 -19.390625 10.390625 -18.9375 
Q 9.90625 -18.5 9.90625 -18.015625 
" id="Cmmi10-3b"/>
      <path d="M 37.796875 64.3125 
L 12.890625 25.390625 
L 37.796875 25.390625 
z
M 35.203125 72.90625 
L 47.609375 72.90625 
L 47.609375 25.390625 
L 58.015625 25.390625 
L 58.015625 17.1875 
L 47.609375 17.1875 
L 47.609375 0 
L 37.796875 0 
L 37.796875 17.1875 
L 4.890625 17.1875 
L 4.890625 26.703125 
z
" id="BitstreamVeraSans-Roman-34"/>
      <path d="M 8.59375 75.984375 
L 29.296875 75.984375 
L 29.296875 69 
L 17.578125 69 
L 17.578125 -6.203125 
L 29.296875 -6.203125 
L 29.296875 -13.1875 
L 8.59375 -13.1875 
z
" id="BitstreamVeraSans-Roman-5b"/>
      <path d="M 19.671875 64.796875 
L 19.671875 37.40625 
L 32.078125 37.40625 
Q 38.96875 37.40625 42.71875 40.96875 
Q 46.484375 44.53125 46.484375 51.125 
Q 46.484375 57.671875 42.71875 61.234375 
Q 38.96875 64.796875 32.078125 64.796875 
z
M 9.8125 72.90625 
L 32.078125 72.90625 
Q 44.34375 72.90625 50.609375 67.359375 
Q 56.890625 61.8125 56.890625 51.125 
Q 56.890625 40.328125 50.609375 34.8125 
Q 44.34375 29.296875 32.078125 29.296875 
L 19.671875 29.296875 
L 19.671875 0 
L 9.8125 0 
z
" id="BitstreamVeraSans-Roman-50"/>
     </defs>
     <g transform="translate(7.23489501953 5167.177)scale(0.08 -0.08)">
      <use transform="translate(0.0 0.015625)" xlink:href="#BitstreamVeraSans-Roman-5b"/>
      <use transform="translate(39.013671875 0.015625)" xlink:href="#Cmmi10-70"/>
      <use transform="translate(106.865234375 0.015625)" xlink:href="#Cmr10-3d"/>
      <use transform="translate(202.109375 0.015625)" xlink:href="#Cmr10-31"/>
      <use transform="translate(252.109375 0.015625)" xlink:href="#Cmr10-30"/>
      <use transform="translate(302.109375 0.015625)" xlink:href="#Cmr10-30"/>
      <use transform="translate(352.109375 0.015625)" xlink:href="#Cmmi10-3a"/>
      <use transform="translate(397.353515625 0.015625)" xlink:href="#Cmr10-30"/>
      <use transform="translate(447.353515625 0.015625)" xlink:href="#Cmmi10-3b"/>
      <use transform="translate(492.59765625 0.015625)" xlink:href="#Cmmi10-74"/>
      <use transform="translate(546.240234375 0.015625)" xlink:href="#Cmr10-3d"/>
      <use transform="translate(641.484375 0.015625)" xlink:href="#Cmr10-30"/>
      <use transform="translate(691.484375 0.015625)" xlink:href="#Cmr10-30"/>
      <use transform="translate(741.484375 0.015625)" xlink:href="#Cmr10-30"/>
      <use transform="translate(791.484375 0.015625)" xlink:href="#Cmmi10-3a"/>
      <use transform="translate(836.728515625 0.015625)" xlink:href="#Cmr10-31"/>
      <use transform="translate(886.728515625 0.015625)" xlink:href="#BitstreamVeraSans-Roman-2c"/>
      <use transform="translate(918.515625 0.015625)" xlink:href="#BitstreamVeraSans-Roman-20"/>
      <use transform="translate(950.302734375 0.015625)" xlink:href="#BitstreamVeraSans-Roman-56"/>
      <use transform="translate(1018.7109375 0.015625)" xlink:href="#BitstreamVeraSans-Roman-34"/>
      <use transform="translate(1082.333984375 0.015625)" xlink:href="#BitstreamVeraSans-Roman-45"/>
      <use transform="translate(1145.517578125 0.015625)" xlink:href="#BitstreamVeraSans-Roman-42"/>
      <use transform="translate(1214.12109375 0.015625)" xlink:href="#BitstreamVeraSans-Roman-2c"/>
      <use transform="translate(1245.908203125 0.015625)" xlink:href="#BitstreamVeraSans-Roman-20"/>
      <use transform="translate(1277.6953125 0.015625)" xlink:href="#BitstreamVeraSans-Roman-4d"/>
      <use transform="translate(1363.974609375 0.015625)" xlink:href="#BitstreamVeraSans-Roman-49"/>
      <use transform="translate(1393.466796875 0.015625)" xlink:href="#BitstreamVeraSans-Roman-4e"/>
      <use transform="translate(1468.271484375 0.015625)" xlink:href="#BitstreamVeraSans-Roman-4b"/>
      <use transform="translate(1533.84765625 0.015625)" xlink:href="#BitstreamVeraSans-Roman-4e"/>
      <use transform="translate(1608.65234375 0.015625)" xlink:href="#BitstreamVeraSans-Roman-41"/>
      <use transform="translate(1677.060546875 0.015625)" xlink:href="#BitstreamVeraSans-Roman-50"/>
      <use transform="translate(1737.36328125 0.015625)" xlink:href="#BitstreamVeraSans-Roman-2c"/>
      <use transform="translate(1769.150390625 0.015625)" xlink:href="#BitstreamVeraSans-Roman-20"/>
      <use transform="translate(1800.9375 0.015625)" xlink:href="#BitstreamVeraSans-Roman-34"/>
      <use transform="translate(1864.560546875 0.015625)" xlink:href="#BitstreamVeraSans-Roman-58"/>
      <use transform="translate(1933.06640625 0.015625)" xlink:href="#BitstreamVeraSans-Roman-2c"/>
      <use transform="translate(1964.853515625 0.015625)" xlink:href="#BitstreamVeraSans-Roman-20"/>
      <use transform="translate(1996.640625 0.015625)" xlink:href="#BitstreamVeraSans-Roman-54"/>
      <use transform="translate(2057.724609375 0.015625)" xlink:href="#BitstreamVeraSans-Roman-41"/>
      <use transform="translate(2126.1328125 0.015625)" xlink:href="#BitstreamVeraSans-Roman-52"/>
      <use transform="translate(2195.615234375 0.015625)" xlink:href="#BitstreamVeraSans-Roman-47"/>
      <use transform="translate(2273.10546875 0.015625)" xlink:href="#BitstreamVeraSans-Roman-45"/>
      <use transform="translate(2336.2890625 0.015625)" xlink:href="#BitstreamVeraSans-Roman-54"/>
      <use transform="translate(2397.373046875 0.015625)" xlink:href="#BitstreamVeraSans-Roman-2c"/>
      <use transform="translate(2429.16015625 0.015625)" xlink:href="#BitstreamVeraSans-Roman-20"/>
      <use transform="translate(2460.947265625 0.015625)" xlink:href="#BitstreamVeraSans-Roman-52"/>
      <use transform="translate(2530.4296875 0.015625)" xlink:href="#BitstreamVeraSans-Roman-45"/>
      <use transform="translate(2593.61328125 0.015625)" xlink:href="#BitstreamVeraSans-Roman-56"/>
      <use transform="translate(2662.021484375 0.015625)" xlink:href="#BitstreamVeraSans-Roman-45"/>
      <use transform="translate(2725.205078125 0.015625)" xlink:href="#BitstreamVeraSans-Roman-52"/>
      <use transform="translate(2794.6875 0.015625)" xlink:href="#BitstreamVeraSans-Roman-53"/>
      <use transform="translate(2858.1640625 0.015625)" xlink:href="#BitstreamVeraSans-Roman-45"/>
      <use transform="translate(2921.34765625 0.015625)" xlink:href="#BitstreamVeraSans-Roman-2c"/>
      <use transform="translate(2953.134765625 0.015625)" xlink:href="#BitstreamVeraSans-Roman-20"/>
      <use transform="translate(2984.921875 0.015625)" xlink:href="#BitstreamVeraSans-Roman-33"/>
      <use transform="translate(3048.544921875 0.015625)" xlink:href="#BitstreamVeraSans-Roman-38"/>
      <use transform="translate(3112.16796875 0.015625)" xlink:href="#BitstreamVeraSans-Roman-4b"/>
      <use transform="translate(3177.744140625 0.015625)" xlink:href="#BitstreamVeraSans-Roman-20"/>
      <use transform="translate(3209.53125 0.015625)" xlink:href="#BitstreamVeraSans-Roman-69"/>
      <use transform="translate(3237.314453125 0.015625)" xlink:href="#BitstreamVeraSans-Roman-6e"/>
      <use transform="translate(3300.693359375 0.015625)" xlink:href="#BitstreamVeraSans-Roman-73"/>
      <use transform="translate(3352.79296875 0.015625)" xlink:href="#BitstreamVeraSans-Roman-74"/>
      <use transform="translate(3392.001953125 0.015625)" xlink:href="#BitstreamVeraSans-Roman-61"/>
      <use transform="translate(3453.28125 0.015625)" xlink:href="#BitstreamVeraSans-Roman-6e"/>
      <use transform="translate(3516.66015625 0.015625)" xlink:href="#BitstreamVeraSans-Roman-63"/>
      <use transform="translate(3571.640625 0.015625)" xlink:href="#BitstreamVeraSans-Roman-65"/>
      <use transform="translate(3633.1640625 0.015625)" xlink:href="#BitstreamVeraSans-Roman-73"/>
      <use transform="translate(3685.263671875 0.015625)" xlink:href="#BitstreamVeraSans-Roman-5d"/>
     </g>
    </g>
   </g>
   <g id="matplotlib.axis_2"/>
   <g id="legend_1">
    <g id="patch_9">
     <path d="M 283.846811 4016.19875 
L 299.846811 4016.19875 
L 299.846811 4010.59875 
L 283.846811 4010.59875 
z
" style="fill:#7f6e85;"/>
    </g>
    <g id="text_2">
     <!-- (100, 0)(43.9%   ±0.01) -->
     <defs>
      <path d="M 8.015625 75.875 
L 15.828125 75.875 
Q 23.140625 64.359375 26.78125 53.3125 
Q 30.421875 42.28125 30.421875 31.390625 
Q 30.421875 20.453125 26.78125 9.375 
Q 23.140625 -1.703125 15.828125 -13.1875 
L 8.015625 -13.1875 
Q 14.5 -2 17.703125 9.0625 
Q 20.90625 20.125 20.90625 31.390625 
Q 20.90625 42.671875 17.703125 53.65625 
Q 14.5 64.65625 8.015625 75.875 
" id="BitstreamVeraSans-Roman-29"/>
      <path d="M 31 75.875 
Q 24.46875 64.65625 21.28125 53.65625 
Q 18.109375 42.671875 18.109375 31.390625 
Q 18.109375 20.125 21.3125 9.0625 
Q 24.515625 -2 31 -13.1875 
L 23.1875 -13.1875 
Q 15.875 -1.703125 12.234375 9.375 
Q 8.59375 20.453125 8.59375 31.390625 
Q 8.59375 42.28125 12.203125 53.3125 
Q 15.828125 64.359375 23.1875 75.875 
z
" id="BitstreamVeraSans-Roman-28"/>
      <path d="M 10.984375 1.515625 
L 10.984375 10.5 
Q 14.703125 8.734375 18.5 7.8125 
Q 22.3125 6.890625 25.984375 6.890625 
Q 35.75 6.890625 40.890625 13.453125 
Q 46.046875 20.015625 46.78125 33.40625 
Q 43.953125 29.203125 39.59375 26.953125 
Q 35.25 24.703125 29.984375 24.703125 
Q 19.046875 24.703125 12.671875 31.3125 
Q 6.296875 37.9375 6.296875 49.421875 
Q 6.296875 60.640625 12.9375 67.421875 
Q 19.578125 74.21875 30.609375 74.21875 
Q 43.265625 74.21875 49.921875 64.515625 
Q 56.59375 54.828125 56.59375 36.375 
Q 56.59375 19.140625 48.40625 8.859375 
Q 40.234375 -1.421875 26.421875 -1.421875 
Q 22.703125 -1.421875 18.890625 -0.6875 
Q 15.09375 0.046875 10.984375 1.515625 
M 30.609375 32.421875 
Q 37.25 32.421875 41.125 36.953125 
Q 45.015625 41.5 45.015625 49.421875 
Q 45.015625 57.28125 41.125 61.84375 
Q 37.25 66.40625 30.609375 66.40625 
Q 23.96875 66.40625 20.09375 61.84375 
Q 16.21875 57.28125 16.21875 49.421875 
Q 16.21875 41.5 20.09375 36.953125 
Q 23.96875 32.421875 30.609375 32.421875 
" id="BitstreamVeraSans-Roman-39"/>
      <path d="M 31.78125 66.40625 
Q 24.171875 66.40625 20.328125 58.90625 
Q 16.5 51.421875 16.5 36.375 
Q 16.5 21.390625 20.328125 13.890625 
Q 24.171875 6.390625 31.78125 6.390625 
Q 39.453125 6.390625 43.28125 13.890625 
Q 47.125 21.390625 47.125 36.375 
Q 47.125 51.421875 43.28125 58.90625 
Q 39.453125 66.40625 31.78125 66.40625 
M 31.78125 74.21875 
Q 44.046875 74.21875 50.515625 64.515625 
Q 56.984375 54.828125 56.984375 36.375 
Q 56.984375 17.96875 50.515625 8.265625 
Q 44.046875 -1.421875 31.78125 -1.421875 
Q 19.53125 -1.421875 13.0625 8.265625 
Q 6.59375 17.96875 6.59375 36.375 
Q 6.59375 54.828125 13.0625 64.515625 
Q 19.53125 74.21875 31.78125 74.21875 
" id="BitstreamVeraSans-Roman-30"/>
      <path d="M 72.703125 32.078125 
Q 68.453125 32.078125 66.03125 28.46875 
Q 63.625 24.859375 63.625 18.40625 
Q 63.625 12.0625 66.03125 8.421875 
Q 68.453125 4.78125 72.703125 4.78125 
Q 76.859375 4.78125 79.265625 8.421875 
Q 81.6875 12.0625 81.6875 18.40625 
Q 81.6875 24.8125 79.265625 28.4375 
Q 76.859375 32.078125 72.703125 32.078125 
M 72.703125 38.28125 
Q 80.421875 38.28125 84.953125 32.90625 
Q 89.5 27.546875 89.5 18.40625 
Q 89.5 9.28125 84.9375 3.921875 
Q 80.375 -1.421875 72.703125 -1.421875 
Q 64.890625 -1.421875 60.34375 3.921875 
Q 55.8125 9.28125 55.8125 18.40625 
Q 55.8125 27.59375 60.375 32.9375 
Q 64.9375 38.28125 72.703125 38.28125 
M 22.3125 68.015625 
Q 18.109375 68.015625 15.6875 64.375 
Q 13.28125 60.75 13.28125 54.390625 
Q 13.28125 47.953125 15.671875 44.328125 
Q 18.0625 40.71875 22.3125 40.71875 
Q 26.5625 40.71875 28.96875 44.328125 
Q 31.390625 47.953125 31.390625 54.390625 
Q 31.390625 60.6875 28.953125 64.34375 
Q 26.515625 68.015625 22.3125 68.015625 
M 66.40625 74.21875 
L 74.21875 74.21875 
L 28.609375 -1.421875 
L 20.796875 -1.421875 
z
M 22.3125 74.21875 
Q 30.03125 74.21875 34.609375 68.875 
Q 39.203125 63.53125 39.203125 54.390625 
Q 39.203125 45.171875 34.640625 39.84375 
Q 30.078125 34.515625 22.3125 34.515625 
Q 14.546875 34.515625 10.03125 39.859375 
Q 5.515625 45.21875 5.515625 54.390625 
Q 5.515625 63.484375 10.046875 68.84375 
Q 14.59375 74.21875 22.3125 74.21875 
" id="BitstreamVeraSans-Roman-25"/>
      <path d="M 12.40625 8.296875 
L 28.515625 8.296875 
L 28.515625 63.921875 
L 10.984375 60.40625 
L 10.984375 69.390625 
L 28.421875 72.90625 
L 38.28125 72.90625 
L 38.28125 8.296875 
L 54.390625 8.296875 
L 54.390625 0 
L 12.40625 0 
z
" id="BitstreamVeraSans-Roman-31"/>
      <path d="M 10.6875 12.40625 
L 21 12.40625 
L 21 0 
L 10.6875 0 
z
" id="BitstreamVeraSans-Roman-2e"/>
      <path d="M 46 62.703125 
L 46 43.796875 
L 73.1875 43.796875 
L 73.1875 35.5 
L 46 35.5 
L 46 16.609375 
L 37.796875 16.609375 
L 37.796875 35.5 
L 10.59375 35.5 
L 10.59375 43.796875 
L 37.796875 43.796875 
L 37.796875 62.703125 
z
M 10.59375 8.296875 
L 73.1875 8.296875 
L 73.1875 0 
L 10.59375 0 
z
" id="BitstreamVeraSans-Roman-b1"/>
     </defs>
     <g transform="translate(306.246811035 4016.19875)scale(0.08 -0.08)">
      <use xlink:href="#BitstreamVeraSans-Roman-28"/>
      <use x="39.013671875" xlink:href="#BitstreamVeraSans-Roman-31"/>
      <use x="102.63671875" xlink:href="#BitstreamVeraSans-Roman-30"/>
      <use x="166.259765625" xlink:href="#BitstreamVeraSans-Roman-30"/>
      <use x="229.8828125" xlink:href="#BitstreamVeraSans-Roman-2c"/>
      <use x="261.669921875" xlink:href="#BitstreamVeraSans-Roman-20"/>
      <use x="293.45703125" xlink:href="#BitstreamVeraSans-Roman-30"/>
      <use x="357.080078125" xlink:href="#BitstreamVeraSans-Roman-29"/>
      <use x="396.09375" xlink:href="#BitstreamVeraSans-Roman-28"/>
      <use x="435.107421875" xlink:href="#BitstreamVeraSans-Roman-34"/>
      <use x="498.73046875" xlink:href="#BitstreamVeraSans-Roman-33"/>
      <use x="562.353515625" xlink:href="#BitstreamVeraSans-Roman-2e"/>
      <use x="594.140625" xlink:href="#BitstreamVeraSans-Roman-39"/>
      <use x="657.763671875" xlink:href="#BitstreamVeraSans-Roman-25"/>
      <use x="752.783203125" xlink:href="#BitstreamVeraSans-Roman-20"/>
      <use x="784.5703125" xlink:href="#BitstreamVeraSans-Roman-20"/>
      <use x="816.357421875" xlink:href="#BitstreamVeraSans-Roman-20"/>
      <use x="848.14453125" xlink:href="#BitstreamVeraSans-Roman-b1"/>
      <use x="931.93359375" xlink:href="#BitstreamVeraSans-Roman-30"/>
      <use x="995.556640625" xlink:href="#BitstreamVeraSans-Roman-2e"/>
      <use x="1027.34375" xlink:href="#BitstreamVeraSans-Roman-30"/>
      <use x="1090.966796875" xlink:href="#BitstreamVeraSans-Roman-31"/>
      <use x="1154.58984375" xlink:href="#BitstreamVeraSans-Roman-29"/>
     </g>
    </g>
    <g id="patch_10">
     <path d="M 283.846811 4027.94125 
L 299.846811 4027.94125 
L 299.846811 4022.34125 
L 283.846811 4022.34125 
z
" style="fill:#4eae4b;"/>
    </g>
    <g id="text_3">
     <!-- (75, 25)(6.5%    ±0.0) -->
     <defs>
      <path d="M 10.796875 72.90625 
L 49.515625 72.90625 
L 49.515625 64.59375 
L 19.828125 64.59375 
L 19.828125 46.734375 
Q 21.96875 47.46875 24.109375 47.828125 
Q 26.265625 48.1875 28.421875 48.1875 
Q 40.625 48.1875 47.75 41.5 
Q 54.890625 34.8125 54.890625 23.390625 
Q 54.890625 11.625 47.5625 5.09375 
Q 40.234375 -1.421875 26.90625 -1.421875 
Q 22.3125 -1.421875 17.546875 -0.640625 
Q 12.796875 0.140625 7.71875 1.703125 
L 7.71875 11.625 
Q 12.109375 9.234375 16.796875 8.0625 
Q 21.484375 6.890625 26.703125 6.890625 
Q 35.15625 6.890625 40.078125 11.328125 
Q 45.015625 15.765625 45.015625 23.390625 
Q 45.015625 31 40.078125 35.4375 
Q 35.15625 39.890625 26.703125 39.890625 
Q 22.75 39.890625 18.8125 39.015625 
Q 14.890625 38.140625 10.796875 36.28125 
z
" id="BitstreamVeraSans-Roman-35"/>
      <path d="M 19.1875 8.296875 
L 53.609375 8.296875 
L 53.609375 0 
L 7.328125 0 
L 7.328125 8.296875 
Q 12.9375 14.109375 22.625 23.890625 
Q 32.328125 33.6875 34.8125 36.53125 
Q 39.546875 41.84375 41.421875 45.53125 
Q 43.3125 49.21875 43.3125 52.78125 
Q 43.3125 58.59375 39.234375 62.25 
Q 35.15625 65.921875 28.609375 65.921875 
Q 23.96875 65.921875 18.8125 64.3125 
Q 13.671875 62.703125 7.8125 59.421875 
L 7.8125 69.390625 
Q 13.765625 71.78125 18.9375 73 
Q 24.125 74.21875 28.421875 74.21875 
Q 39.75 74.21875 46.484375 68.546875 
Q 53.21875 62.890625 53.21875 53.421875 
Q 53.21875 48.921875 51.53125 44.890625 
Q 49.859375 40.875 45.40625 35.40625 
Q 44.1875 33.984375 37.640625 27.21875 
Q 31.109375 20.453125 19.1875 8.296875 
" id="BitstreamVeraSans-Roman-32"/>
      <path d="M 8.203125 72.90625 
L 55.078125 72.90625 
L 55.078125 68.703125 
L 28.609375 0 
L 18.3125 0 
L 43.21875 64.59375 
L 8.203125 64.59375 
z
" id="BitstreamVeraSans-Roman-37"/>
      <path d="M 33.015625 40.375 
Q 26.375 40.375 22.484375 35.828125 
Q 18.609375 31.296875 18.609375 23.390625 
Q 18.609375 15.53125 22.484375 10.953125 
Q 26.375 6.390625 33.015625 6.390625 
Q 39.65625 6.390625 43.53125 10.953125 
Q 47.40625 15.53125 47.40625 23.390625 
Q 47.40625 31.296875 43.53125 35.828125 
Q 39.65625 40.375 33.015625 40.375 
M 52.59375 71.296875 
L 52.59375 62.3125 
Q 48.875 64.0625 45.09375 64.984375 
Q 41.3125 65.921875 37.59375 65.921875 
Q 27.828125 65.921875 22.671875 59.328125 
Q 17.53125 52.734375 16.796875 39.40625 
Q 19.671875 43.65625 24.015625 45.921875 
Q 28.375 48.1875 33.59375 48.1875 
Q 44.578125 48.1875 50.953125 41.515625 
Q 57.328125 34.859375 57.328125 23.390625 
Q 57.328125 12.15625 50.6875 5.359375 
Q 44.046875 -1.421875 33.015625 -1.421875 
Q 20.359375 -1.421875 13.671875 8.265625 
Q 6.984375 17.96875 6.984375 36.375 
Q 6.984375 53.65625 15.1875 63.9375 
Q 23.390625 74.21875 37.203125 74.21875 
Q 40.921875 74.21875 44.703125 73.484375 
Q 48.484375 72.75 52.59375 71.296875 
" id="BitstreamVeraSans-Roman-36"/>
     </defs>
     <g transform="translate(306.246811035 4027.94125)scale(0.08 -0.08)">
      <use xlink:href="#BitstreamVeraSans-Roman-28"/>
      <use x="39.013671875" xlink:href="#BitstreamVeraSans-Roman-37"/>
      <use x="102.63671875" xlink:href="#BitstreamVeraSans-Roman-35"/>
      <use x="166.259765625" xlink:href="#BitstreamVeraSans-Roman-2c"/>
      <use x="198.046875" xlink:href="#BitstreamVeraSans-Roman-20"/>
      <use x="229.833984375" xlink:href="#BitstreamVeraSans-Roman-32"/>
      <use x="293.45703125" xlink:href="#BitstreamVeraSans-Roman-35"/>
      <use x="357.080078125" xlink:href="#BitstreamVeraSans-Roman-29"/>
      <use x="396.09375" xlink:href="#BitstreamVeraSans-Roman-28"/>
      <use x="435.107421875" xlink:href="#BitstreamVeraSans-Roman-36"/>
      <use x="498.73046875" xlink:href="#BitstreamVeraSans-Roman-2e"/>
      <use x="530.517578125" xlink:href="#BitstreamVeraSans-Roman-35"/>
      <use x="594.140625" xlink:href="#BitstreamVeraSans-Roman-25"/>
      <use x="689.16015625" xlink:href="#BitstreamVeraSans-Roman-20"/>
      <use x="720.947265625" xlink:href="#BitstreamVeraSans-Roman-20"/>
      <use x="752.734375" xlink:href="#BitstreamVeraSans-Roman-20"/>
      <use x="784.521484375" xlink:href="#BitstreamVeraSans-Roman-20"/>
      <use x="816.30859375" xlink:href="#BitstreamVeraSans-Roman-b1"/>
      <use x="900.09765625" xlink:href="#BitstreamVeraSans-Roman-30"/>
      <use x="963.720703125" xlink:href="#BitstreamVeraSans-Roman-2e"/>
      <use x="995.5078125" xlink:href="#BitstreamVeraSans-Roman-30"/>
      <use x="1059.130859375" xlink:href="#BitstreamVeraSans-Roman-29"/>
     </g>
    </g>
    <g id="patch_11">
     <path d="M 283.846811 4039.68375 
L 299.846811 4039.68375 
L 299.846811 4034.08375 
L 283.846811 4034.08375 
z
" style="fill:#3e8e95;"/>
    </g>
    <g id="text_4">
     <!-- (50, 50)(21.2%   ±0.01) -->
     <g transform="translate(306.246811035 4039.68375)scale(0.08 -0.08)">
      <use xlink:href="#BitstreamVeraSans-Roman-28"/>
      <use x="39.013671875" xlink:href="#BitstreamVeraSans-Roman-35"/>
      <use x="102.63671875" xlink:href="#BitstreamVeraSans-Roman-30"/>
      <use x="166.259765625" xlink:href="#BitstreamVeraSans-Roman-2c"/>
      <use x="198.046875" xlink:href="#BitstreamVeraSans-Roman-20"/>
      <use x="229.833984375" xlink:href="#BitstreamVeraSans-Roman-35"/>
      <use x="293.45703125" xlink:href="#BitstreamVeraSans-Roman-30"/>
      <use x="357.080078125" xlink:href="#BitstreamVeraSans-Roman-29"/>
      <use x="396.09375" xlink:href="#BitstreamVeraSans-Roman-28"/>
      <use x="435.107421875" xlink:href="#BitstreamVeraSans-Roman-32"/>
      <use x="498.73046875" xlink:href="#BitstreamVeraSans-Roman-31"/>
      <use x="562.353515625" xlink:href="#BitstreamVeraSans-Roman-2e"/>
      <use x="594.140625" xlink:href="#BitstreamVeraSans-Roman-32"/>
      <use x="657.763671875" xlink:href="#BitstreamVeraSans-Roman-25"/>
      <use x="752.783203125" xlink:href="#BitstreamVeraSans-Roman-20"/>
      <use x="784.5703125" xlink:href="#BitstreamVeraSans-Roman-20"/>
      <use x="816.357421875" xlink:href="#BitstreamVeraSans-Roman-20"/>
      <use x="848.14453125" xlink:href="#BitstreamVeraSans-Roman-b1"/>
      <use x="931.93359375" xlink:href="#BitstreamVeraSans-Roman-30"/>
      <use x="995.556640625" xlink:href="#BitstreamVeraSans-Roman-2e"/>
      <use x="1027.34375" xlink:href="#BitstreamVeraSans-Roman-30"/>
      <use x="1090.966796875" xlink:href="#BitstreamVeraSans-Roman-31"/>
      <use x="1154.58984375" xlink:href="#BitstreamVeraSans-Roman-29"/>
     </g>
    </g>
    <g id="patch_12">
     <path d="M 283.846811 4051.42625 
L 299.846811 4051.42625 
L 299.846811 4045.82625 
L 283.846811 4045.82625 
z
" style="fill:#725c83;"/>
    </g>
    <g id="text_5">
     <!-- (25, 75)(5.3%    ±0.0) -->
     <g transform="translate(306.246811035 4051.42625)scale(0.08 -0.08)">
      <use xlink:href="#BitstreamVeraSans-Roman-28"/>
      <use x="39.013671875" xlink:href="#BitstreamVeraSans-Roman-32"/>
      <use x="102.63671875" xlink:href="#BitstreamVeraSans-Roman-35"/>
      <use x="166.259765625" xlink:href="#BitstreamVeraSans-Roman-2c"/>
      <use x="198.046875" xlink:href="#BitstreamVeraSans-Roman-20"/>
      <use x="229.833984375" xlink:href="#BitstreamVeraSans-Roman-37"/>
      <use x="293.45703125" xlink:href="#BitstreamVeraSans-Roman-35"/>
      <use x="357.080078125" xlink:href="#BitstreamVeraSans-Roman-29"/>
      <use x="396.09375" xlink:href="#BitstreamVeraSans-Roman-28"/>
      <use x="435.107421875" xlink:href="#BitstreamVeraSans-Roman-35"/>
      <use x="498.73046875" xlink:href="#BitstreamVeraSans-Roman-2e"/>
      <use x="530.517578125" xlink:href="#BitstreamVeraSans-Roman-33"/>
      <use x="594.140625" xlink:href="#BitstreamVeraSans-Roman-25"/>
      <use x="689.16015625" xlink:href="#BitstreamVeraSans-Roman-20"/>
      <use x="720.947265625" xlink:href="#BitstreamVeraSans-Roman-20"/>
      <use x="752.734375" xlink:href="#BitstreamVeraSans-Roman-20"/>
      <use x="784.521484375" xlink:href="#BitstreamVeraSans-Roman-20"/>
      <use x="816.30859375" xlink:href="#BitstreamVeraSans-Roman-b1"/>
      <use x="900.09765625" xlink:href="#BitstreamVeraSans-Roman-30"/>
      <use x="963.720703125" xlink:href="#BitstreamVeraSans-Roman-2e"/>
      <use x="995.5078125" xlink:href="#BitstreamVeraSans-Roman-30"/>
      <use x="1059.130859375" xlink:href="#BitstreamVeraSans-Roman-29"/>
     </g>
    </g>
    <g id="patch_13">
     <path d="M 283.846811 4063.16875 
L 299.846811 4063.16875 
L 299.846811 4057.56875 
L 283.846811 4057.56875 
z
" style="fill:#e41a1c;"/>
    </g>
    <g id="text_6">
     <!-- (0, 100)(23.1%   ±0.01) -->
     <g transform="translate(306.246811035 4063.16875)scale(0.08 -0.08)">
      <use xlink:href="#BitstreamVeraSans-Roman-28"/>
      <use x="39.013671875" xlink:href="#BitstreamVeraSans-Roman-30"/>
      <use x="102.63671875" xlink:href="#BitstreamVeraSans-Roman-2c"/>
      <use x="134.423828125" xlink:href="#BitstreamVeraSans-Roman-20"/>
      <use x="166.2109375" xlink:href="#BitstreamVeraSans-Roman-31"/>
      <use x="229.833984375" xlink:href="#BitstreamVeraSans-Roman-30"/>
      <use x="293.45703125" xlink:href="#BitstreamVeraSans-Roman-30"/>
      <use x="357.080078125" xlink:href="#BitstreamVeraSans-Roman-29"/>
      <use x="396.09375" xlink:href="#BitstreamVeraSans-Roman-28"/>
      <use x="435.107421875" xlink:href="#BitstreamVeraSans-Roman-32"/>
      <use x="498.73046875" xlink:href="#BitstreamVeraSans-Roman-33"/>
      <use x="562.353515625" xlink:href="#BitstreamVeraSans-Roman-2e"/>
      <use x="594.140625" xlink:href="#BitstreamVeraSans-Roman-31"/>
      <use x="657.763671875" xlink:href="#BitstreamVeraSans-Roman-25"/>
      <use x="752.783203125" xlink:href="#BitstreamVeraSans-Roman-20"/>
      <use x="784.5703125" xlink:href="#BitstreamVeraSans-Roman-20"/>
      <use x="816.357421875" xlink:href="#BitstreamVeraSans-Roman-20"/>
      <use x="848.14453125" xlink:href="#BitstreamVeraSans-Roman-b1"/>
      <use x="931.93359375" xlink:href="#BitstreamVeraSans-Roman-30"/>
      <use x="995.556640625" xlink:href="#BitstreamVeraSans-Roman-2e"/>
      <use x="1027.34375" xlink:href="#BitstreamVeraSans-Roman-30"/>
      <use x="1090.966796875" xlink:href="#BitstreamVeraSans-Roman-31"/>
      <use x="1154.58984375" xlink:href="#BitstreamVeraSans-Roman-29"/>
     </g>
    </g>
    <g id="patch_14">
     <path d="M 283.846811 4074.91125 
L 299.846811 4074.91125 
L 299.846811 4069.31125 
L 283.846811 4069.31125 
z
"/>
    </g>
    <g id="text_7">
     <!-- (0, 0)  (0.0%    ±0.0) -->
     <g transform="translate(306.246811035 4074.91125)scale(0.08 -0.08)">
      <use xlink:href="#BitstreamVeraSans-Roman-28"/>
      <use x="39.013671875" xlink:href="#BitstreamVeraSans-Roman-30"/>
      <use x="102.63671875" xlink:href="#BitstreamVeraSans-Roman-2c"/>
      <use x="134.423828125" xlink:href="#BitstreamVeraSans-Roman-20"/>
      <use x="166.2109375" xlink:href="#BitstreamVeraSans-Roman-30"/>
      <use x="229.833984375" xlink:href="#BitstreamVeraSans-Roman-29"/>
      <use x="268.84765625" xlink:href="#BitstreamVeraSans-Roman-20"/>
      <use x="300.634765625" xlink:href="#BitstreamVeraSans-Roman-20"/>
      <use x="332.421875" xlink:href="#BitstreamVeraSans-Roman-28"/>
      <use x="371.435546875" xlink:href="#BitstreamVeraSans-Roman-30"/>
      <use x="435.05859375" xlink:href="#BitstreamVeraSans-Roman-2e"/>
      <use x="466.845703125" xlink:href="#BitstreamVeraSans-Roman-30"/>
      <use x="530.46875" xlink:href="#BitstreamVeraSans-Roman-25"/>
      <use x="625.48828125" xlink:href="#BitstreamVeraSans-Roman-20"/>
      <use x="657.275390625" xlink:href="#BitstreamVeraSans-Roman-20"/>
      <use x="689.0625" xlink:href="#BitstreamVeraSans-Roman-20"/>
      <use x="720.849609375" xlink:href="#BitstreamVeraSans-Roman-20"/>
      <use x="752.63671875" xlink:href="#BitstreamVeraSans-Roman-b1"/>
      <use x="836.42578125" xlink:href="#BitstreamVeraSans-Roman-30"/>
      <use x="900.048828125" xlink:href="#BitstreamVeraSans-Roman-2e"/>
      <use x="931.8359375" xlink:href="#BitstreamVeraSans-Roman-30"/>
      <use x="995.458984375" xlink:href="#BitstreamVeraSans-Roman-29"/>
     </g>
    </g>
   </g>
  </g>
  <g id="axes_2">
   <g id="patch_15">
    <path d="M 658.000034 3013.669069 
C 658.000034 2983.904741 649.014472 2954.822484 632.224671 2930.245711 
C 615.43487 2905.668938 591.61033 2886.724037 563.883238 2875.901673 
C 536.156145 2865.07931 505.797272 2862.875489 476.797867 2869.579944 
C 447.798462 2876.284399 421.487609 2891.589855 401.324367 2913.484121 
L 510.110243 3013.669069 
L 658.000034 3013.669069 
z
" style="fill:#7f6e85;"/>
   </g>
   <g id="patch_16">
    <path d="M 401.324367 2913.484121 
C 396.24762 2918.99671 391.597223 2924.887221 387.413378 2931.104732 
C 383.229533 2937.322243 379.52433 2943.848787 376.329799 2950.627945 
L 510.110243 3013.669069 
L 401.324367 2913.484121 
z
" style="fill:#4eae4b;"/>
   </g>
   <g id="patch_17">
    <path d="M 376.329799 2950.627945 
C 367.95721 2968.395531 363.207512 2987.654355 362.358634 3007.277473 
C 361.509756 3026.900591 364.578587 3046.497637 371.385551 3064.921876 
C 378.192515 3083.346116 388.6022 3100.231032 402.005477 3114.588592 
C 415.408754 3128.946152 431.538988 3140.490738 449.452308 3148.546811 
L 510.110243 3013.669069 
L 376.329799 2950.627945 
z
" style="fill:#3e8e95;"/>
   </g>
   <g id="patch_18">
    <path d="M 449.452308 3148.546811 
C 460.039052 3153.307938 471.149637 3156.806098 482.554432 3158.968992 
C 493.959227 3161.131887 505.579118 3161.944511 517.173947 3161.390071 
L 510.110243 3013.669069 
L 449.452308 3148.546811 
z
" style="fill:#725c83;"/>
   </g>
   <g id="patch_19">
    <path d="M 517.173947 3161.390071 
C 555.117653 3159.575684 590.940801 3143.209904 617.152379 3115.714997 
C 643.363958 3088.220089 658.00003 3051.656144 658.000034 3013.669083 
L 510.110243 3013.669069 
L 517.173947 3161.390071 
z
" style="fill:#e41a1c;"/>
   </g>
   <g id="patch_20">
    <path d="M 658.000034 3013.669083 
C 658.000034 3013.669083 658.000034 3013.669083 658.000034 3013.669083 
L 510.110243 3013.669069 
L 658.000034 3013.669083 
z
"/>
   </g>
   <g id="patch_21">
    <path clip-path="url(#pe23f681c98)" d="M 510.110243 3058.036006 
C 521.876492 3058.036006 533.16241 3053.361226 541.482405 3045.041231 
C 549.8024 3036.721237 554.47718 3025.435318 554.47718 3013.669069 
C 554.47718 3001.90282 549.8024 2990.616901 541.482405 2982.296907 
C 533.16241 2973.976912 521.876492 2969.302132 510.110243 2969.302132 
C 498.343993 2969.302132 487.058075 2973.976912 478.73808 2982.296907 
C 470.418086 2990.616901 465.743305 3001.90282 465.743305 3013.669069 
C 465.743305 3025.435318 470.418086 3036.721237 478.73808 3045.041231 
C 487.058075 3053.361226 498.343993 3058.036006 510.110243 3058.036006 
z
" style="fill:#ffffff;"/>
   </g>
   <g id="matplotlib.axis_3">
    <g id="text_8">
     <!-- ER_Vinayagam -->
     <defs>
      <path d="M 50.984375 -16.609375 
L 50.984375 -23.578125 
L -0.984375 -23.578125 
L -0.984375 -16.609375 
z
" id="BitstreamVeraSans-Roman-5f"/>
     </defs>
     <g transform="translate(479.90989502 5158.44125)scale(0.08 -0.08)">
      <use xlink:href="#BitstreamVeraSans-Roman-45"/>
      <use x="63.18359375" xlink:href="#BitstreamVeraSans-Roman-52"/>
      <use x="132.666015625" xlink:href="#BitstreamVeraSans-Roman-5f"/>
      <use x="182.666015625" xlink:href="#BitstreamVeraSans-Roman-56"/>
      <use x="251.04296875" xlink:href="#BitstreamVeraSans-Roman-69"/>
      <use x="278.826171875" xlink:href="#BitstreamVeraSans-Roman-6e"/>
      <use x="342.205078125" xlink:href="#BitstreamVeraSans-Roman-61"/>
      <use x="403.484375" xlink:href="#BitstreamVeraSans-Roman-79"/>
      <use x="462.6640625" xlink:href="#BitstreamVeraSans-Roman-61"/>
      <use x="523.943359375" xlink:href="#BitstreamVeraSans-Roman-67"/>
      <use x="587.419921875" xlink:href="#BitstreamVeraSans-Roman-61"/>
      <use x="648.69921875" xlink:href="#BitstreamVeraSans-Roman-6d"/>
     </g>
     <!-- [$p=100.0, t=000.1$, V4EB, MINKNAP, 4X, TARGET, REVERSE, 38K instances] -->
     <g transform="translate(360.75489502 5167.622)scale(0.08 -0.08)">
      <use transform="translate(0.0 0.015625)" xlink:href="#BitstreamVeraSans-Roman-5b"/>
      <use transform="translate(39.013671875 0.015625)" xlink:href="#Cmmi10-70"/>
      <use transform="translate(106.865234375 0.015625)" xlink:href="#Cmr10-3d"/>
      <use transform="translate(202.109375 0.015625)" xlink:href="#Cmr10-31"/>
      <use transform="translate(252.109375 0.015625)" xlink:href="#Cmr10-30"/>
      <use transform="translate(302.109375 0.015625)" xlink:href="#Cmr10-30"/>
      <use transform="translate(352.109375 0.015625)" xlink:href="#Cmmi10-3a"/>
      <use transform="translate(397.353515625 0.015625)" xlink:href="#Cmr10-30"/>
      <use transform="translate(447.353515625 0.015625)" xlink:href="#Cmmi10-3b"/>
      <use transform="translate(492.59765625 0.015625)" xlink:href="#Cmmi10-74"/>
      <use transform="translate(546.240234375 0.015625)" xlink:href="#Cmr10-3d"/>
      <use transform="translate(641.484375 0.015625)" xlink:href="#Cmr10-30"/>
      <use transform="translate(691.484375 0.015625)" xlink:href="#Cmr10-30"/>
      <use transform="translate(741.484375 0.015625)" xlink:href="#Cmr10-30"/>
      <use transform="translate(791.484375 0.015625)" xlink:href="#Cmmi10-3a"/>
      <use transform="translate(836.728515625 0.015625)" xlink:href="#Cmr10-31"/>
      <use transform="translate(886.728515625 0.015625)" xlink:href="#BitstreamVeraSans-Roman-2c"/>
      <use transform="translate(918.515625 0.015625)" xlink:href="#BitstreamVeraSans-Roman-20"/>
      <use transform="translate(950.302734375 0.015625)" xlink:href="#BitstreamVeraSans-Roman-56"/>
      <use transform="translate(1018.7109375 0.015625)" xlink:href="#BitstreamVeraSans-Roman-34"/>
      <use transform="translate(1082.333984375 0.015625)" xlink:href="#BitstreamVeraSans-Roman-45"/>
      <use transform="translate(1145.517578125 0.015625)" xlink:href="#BitstreamVeraSans-Roman-42"/>
      <use transform="translate(1214.12109375 0.015625)" xlink:href="#BitstreamVeraSans-Roman-2c"/>
      <use transform="translate(1245.908203125 0.015625)" xlink:href="#BitstreamVeraSans-Roman-20"/>
      <use transform="translate(1277.6953125 0.015625)" xlink:href="#BitstreamVeraSans-Roman-4d"/>
      <use transform="translate(1363.974609375 0.015625)" xlink:href="#BitstreamVeraSans-Roman-49"/>
      <use transform="translate(1393.466796875 0.015625)" xlink:href="#BitstreamVeraSans-Roman-4e"/>
      <use transform="translate(1468.271484375 0.015625)" xlink:href="#BitstreamVeraSans-Roman-4b"/>
      <use transform="translate(1533.84765625 0.015625)" xlink:href="#BitstreamVeraSans-Roman-4e"/>
      <use transform="translate(1608.65234375 0.015625)" xlink:href="#BitstreamVeraSans-Roman-41"/>
      <use transform="translate(1677.060546875 0.015625)" xlink:href="#BitstreamVeraSans-Roman-50"/>
      <use transform="translate(1737.36328125 0.015625)" xlink:href="#BitstreamVeraSans-Roman-2c"/>
      <use transform="translate(1769.150390625 0.015625)" xlink:href="#BitstreamVeraSans-Roman-20"/>
      <use transform="translate(1800.9375 0.015625)" xlink:href="#BitstreamVeraSans-Roman-34"/>
      <use transform="translate(1864.560546875 0.015625)" xlink:href="#BitstreamVeraSans-Roman-58"/>
      <use transform="translate(1933.06640625 0.015625)" xlink:href="#BitstreamVeraSans-Roman-2c"/>
      <use transform="translate(1964.853515625 0.015625)" xlink:href="#BitstreamVeraSans-Roman-20"/>
      <use transform="translate(1996.640625 0.015625)" xlink:href="#BitstreamVeraSans-Roman-54"/>
      <use transform="translate(2057.724609375 0.015625)" xlink:href="#BitstreamVeraSans-Roman-41"/>
      <use transform="translate(2126.1328125 0.015625)" xlink:href="#BitstreamVeraSans-Roman-52"/>
      <use transform="translate(2195.615234375 0.015625)" xlink:href="#BitstreamVeraSans-Roman-47"/>
      <use transform="translate(2273.10546875 0.015625)" xlink:href="#BitstreamVeraSans-Roman-45"/>
      <use transform="translate(2336.2890625 0.015625)" xlink:href="#BitstreamVeraSans-Roman-54"/>
      <use transform="translate(2397.373046875 0.015625)" xlink:href="#BitstreamVeraSans-Roman-2c"/>
      <use transform="translate(2429.16015625 0.015625)" xlink:href="#BitstreamVeraSans-Roman-20"/>
      <use transform="translate(2460.947265625 0.015625)" xlink:href="#BitstreamVeraSans-Roman-52"/>
      <use transform="translate(2530.4296875 0.015625)" xlink:href="#BitstreamVeraSans-Roman-45"/>
      <use transform="translate(2593.61328125 0.015625)" xlink:href="#BitstreamVeraSans-Roman-56"/>
      <use transform="translate(2662.021484375 0.015625)" xlink:href="#BitstreamVeraSans-Roman-45"/>
      <use transform="translate(2725.205078125 0.015625)" xlink:href="#BitstreamVeraSans-Roman-52"/>
      <use transform="translate(2794.6875 0.015625)" xlink:href="#BitstreamVeraSans-Roman-53"/>
      <use transform="translate(2858.1640625 0.015625)" xlink:href="#BitstreamVeraSans-Roman-45"/>
      <use transform="translate(2921.34765625 0.015625)" xlink:href="#BitstreamVeraSans-Roman-2c"/>
      <use transform="translate(2953.134765625 0.015625)" xlink:href="#BitstreamVeraSans-Roman-20"/>
      <use transform="translate(2984.921875 0.015625)" xlink:href="#BitstreamVeraSans-Roman-33"/>
      <use transform="translate(3048.544921875 0.015625)" xlink:href="#BitstreamVeraSans-Roman-38"/>
      <use transform="translate(3112.16796875 0.015625)" xlink:href="#BitstreamVeraSans-Roman-4b"/>
      <use transform="translate(3177.744140625 0.015625)" xlink:href="#BitstreamVeraSans-Roman-20"/>
      <use transform="translate(3209.53125 0.015625)" xlink:href="#BitstreamVeraSans-Roman-69"/>
      <use transform="translate(3237.314453125 0.015625)" xlink:href="#BitstreamVeraSans-Roman-6e"/>
      <use transform="translate(3300.693359375 0.015625)" xlink:href="#BitstreamVeraSans-Roman-73"/>
      <use transform="translate(3352.79296875 0.015625)" xlink:href="#BitstreamVeraSans-Roman-74"/>
      <use transform="translate(3392.001953125 0.015625)" xlink:href="#BitstreamVeraSans-Roman-61"/>
      <use transform="translate(3453.28125 0.015625)" xlink:href="#BitstreamVeraSans-Roman-6e"/>
      <use transform="translate(3516.66015625 0.015625)" xlink:href="#BitstreamVeraSans-Roman-63"/>
      <use transform="translate(3571.640625 0.015625)" xlink:href="#BitstreamVeraSans-Roman-65"/>
      <use transform="translate(3633.1640625 0.015625)" xlink:href="#BitstreamVeraSans-Roman-73"/>
      <use transform="translate(3685.263671875 0.015625)" xlink:href="#BitstreamVeraSans-Roman-5d"/>
     </g>
    </g>
   </g>
   <g id="matplotlib.axis_4"/>
   <g id="legend_2">
    <g id="patch_22">
     <path d="M 637.366811 4016.19875 
L 653.366811 4016.19875 
L 653.366811 4010.59875 
L 637.366811 4010.59875 
z
" style="fill:#7f6e85;"/>
    </g>
    <g id="text_9">
     <!-- (100, 0)(38.2%   ±0.06) -->
     <g transform="translate(659.766811035 4016.19875)scale(0.08 -0.08)">
      <use xlink:href="#BitstreamVeraSans-Roman-28"/>
      <use x="39.013671875" xlink:href="#BitstreamVeraSans-Roman-31"/>
      <use x="102.63671875" xlink:href="#BitstreamVeraSans-Roman-30"/>
      <use x="166.259765625" xlink:href="#BitstreamVeraSans-Roman-30"/>
      <use x="229.8828125" xlink:href="#BitstreamVeraSans-Roman-2c"/>
      <use x="261.669921875" xlink:href="#BitstreamVeraSans-Roman-20"/>
      <use x="293.45703125" xlink:href="#BitstreamVeraSans-Roman-30"/>
      <use x="357.080078125" xlink:href="#BitstreamVeraSans-Roman-29"/>
      <use x="396.09375" xlink:href="#BitstreamVeraSans-Roman-28"/>
      <use x="435.107421875" xlink:href="#BitstreamVeraSans-Roman-33"/>
      <use x="498.73046875" xlink:href="#BitstreamVeraSans-Roman-38"/>
      <use x="562.353515625" xlink:href="#BitstreamVeraSans-Roman-2e"/>
      <use x="594.140625" xlink:href="#BitstreamVeraSans-Roman-32"/>
      <use x="657.763671875" xlink:href="#BitstreamVeraSans-Roman-25"/>
      <use x="752.783203125" xlink:href="#BitstreamVeraSans-Roman-20"/>
      <use x="784.5703125" xlink:href="#BitstreamVeraSans-Roman-20"/>
      <use x="816.357421875" xlink:href="#BitstreamVeraSans-Roman-20"/>
      <use x="848.14453125" xlink:href="#BitstreamVeraSans-Roman-b1"/>
      <use x="931.93359375" xlink:href="#BitstreamVeraSans-Roman-30"/>
      <use x="995.556640625" xlink:href="#BitstreamVeraSans-Roman-2e"/>
      <use x="1027.34375" xlink:href="#BitstreamVeraSans-Roman-30"/>
      <use x="1090.966796875" xlink:href="#BitstreamVeraSans-Roman-36"/>
      <use x="1154.58984375" xlink:href="#BitstreamVeraSans-Roman-29"/>
     </g>
    </g>
    <g id="patch_23">
     <path d="M 637.366811 4027.94125 
L 653.366811 4027.94125 
L 653.366811 4022.34125 
L 637.366811 4022.34125 
z
" style="fill:#4eae4b;"/>
    </g>
    <g id="text_10">
     <!-- (75, 25)(4.8%    ±0.02) -->
     <g transform="translate(659.766811035 4027.94125)scale(0.08 -0.08)">
      <use xlink:href="#BitstreamVeraSans-Roman-28"/>
      <use x="39.013671875" xlink:href="#BitstreamVeraSans-Roman-37"/>
      <use x="102.63671875" xlink:href="#BitstreamVeraSans-Roman-35"/>
      <use x="166.259765625" xlink:href="#BitstreamVeraSans-Roman-2c"/>
      <use x="198.046875" xlink:href="#BitstreamVeraSans-Roman-20"/>
      <use x="229.833984375" xlink:href="#BitstreamVeraSans-Roman-32"/>
      <use x="293.45703125" xlink:href="#BitstreamVeraSans-Roman-35"/>
      <use x="357.080078125" xlink:href="#BitstreamVeraSans-Roman-29"/>
      <use x="396.09375" xlink:href="#BitstreamVeraSans-Roman-28"/>
      <use x="435.107421875" xlink:href="#BitstreamVeraSans-Roman-34"/>
      <use x="498.73046875" xlink:href="#BitstreamVeraSans-Roman-2e"/>
      <use x="530.517578125" xlink:href="#BitstreamVeraSans-Roman-38"/>
      <use x="594.140625" xlink:href="#BitstreamVeraSans-Roman-25"/>
      <use x="689.16015625" xlink:href="#BitstreamVeraSans-Roman-20"/>
      <use x="720.947265625" xlink:href="#BitstreamVeraSans-Roman-20"/>
      <use x="752.734375" xlink:href="#BitstreamVeraSans-Roman-20"/>
      <use x="784.521484375" xlink:href="#BitstreamVeraSans-Roman-20"/>
      <use x="816.30859375" xlink:href="#BitstreamVeraSans-Roman-b1"/>
      <use x="900.09765625" xlink:href="#BitstreamVeraSans-Roman-30"/>
      <use x="963.720703125" xlink:href="#BitstreamVeraSans-Roman-2e"/>
      <use x="995.5078125" xlink:href="#BitstreamVeraSans-Roman-30"/>
      <use x="1059.130859375" xlink:href="#BitstreamVeraSans-Roman-32"/>
      <use x="1122.75390625" xlink:href="#BitstreamVeraSans-Roman-29"/>
     </g>
    </g>
    <g id="patch_24">
     <path d="M 637.366811 4039.68375 
L 653.366811 4039.68375 
L 653.366811 4034.08375 
L 637.366811 4034.08375 
z
" style="fill:#3e8e95;"/>
    </g>
    <g id="text_11">
     <!-- (50, 50)(25.3%   ±0.04) -->
     <g transform="translate(659.766811035 4039.68375)scale(0.08 -0.08)">
      <use xlink:href="#BitstreamVeraSans-Roman-28"/>
      <use x="39.013671875" xlink:href="#BitstreamVeraSans-Roman-35"/>
      <use x="102.63671875" xlink:href="#BitstreamVeraSans-Roman-30"/>
      <use x="166.259765625" xlink:href="#BitstreamVeraSans-Roman-2c"/>
      <use x="198.046875" xlink:href="#BitstreamVeraSans-Roman-20"/>
      <use x="229.833984375" xlink:href="#BitstreamVeraSans-Roman-35"/>
      <use x="293.45703125" xlink:href="#BitstreamVeraSans-Roman-30"/>
      <use x="357.080078125" xlink:href="#BitstreamVeraSans-Roman-29"/>
      <use x="396.09375" xlink:href="#BitstreamVeraSans-Roman-28"/>
      <use x="435.107421875" xlink:href="#BitstreamVeraSans-Roman-32"/>
      <use x="498.73046875" xlink:href="#BitstreamVeraSans-Roman-35"/>
      <use x="562.353515625" xlink:href="#BitstreamVeraSans-Roman-2e"/>
      <use x="594.140625" xlink:href="#BitstreamVeraSans-Roman-33"/>
      <use x="657.763671875" xlink:href="#BitstreamVeraSans-Roman-25"/>
      <use x="752.783203125" xlink:href="#BitstreamVeraSans-Roman-20"/>
      <use x="784.5703125" xlink:href="#BitstreamVeraSans-Roman-20"/>
      <use x="816.357421875" xlink:href="#BitstreamVeraSans-Roman-20"/>
      <use x="848.14453125" xlink:href="#BitstreamVeraSans-Roman-b1"/>
      <use x="931.93359375" xlink:href="#BitstreamVeraSans-Roman-30"/>
      <use x="995.556640625" xlink:href="#BitstreamVeraSans-Roman-2e"/>
      <use x="1027.34375" xlink:href="#BitstreamVeraSans-Roman-30"/>
      <use x="1090.966796875" xlink:href="#BitstreamVeraSans-Roman-34"/>
      <use x="1154.58984375" xlink:href="#BitstreamVeraSans-Roman-29"/>
     </g>
    </g>
    <g id="patch_25">
     <path d="M 637.366811 4051.42625 
L 653.366811 4051.42625 
L 653.366811 4045.82625 
L 637.366811 4045.82625 
z
" style="fill:#725c83;"/>
    </g>
    <g id="text_12">
     <!-- (25, 75)(7.5%    ±0.02) -->
     <g transform="translate(659.766811035 4051.42625)scale(0.08 -0.08)">
      <use xlink:href="#BitstreamVeraSans-Roman-28"/>
      <use x="39.013671875" xlink:href="#BitstreamVeraSans-Roman-32"/>
      <use x="102.63671875" xlink:href="#BitstreamVeraSans-Roman-35"/>
      <use x="166.259765625" xlink:href="#BitstreamVeraSans-Roman-2c"/>
      <use x="198.046875" xlink:href="#BitstreamVeraSans-Roman-20"/>
      <use x="229.833984375" xlink:href="#BitstreamVeraSans-Roman-37"/>
      <use x="293.45703125" xlink:href="#BitstreamVeraSans-Roman-35"/>
      <use x="357.080078125" xlink:href="#BitstreamVeraSans-Roman-29"/>
      <use x="396.09375" xlink:href="#BitstreamVeraSans-Roman-28"/>
      <use x="435.107421875" xlink:href="#BitstreamVeraSans-Roman-37"/>
      <use x="498.73046875" xlink:href="#BitstreamVeraSans-Roman-2e"/>
      <use x="530.517578125" xlink:href="#BitstreamVeraSans-Roman-35"/>
      <use x="594.140625" xlink:href="#BitstreamVeraSans-Roman-25"/>
      <use x="689.16015625" xlink:href="#BitstreamVeraSans-Roman-20"/>
      <use x="720.947265625" xlink:href="#BitstreamVeraSans-Roman-20"/>
      <use x="752.734375" xlink:href="#BitstreamVeraSans-Roman-20"/>
      <use x="784.521484375" xlink:href="#BitstreamVeraSans-Roman-20"/>
      <use x="816.30859375" xlink:href="#BitstreamVeraSans-Roman-b1"/>
      <use x="900.09765625" xlink:href="#BitstreamVeraSans-Roman-30"/>
      <use x="963.720703125" xlink:href="#BitstreamVeraSans-Roman-2e"/>
      <use x="995.5078125" xlink:href="#BitstreamVeraSans-Roman-30"/>
      <use x="1059.130859375" xlink:href="#BitstreamVeraSans-Roman-32"/>
      <use x="1122.75390625" xlink:href="#BitstreamVeraSans-Roman-29"/>
     </g>
    </g>
    <g id="patch_26">
     <path d="M 637.366811 4063.16875 
L 653.366811 4063.16875 
L 653.366811 4057.56875 
L 637.366811 4057.56875 
z
" style="fill:#e41a1c;"/>
    </g>
    <g id="text_13">
     <!-- (0, 100)(24.2%   ±0.01) -->
     <g transform="translate(659.766811035 4063.16875)scale(0.08 -0.08)">
      <use xlink:href="#BitstreamVeraSans-Roman-28"/>
      <use x="39.013671875" xlink:href="#BitstreamVeraSans-Roman-30"/>
      <use x="102.63671875" xlink:href="#BitstreamVeraSans-Roman-2c"/>
      <use x="134.423828125" xlink:href="#BitstreamVeraSans-Roman-20"/>
      <use x="166.2109375" xlink:href="#BitstreamVeraSans-Roman-31"/>
      <use x="229.833984375" xlink:href="#BitstreamVeraSans-Roman-30"/>
      <use x="293.45703125" xlink:href="#BitstreamVeraSans-Roman-30"/>
      <use x="357.080078125" xlink:href="#BitstreamVeraSans-Roman-29"/>
      <use x="396.09375" xlink:href="#BitstreamVeraSans-Roman-28"/>
      <use x="435.107421875" xlink:href="#BitstreamVeraSans-Roman-32"/>
      <use x="498.73046875" xlink:href="#BitstreamVeraSans-Roman-34"/>
      <use x="562.353515625" xlink:href="#BitstreamVeraSans-Roman-2e"/>
      <use x="594.140625" xlink:href="#BitstreamVeraSans-Roman-32"/>
      <use x="657.763671875" xlink:href="#BitstreamVeraSans-Roman-25"/>
      <use x="752.783203125" xlink:href="#BitstreamVeraSans-Roman-20"/>
      <use x="784.5703125" xlink:href="#BitstreamVeraSans-Roman-20"/>
      <use x="816.357421875" xlink:href="#BitstreamVeraSans-Roman-20"/>
      <use x="848.14453125" xlink:href="#BitstreamVeraSans-Roman-b1"/>
      <use x="931.93359375" xlink:href="#BitstreamVeraSans-Roman-30"/>
      <use x="995.556640625" xlink:href="#BitstreamVeraSans-Roman-2e"/>
      <use x="1027.34375" xlink:href="#BitstreamVeraSans-Roman-30"/>
      <use x="1090.966796875" xlink:href="#BitstreamVeraSans-Roman-31"/>
      <use x="1154.58984375" xlink:href="#BitstreamVeraSans-Roman-29"/>
     </g>
    </g>
    <g id="patch_27">
     <path d="M 637.366811 4074.91125 
L 653.366811 4074.91125 
L 653.366811 4069.31125 
L 637.366811 4069.31125 
z
"/>
    </g>
    <g id="text_14">
     <!-- (0, 0)  (0.0%    ±0.0) -->
     <g transform="translate(659.766811035 4074.91125)scale(0.08 -0.08)">
      <use xlink:href="#BitstreamVeraSans-Roman-28"/>
      <use x="39.013671875" xlink:href="#BitstreamVeraSans-Roman-30"/>
      <use x="102.63671875" xlink:href="#BitstreamVeraSans-Roman-2c"/>
      <use x="134.423828125" xlink:href="#BitstreamVeraSans-Roman-20"/>
      <use x="166.2109375" xlink:href="#BitstreamVeraSans-Roman-30"/>
      <use x="229.833984375" xlink:href="#BitstreamVeraSans-Roman-29"/>
      <use x="268.84765625" xlink:href="#BitstreamVeraSans-Roman-20"/>
      <use x="300.634765625" xlink:href="#BitstreamVeraSans-Roman-20"/>
      <use x="332.421875" xlink:href="#BitstreamVeraSans-Roman-28"/>
      <use x="371.435546875" xlink:href="#BitstreamVeraSans-Roman-30"/>
      <use x="435.05859375" xlink:href="#BitstreamVeraSans-Roman-2e"/>
      <use x="466.845703125" xlink:href="#BitstreamVeraSans-Roman-30"/>
      <use x="530.46875" xlink:href="#BitstreamVeraSans-Roman-25"/>
      <use x="625.48828125" xlink:href="#BitstreamVeraSans-Roman-20"/>
      <use x="657.275390625" xlink:href="#BitstreamVeraSans-Roman-20"/>
      <use x="689.0625" xlink:href="#BitstreamVeraSans-Roman-20"/>
      <use x="720.849609375" xlink:href="#BitstreamVeraSans-Roman-20"/>
      <use x="752.63671875" xlink:href="#BitstreamVeraSans-Roman-b1"/>
      <use x="836.42578125" xlink:href="#BitstreamVeraSans-Roman-30"/>
      <use x="900.048828125" xlink:href="#BitstreamVeraSans-Roman-2e"/>
      <use x="931.8359375" xlink:href="#BitstreamVeraSans-Roman-30"/>
      <use x="995.458984375" xlink:href="#BitstreamVeraSans-Roman-29"/>
     </g>
    </g>
   </g>
  </g>
  <g id="text_15">
   <!--  -->
   <g transform="translate(318.229790039 14.3971875)scale(0.18 -0.18)"/>
   <!-- The Good, The Bad, and The Ugly -->
   <defs>
    <path d="M 45.40625 46.390625 
L 45.40625 75.984375 
L 54.390625 75.984375 
L 54.390625 0 
L 45.40625 0 
L 45.40625 8.203125 
Q 42.578125 3.328125 38.25 0.953125 
Q 33.9375 -1.421875 27.875 -1.421875 
Q 17.96875 -1.421875 11.734375 6.484375 
Q 5.515625 14.40625 5.515625 27.296875 
Q 5.515625 40.1875 11.734375 48.09375 
Q 17.96875 56 27.875 56 
Q 33.9375 56 38.25 53.625 
Q 42.578125 51.265625 45.40625 46.390625 
M 14.796875 27.296875 
Q 14.796875 17.390625 18.875 11.75 
Q 22.953125 6.109375 30.078125 6.109375 
Q 37.203125 6.109375 41.296875 11.75 
Q 45.40625 17.390625 45.40625 27.296875 
Q 45.40625 37.203125 41.296875 42.84375 
Q 37.203125 48.484375 30.078125 48.484375 
Q 22.953125 48.484375 18.875 42.84375 
Q 14.796875 37.203125 14.796875 27.296875 
" id="BitstreamVeraSans-Roman-64"/>
    <path d="M 30.609375 48.390625 
Q 23.390625 48.390625 19.1875 42.75 
Q 14.984375 37.109375 14.984375 27.296875 
Q 14.984375 17.484375 19.15625 11.84375 
Q 23.34375 6.203125 30.609375 6.203125 
Q 37.796875 6.203125 41.984375 11.859375 
Q 46.1875 17.53125 46.1875 27.296875 
Q 46.1875 37.015625 41.984375 42.703125 
Q 37.796875 48.390625 30.609375 48.390625 
M 30.609375 56 
Q 42.328125 56 49.015625 48.375 
Q 55.71875 40.765625 55.71875 27.296875 
Q 55.71875 13.875 49.015625 6.21875 
Q 42.328125 -1.421875 30.609375 -1.421875 
Q 18.84375 -1.421875 12.171875 6.21875 
Q 5.515625 13.875 5.515625 27.296875 
Q 5.515625 40.765625 12.171875 48.375 
Q 18.84375 56 30.609375 56 
" id="BitstreamVeraSans-Roman-6f"/>
    <path d="M 54.890625 33.015625 
L 54.890625 0 
L 45.90625 0 
L 45.90625 32.71875 
Q 45.90625 40.484375 42.875 44.328125 
Q 39.84375 48.1875 33.796875 48.1875 
Q 26.515625 48.1875 22.3125 43.546875 
Q 18.109375 38.921875 18.109375 30.90625 
L 18.109375 0 
L 9.078125 0 
L 9.078125 75.984375 
L 18.109375 75.984375 
L 18.109375 46.1875 
Q 21.34375 51.125 25.703125 53.5625 
Q 30.078125 56 35.796875 56 
Q 45.21875 56 50.046875 50.171875 
Q 54.890625 44.34375 54.890625 33.015625 
" id="BitstreamVeraSans-Roman-68"/>
    <path d="M 9.421875 75.984375 
L 18.40625 75.984375 
L 18.40625 0 
L 9.421875 0 
z
" id="BitstreamVeraSans-Roman-6c"/>
    <path d="M 8.6875 72.90625 
L 18.609375 72.90625 
L 18.609375 28.609375 
Q 18.609375 16.890625 22.84375 11.734375 
Q 27.09375 6.59375 36.625 6.59375 
Q 46.09375 6.59375 50.34375 11.734375 
Q 54.59375 16.890625 54.59375 28.609375 
L 54.59375 72.90625 
L 64.5 72.90625 
L 64.5 27.390625 
Q 64.5 13.140625 57.4375 5.859375 
Q 50.390625 -1.421875 36.625 -1.421875 
Q 22.796875 -1.421875 15.734375 5.859375 
Q 8.6875 13.140625 8.6875 27.390625 
z
" id="BitstreamVeraSans-Roman-55"/>
   </defs>
   <g transform="translate(166.966508789 34.55325)scale(0.18 -0.18)">
    <use xlink:href="#BitstreamVeraSans-Roman-54"/>
    <use x="61.083984375" xlink:href="#BitstreamVeraSans-Roman-68"/>
    <use x="124.462890625" xlink:href="#BitstreamVeraSans-Roman-65"/>
    <use x="185.986328125" xlink:href="#BitstreamVeraSans-Roman-20"/>
    <use x="217.7734375" xlink:href="#BitstreamVeraSans-Roman-47"/>
    <use x="295.263671875" xlink:href="#BitstreamVeraSans-Roman-6f"/>
    <use x="356.4453125" xlink:href="#BitstreamVeraSans-Roman-6f"/>
    <use x="417.626953125" xlink:href="#BitstreamVeraSans-Roman-64"/>
    <use x="481.103515625" xlink:href="#BitstreamVeraSans-Roman-2c"/>
    <use x="512.890625" xlink:href="#BitstreamVeraSans-Roman-20"/>
    <use x="544.677734375" xlink:href="#BitstreamVeraSans-Roman-54"/>
    <use x="605.76171875" xlink:href="#BitstreamVeraSans-Roman-68"/>
    <use x="669.140625" xlink:href="#BitstreamVeraSans-Roman-65"/>
    <use x="730.6640625" xlink:href="#BitstreamVeraSans-Roman-20"/>
    <use x="762.451171875" xlink:href="#BitstreamVeraSans-Roman-42"/>
    <use x="831.0546875" xlink:href="#BitstreamVeraSans-Roman-61"/>
    <use x="892.333984375" xlink:href="#BitstreamVeraSans-Roman-64"/>
    <use x="955.810546875" xlink:href="#BitstreamVeraSans-Roman-2c"/>
    <use x="987.59765625" xlink:href="#BitstreamVeraSans-Roman-20"/>
    <use x="1019.384765625" xlink:href="#BitstreamVeraSans-Roman-61"/>
    <use x="1080.6640625" xlink:href="#BitstreamVeraSans-Roman-6e"/>
    <use x="1144.04296875" xlink:href="#BitstreamVeraSans-Roman-64"/>
    <use x="1207.51953125" xlink:href="#BitstreamVeraSans-Roman-20"/>
    <use x="1239.306640625" xlink:href="#BitstreamVeraSans-Roman-54"/>
    <use x="1300.390625" xlink:href="#BitstreamVeraSans-Roman-68"/>
    <use x="1363.76953125" xlink:href="#BitstreamVeraSans-Roman-65"/>
    <use x="1425.29296875" xlink:href="#BitstreamVeraSans-Roman-20"/>
    <use x="1457.080078125" xlink:href="#BitstreamVeraSans-Roman-55"/>
    <use x="1530.2734375" xlink:href="#BitstreamVeraSans-Roman-67"/>
    <use x="1593.75" xlink:href="#BitstreamVeraSans-Roman-6c"/>
    <use x="1621.533203125" xlink:href="#BitstreamVeraSans-Roman-79"/>
   </g>
  </g>
 </g>
 <defs>
  <clipPath id="pe23f681c98">
   <rect height="4269.46" width="311.029790039" x="354.24" y="877.68"/>
  </clipPath>
  <clipPath id="p3b8a261c2b">
   <rect height="4269.46" width="311.029790039" x="0.72" y="877.68"/>
  </clipPath>
 </defs>
</svg>
