<?xml version="1.0" encoding="utf-8" standalone="no"?>
<!DOCTYPE svg PUBLIC "-//W3C//DTD SVG 1.1//EN"
  "http://www.w3.org/Graphics/SVG/1.1/DTD/svg11.dtd">
<!-- Created with matplotlib (http://matplotlib.org/) -->
<svg height="499pt" version="1.1" viewBox="0 0 618 499" width="618pt" xmlns="http://www.w3.org/2000/svg" xmlns:xlink="http://www.w3.org/1999/xlink">
 <defs>
  <style type="text/css">
*{stroke-linecap:butt;stroke-linejoin:round;stroke-miterlimit:100000;}
  </style>
 </defs>
 <g id="figure_1">
  <g id="patch_1">
   <path d="M 0 499.189375 
L 618.836984 499.189375 
L 618.836984 -0 
L 0 -0 
z
" style="fill:#ffffff;"/>
  </g>
  <g id="axes_1">
   <g id="patch_2">
    <path d="M 23.014375 475.92 
L 273.449158 475.92 
L 273.449158 130.32 
L 23.014375 130.32 
z
" style="fill:#ffffff;"/>
   </g>
   <g id="patch_3">
    <path clip-path="url(#p15026d237b)" d="M 49.2504 475.92 
L 68.331145 475.92 
L 68.331145 301.690224 
L 49.2504 301.690224 
z
" style="fill:#228b22;"/>
   </g>
   <g id="patch_4">
    <path clip-path="url(#p15026d237b)" d="M 70.451228 475.92 
L 89.531973 475.92 
L 89.531973 423.599411 
L 70.451228 423.599411 
z
" style="fill:#228b22;"/>
   </g>
   <g id="patch_5">
    <path clip-path="url(#p15026d237b)" d="M 91.652056 475.92 
L 110.732802 475.92 
L 110.732802 418.636703 
L 91.652056 418.636703 
z
" style="fill:#228b22;"/>
   </g>
   <g id="patch_6">
    <path clip-path="url(#p15026d237b)" d="M 112.852884 475.92 
L 131.93363 475.92 
L 131.93363 443.819215 
L 112.852884 443.819215 
z
" style="fill:#228b22;"/>
   </g>
   <g id="patch_7">
    <path clip-path="url(#p15026d237b)" d="M 134.053712 475.92 
L 153.134458 475.92 
L 153.134458 460.958083 
L 134.053712 460.958083 
z
" style="fill:#228b22;"/>
   </g>
   <g id="patch_8">
    <path clip-path="url(#p15026d237b)" d="M 155.254541 475.92 
L 174.335286 475.92 
L 174.335286 464.813866 
L 155.254541 464.813866 
z
" style="fill:#228b22;"/>
   </g>
   <g id="patch_9">
    <path clip-path="url(#p15026d237b)" d="M 176.455369 475.92 
L 195.536114 475.92 
L 195.536114 472.746819 
L 176.455369 472.746819 
z
" style="fill:#228b22;"/>
   </g>
   <g id="patch_10">
    <path clip-path="url(#p15026d237b)" d="M 197.656197 475.92 
L 216.736942 475.92 
L 216.736942 475.551025 
L 197.656197 475.551025 
z
" style="fill:#228b22;"/>
   </g>
   <g id="patch_11">
    <path clip-path="url(#p15026d237b)" d="M 218.857025 475.92 
L 237.93777 475.92 
L 237.93777 475.883103 
L 218.857025 475.883103 
z
" style="fill:#228b22;"/>
   </g>
   <g id="patch_12">
    <path clip-path="url(#p15026d237b)" d="M 240.057853 475.92 
L 259.138599 475.92 
L 259.138599 475.901551 
L 240.057853 475.901551 
z
" style="fill:#228b22;"/>
   </g>
   <g id="patch_13">
    <path d="M 23.014375 475.92 
L 23.014375 130.32 
" style="fill:none;stroke:#000000;stroke-linecap:square;stroke-linejoin:miter;"/>
   </g>
   <g id="patch_14">
    <path d="M 23.014375 475.92 
L 273.449158 475.92 
" style="fill:none;stroke:#000000;stroke-linecap:square;stroke-linejoin:miter;"/>
   </g>
   <g id="matplotlib.axis_1">
    <g id="xtick_1">
     <g id="line2d_1">
      <path clip-path="url(#p15026d237b)" d="M 23.014375 475.92 
L 23.014375 130.32 
" style="fill:none;opacity:0.1;stroke:#ffffff;stroke-dasharray:1.000000,3.000000;stroke-dashoffset:0.0;stroke-width:0.5;"/>
     </g>
     <g id="line2d_2">
      <defs>
       <path d="M 0 0 
L 0 -4 
" id="ma146a432b9" style="stroke:#000000;stroke-width:0.5;"/>
      </defs>
      <g>
       <use style="stroke:#000000;stroke-width:0.5;" x="23.014375" xlink:href="#ma146a432b9" y="475.92"/>
      </g>
     </g>
     <g id="text_1">
      <!-- −5 -->
      <defs>
       <path d="M 10.796875 72.90625 
L 49.515625 72.90625 
L 49.515625 64.59375 
L 19.828125 64.59375 
L 19.828125 46.734375 
Q 21.96875 47.46875 24.109375 47.828125 
Q 26.265625 48.1875 28.421875 48.1875 
Q 40.625 48.1875 47.75 41.5 
Q 54.890625 34.8125 54.890625 23.390625 
Q 54.890625 11.625 47.5625 5.09375 
Q 40.234375 -1.421875 26.90625 -1.421875 
Q 22.3125 -1.421875 17.546875 -0.640625 
Q 12.796875 0.140625 7.71875 1.703125 
L 7.71875 11.625 
Q 12.109375 9.234375 16.796875 8.0625 
Q 21.484375 6.890625 26.703125 6.890625 
Q 35.15625 6.890625 40.078125 11.328125 
Q 45.015625 15.765625 45.015625 23.390625 
Q 45.015625 31 40.078125 35.4375 
Q 35.15625 39.890625 26.703125 39.890625 
Q 22.75 39.890625 18.8125 39.015625 
Q 14.890625 38.140625 10.796875 36.28125 
z
" id="BitstreamVeraSans-Roman-35"/>
       <path d="M 10.59375 35.5 
L 73.1875 35.5 
L 73.1875 27.203125 
L 10.59375 27.203125 
z
" id="BitstreamVeraSans-Roman-2212"/>
      </defs>
      <g transform="translate(18.59171875 484.4790625)scale(0.06 -0.06)">
       <use xlink:href="#BitstreamVeraSans-Roman-2212"/>
       <use x="83.7890625" xlink:href="#BitstreamVeraSans-Roman-35"/>
      </g>
     </g>
    </g>
    <g id="xtick_2">
     <g id="line2d_3">
      <path clip-path="url(#p15026d237b)" d="M 58.790773 475.92 
L 58.790773 130.32 
" style="fill:none;opacity:0.1;stroke:#ffffff;stroke-dasharray:1.000000,3.000000;stroke-dashoffset:0.0;stroke-width:0.5;"/>
     </g>
     <g id="line2d_4">
      <g>
       <use style="stroke:#000000;stroke-width:0.5;" x="58.7907725155" xlink:href="#ma146a432b9" y="475.92"/>
      </g>
     </g>
     <g id="text_2">
      <!-- 0 -->
      <defs>
       <path d="M 31.78125 66.40625 
Q 24.171875 66.40625 20.328125 58.90625 
Q 16.5 51.421875 16.5 36.375 
Q 16.5 21.390625 20.328125 13.890625 
Q 24.171875 6.390625 31.78125 6.390625 
Q 39.453125 6.390625 43.28125 13.890625 
Q 47.125 21.390625 47.125 36.375 
Q 47.125 51.421875 43.28125 58.90625 
Q 39.453125 66.40625 31.78125 66.40625 
M 31.78125 74.21875 
Q 44.046875 74.21875 50.515625 64.515625 
Q 56.984375 54.828125 56.984375 36.375 
Q 56.984375 17.96875 50.515625 8.265625 
Q 44.046875 -1.421875 31.78125 -1.421875 
Q 19.53125 -1.421875 13.0625 8.265625 
Q 6.59375 17.96875 6.59375 36.375 
Q 6.59375 54.828125 13.0625 64.515625 
Q 19.53125 74.21875 31.78125 74.21875 
" id="BitstreamVeraSans-Roman-30"/>
      </defs>
      <g transform="translate(56.8820225155 484.4790625)scale(0.06 -0.06)">
       <use xlink:href="#BitstreamVeraSans-Roman-30"/>
      </g>
     </g>
    </g>
    <g id="xtick_3">
     <g id="line2d_5">
      <path clip-path="url(#p15026d237b)" d="M 94.56717 475.92 
L 94.56717 130.32 
" style="fill:none;opacity:0.1;stroke:#ffffff;stroke-dasharray:1.000000,3.000000;stroke-dashoffset:0.0;stroke-width:0.5;"/>
     </g>
     <g id="line2d_6">
      <g>
       <use style="stroke:#000000;stroke-width:0.5;" x="94.5671700311" xlink:href="#ma146a432b9" y="475.92"/>
      </g>
     </g>
     <g id="text_3">
      <!-- 5 -->
      <g transform="translate(92.6584200311 484.4790625)scale(0.06 -0.06)">
       <use xlink:href="#BitstreamVeraSans-Roman-35"/>
      </g>
     </g>
    </g>
    <g id="xtick_4">
     <g id="line2d_7">
      <path clip-path="url(#p15026d237b)" d="M 130.343568 475.92 
L 130.343568 130.32 
" style="fill:none;opacity:0.1;stroke:#ffffff;stroke-dasharray:1.000000,3.000000;stroke-dashoffset:0.0;stroke-width:0.5;"/>
     </g>
     <g id="line2d_8">
      <g>
       <use style="stroke:#000000;stroke-width:0.5;" x="130.343567547" xlink:href="#ma146a432b9" y="475.92"/>
      </g>
     </g>
     <g id="text_4">
      <!-- 10 -->
      <defs>
       <path d="M 12.40625 8.296875 
L 28.515625 8.296875 
L 28.515625 63.921875 
L 10.984375 60.40625 
L 10.984375 69.390625 
L 28.421875 72.90625 
L 38.28125 72.90625 
L 38.28125 8.296875 
L 54.390625 8.296875 
L 54.390625 0 
L 12.40625 0 
z
" id="BitstreamVeraSans-Roman-31"/>
      </defs>
      <g transform="translate(126.526067547 484.4790625)scale(0.06 -0.06)">
       <use xlink:href="#BitstreamVeraSans-Roman-31"/>
       <use x="63.623046875" xlink:href="#BitstreamVeraSans-Roman-30"/>
      </g>
     </g>
    </g>
    <g id="xtick_5">
     <g id="line2d_9">
      <path clip-path="url(#p15026d237b)" d="M 166.119965 475.92 
L 166.119965 130.32 
" style="fill:none;opacity:0.1;stroke:#ffffff;stroke-dasharray:1.000000,3.000000;stroke-dashoffset:0.0;stroke-width:0.5;"/>
     </g>
     <g id="line2d_10">
      <g>
       <use style="stroke:#000000;stroke-width:0.5;" x="166.119965062" xlink:href="#ma146a432b9" y="475.92"/>
      </g>
     </g>
     <g id="text_5">
      <!-- 15 -->
      <g transform="translate(162.302465062 484.4790625)scale(0.06 -0.06)">
       <use xlink:href="#BitstreamVeraSans-Roman-31"/>
       <use x="63.623046875" xlink:href="#BitstreamVeraSans-Roman-35"/>
      </g>
     </g>
    </g>
    <g id="xtick_6">
     <g id="line2d_11">
      <path clip-path="url(#p15026d237b)" d="M 201.896363 475.92 
L 201.896363 130.32 
" style="fill:none;opacity:0.1;stroke:#ffffff;stroke-dasharray:1.000000,3.000000;stroke-dashoffset:0.0;stroke-width:0.5;"/>
     </g>
     <g id="line2d_12">
      <g>
       <use style="stroke:#000000;stroke-width:0.5;" x="201.896362578" xlink:href="#ma146a432b9" y="475.92"/>
      </g>
     </g>
     <g id="text_6">
      <!-- 20 -->
      <defs>
       <path d="M 19.1875 8.296875 
L 53.609375 8.296875 
L 53.609375 0 
L 7.328125 0 
L 7.328125 8.296875 
Q 12.9375 14.109375 22.625 23.890625 
Q 32.328125 33.6875 34.8125 36.53125 
Q 39.546875 41.84375 41.421875 45.53125 
Q 43.3125 49.21875 43.3125 52.78125 
Q 43.3125 58.59375 39.234375 62.25 
Q 35.15625 65.921875 28.609375 65.921875 
Q 23.96875 65.921875 18.8125 64.3125 
Q 13.671875 62.703125 7.8125 59.421875 
L 7.8125 69.390625 
Q 13.765625 71.78125 18.9375 73 
Q 24.125 74.21875 28.421875 74.21875 
Q 39.75 74.21875 46.484375 68.546875 
Q 53.21875 62.890625 53.21875 53.421875 
Q 53.21875 48.921875 51.53125 44.890625 
Q 49.859375 40.875 45.40625 35.40625 
Q 44.1875 33.984375 37.640625 27.21875 
Q 31.109375 20.453125 19.1875 8.296875 
" id="BitstreamVeraSans-Roman-32"/>
      </defs>
      <g transform="translate(198.078862578 484.4790625)scale(0.06 -0.06)">
       <use xlink:href="#BitstreamVeraSans-Roman-32"/>
       <use x="63.623046875" xlink:href="#BitstreamVeraSans-Roman-30"/>
      </g>
     </g>
    </g>
    <g id="xtick_7">
     <g id="line2d_13">
      <path clip-path="url(#p15026d237b)" d="M 237.67276 475.92 
L 237.67276 130.32 
" style="fill:none;opacity:0.1;stroke:#ffffff;stroke-dasharray:1.000000,3.000000;stroke-dashoffset:0.0;stroke-width:0.5;"/>
     </g>
     <g id="line2d_14">
      <g>
       <use style="stroke:#000000;stroke-width:0.5;" x="237.672760093" xlink:href="#ma146a432b9" y="475.92"/>
      </g>
     </g>
     <g id="text_7">
      <!-- 25 -->
      <g transform="translate(233.855260093 484.4790625)scale(0.06 -0.06)">
       <use xlink:href="#BitstreamVeraSans-Roman-32"/>
       <use x="63.623046875" xlink:href="#BitstreamVeraSans-Roman-35"/>
      </g>
     </g>
    </g>
    <g id="xtick_8">
     <g id="line2d_15">
      <path clip-path="url(#p15026d237b)" d="M 273.449158 475.92 
L 273.449158 130.32 
" style="fill:none;opacity:0.1;stroke:#ffffff;stroke-dasharray:1.000000,3.000000;stroke-dashoffset:0.0;stroke-width:0.5;"/>
     </g>
     <g id="line2d_16">
      <g>
       <use style="stroke:#000000;stroke-width:0.5;" x="273.449157609" xlink:href="#ma146a432b9" y="475.92"/>
      </g>
     </g>
     <g id="text_8">
      <!-- 30 -->
      <defs>
       <path d="M 40.578125 39.3125 
Q 47.65625 37.796875 51.625 33 
Q 55.609375 28.21875 55.609375 21.1875 
Q 55.609375 10.40625 48.1875 4.484375 
Q 40.765625 -1.421875 27.09375 -1.421875 
Q 22.515625 -1.421875 17.65625 -0.515625 
Q 12.796875 0.390625 7.625 2.203125 
L 7.625 11.71875 
Q 11.71875 9.328125 16.59375 8.109375 
Q 21.484375 6.890625 26.8125 6.890625 
Q 36.078125 6.890625 40.9375 10.546875 
Q 45.796875 14.203125 45.796875 21.1875 
Q 45.796875 27.640625 41.28125 31.265625 
Q 36.765625 34.90625 28.71875 34.90625 
L 20.21875 34.90625 
L 20.21875 43.015625 
L 29.109375 43.015625 
Q 36.375 43.015625 40.234375 45.921875 
Q 44.09375 48.828125 44.09375 54.296875 
Q 44.09375 59.90625 40.109375 62.90625 
Q 36.140625 65.921875 28.71875 65.921875 
Q 24.65625 65.921875 20.015625 65.03125 
Q 15.375 64.15625 9.8125 62.3125 
L 9.8125 71.09375 
Q 15.4375 72.65625 20.34375 73.4375 
Q 25.25 74.21875 29.59375 74.21875 
Q 40.828125 74.21875 47.359375 69.109375 
Q 53.90625 64.015625 53.90625 55.328125 
Q 53.90625 49.265625 50.4375 45.09375 
Q 46.96875 40.921875 40.578125 39.3125 
" id="BitstreamVeraSans-Roman-33"/>
      </defs>
      <g transform="translate(269.631657609 484.4790625)scale(0.06 -0.06)">
       <use xlink:href="#BitstreamVeraSans-Roman-33"/>
       <use x="63.623046875" xlink:href="#BitstreamVeraSans-Roman-30"/>
      </g>
     </g>
    </g>
    <g id="text_9">
     <!-- core size -->
     <defs>
      <path d="M 56.203125 29.59375 
L 56.203125 25.203125 
L 14.890625 25.203125 
Q 15.484375 15.921875 20.484375 11.0625 
Q 25.484375 6.203125 34.421875 6.203125 
Q 39.59375 6.203125 44.453125 7.46875 
Q 49.3125 8.734375 54.109375 11.28125 
L 54.109375 2.78125 
Q 49.265625 0.734375 44.1875 -0.34375 
Q 39.109375 -1.421875 33.890625 -1.421875 
Q 20.796875 -1.421875 13.15625 6.1875 
Q 5.515625 13.8125 5.515625 26.8125 
Q 5.515625 40.234375 12.765625 48.109375 
Q 20.015625 56 32.328125 56 
Q 43.359375 56 49.78125 48.890625 
Q 56.203125 41.796875 56.203125 29.59375 
M 47.21875 32.234375 
Q 47.125 39.59375 43.09375 43.984375 
Q 39.0625 48.390625 32.421875 48.390625 
Q 24.90625 48.390625 20.390625 44.140625 
Q 15.875 39.890625 15.1875 32.171875 
z
" id="BitstreamVeraSans-Roman-65"/>
      <path d="M 5.515625 54.6875 
L 48.1875 54.6875 
L 48.1875 46.484375 
L 14.40625 7.171875 
L 48.1875 7.171875 
L 48.1875 0 
L 4.296875 0 
L 4.296875 8.203125 
L 38.09375 47.515625 
L 5.515625 47.515625 
z
" id="BitstreamVeraSans-Roman-7a"/>
      <path d="M 44.28125 53.078125 
L 44.28125 44.578125 
Q 40.484375 46.53125 36.375 47.5 
Q 32.28125 48.484375 27.875 48.484375 
Q 21.1875 48.484375 17.84375 46.4375 
Q 14.5 44.390625 14.5 40.28125 
Q 14.5 37.15625 16.890625 35.375 
Q 19.28125 33.59375 26.515625 31.984375 
L 29.59375 31.296875 
Q 39.15625 29.25 43.1875 25.515625 
Q 47.21875 21.78125 47.21875 15.09375 
Q 47.21875 7.46875 41.1875 3.015625 
Q 35.15625 -1.421875 24.609375 -1.421875 
Q 20.21875 -1.421875 15.453125 -0.5625 
Q 10.6875 0.296875 5.421875 2 
L 5.421875 11.28125 
Q 10.40625 8.6875 15.234375 7.390625 
Q 20.0625 6.109375 24.8125 6.109375 
Q 31.15625 6.109375 34.5625 8.28125 
Q 37.984375 10.453125 37.984375 14.40625 
Q 37.984375 18.0625 35.515625 20.015625 
Q 33.0625 21.96875 24.703125 23.78125 
L 21.578125 24.515625 
Q 13.234375 26.265625 9.515625 29.90625 
Q 5.8125 33.546875 5.8125 39.890625 
Q 5.8125 47.609375 11.28125 51.796875 
Q 16.75 56 26.8125 56 
Q 31.78125 56 36.171875 55.265625 
Q 40.578125 54.546875 44.28125 53.078125 
" id="BitstreamVeraSans-Roman-73"/>
      <path d="M 30.609375 48.390625 
Q 23.390625 48.390625 19.1875 42.75 
Q 14.984375 37.109375 14.984375 27.296875 
Q 14.984375 17.484375 19.15625 11.84375 
Q 23.34375 6.203125 30.609375 6.203125 
Q 37.796875 6.203125 41.984375 11.859375 
Q 46.1875 17.53125 46.1875 27.296875 
Q 46.1875 37.015625 41.984375 42.703125 
Q 37.796875 48.390625 30.609375 48.390625 
M 30.609375 56 
Q 42.328125 56 49.015625 48.375 
Q 55.71875 40.765625 55.71875 27.296875 
Q 55.71875 13.875 49.015625 6.21875 
Q 42.328125 -1.421875 30.609375 -1.421875 
Q 18.84375 -1.421875 12.171875 6.21875 
Q 5.515625 13.875 5.515625 27.296875 
Q 5.515625 40.765625 12.171875 48.375 
Q 18.84375 56 30.609375 56 
" id="BitstreamVeraSans-Roman-6f"/>
      <path id="BitstreamVeraSans-Roman-20"/>
      <path d="M 48.78125 52.59375 
L 48.78125 44.1875 
Q 44.96875 46.296875 41.140625 47.34375 
Q 37.3125 48.390625 33.40625 48.390625 
Q 24.65625 48.390625 19.8125 42.84375 
Q 14.984375 37.3125 14.984375 27.296875 
Q 14.984375 17.28125 19.8125 11.734375 
Q 24.65625 6.203125 33.40625 6.203125 
Q 37.3125 6.203125 41.140625 7.25 
Q 44.96875 8.296875 48.78125 10.40625 
L 48.78125 2.09375 
Q 45.015625 0.34375 40.984375 -0.53125 
Q 36.96875 -1.421875 32.421875 -1.421875 
Q 20.0625 -1.421875 12.78125 6.34375 
Q 5.515625 14.109375 5.515625 27.296875 
Q 5.515625 40.671875 12.859375 48.328125 
Q 20.21875 56 33.015625 56 
Q 37.15625 56 41.109375 55.140625 
Q 45.0625 54.296875 48.78125 52.59375 
" id="BitstreamVeraSans-Roman-63"/>
      <path d="M 9.421875 54.6875 
L 18.40625 54.6875 
L 18.40625 0 
L 9.421875 0 
z
M 9.421875 75.984375 
L 18.40625 75.984375 
L 18.40625 64.59375 
L 9.421875 64.59375 
z
" id="BitstreamVeraSans-Roman-69"/>
      <path d="M 41.109375 46.296875 
Q 39.59375 47.171875 37.8125 47.578125 
Q 36.03125 48 33.890625 48 
Q 26.265625 48 22.1875 43.046875 
Q 18.109375 38.09375 18.109375 28.8125 
L 18.109375 0 
L 9.078125 0 
L 9.078125 54.6875 
L 18.109375 54.6875 
L 18.109375 46.1875 
Q 20.953125 51.171875 25.484375 53.578125 
Q 30.03125 56 36.53125 56 
Q 37.453125 56 38.578125 55.875 
Q 39.703125 55.765625 41.0625 55.515625 
z
" id="BitstreamVeraSans-Roman-72"/>
     </defs>
     <g transform="translate(130.453641304 496.805625)scale(0.08 -0.08)">
      <use xlink:href="#BitstreamVeraSans-Roman-63"/>
      <use x="54.98046875" xlink:href="#BitstreamVeraSans-Roman-6f"/>
      <use x="116.162109375" xlink:href="#BitstreamVeraSans-Roman-72"/>
      <use x="157.244140625" xlink:href="#BitstreamVeraSans-Roman-65"/>
      <use x="218.767578125" xlink:href="#BitstreamVeraSans-Roman-20"/>
      <use x="250.5546875" xlink:href="#BitstreamVeraSans-Roman-73"/>
      <use x="302.654296875" xlink:href="#BitstreamVeraSans-Roman-69"/>
      <use x="330.4375" xlink:href="#BitstreamVeraSans-Roman-7a"/>
      <use x="382.927734375" xlink:href="#BitstreamVeraSans-Roman-65"/>
     </g>
    </g>
   </g>
   <g id="matplotlib.axis_2">
    <g id="ytick_1">
     <g id="line2d_17">
      <path clip-path="url(#p15026d237b)" d="M 23.014375 475.92 
L 273.449158 475.92 
" style="fill:none;opacity:0.1;stroke:#ffffff;stroke-dasharray:1.000000,3.000000;stroke-dashoffset:0.0;stroke-width:0.5;"/>
     </g>
     <g id="line2d_18">
      <defs>
       <path d="M 0 0 
L 4 0 
" id="mb5b8908065" style="stroke:#000000;stroke-width:0.5;"/>
      </defs>
      <g>
       <use style="stroke:#000000;stroke-width:0.5;" x="23.014375" xlink:href="#mb5b8908065" y="475.92"/>
      </g>
     </g>
     <g id="text_10">
      <!-- 0.0 -->
      <defs>
       <path d="M 10.6875 12.40625 
L 21 12.40625 
L 21 0 
L 10.6875 0 
z
" id="BitstreamVeraSans-Roman-2e"/>
      </defs>
      <g transform="translate(13.4625 477.575625)scale(0.06 -0.06)">
       <use xlink:href="#BitstreamVeraSans-Roman-30"/>
       <use x="63.623046875" xlink:href="#BitstreamVeraSans-Roman-2e"/>
       <use x="95.41015625" xlink:href="#BitstreamVeraSans-Roman-30"/>
      </g>
     </g>
    </g>
    <g id="ytick_2">
     <g id="line2d_19">
      <path clip-path="url(#p15026d237b)" d="M 23.014375 406.8 
L 273.449158 406.8 
" style="fill:none;opacity:0.1;stroke:#ffffff;stroke-dasharray:1.000000,3.000000;stroke-dashoffset:0.0;stroke-width:0.5;"/>
     </g>
     <g id="line2d_20">
      <g>
       <use style="stroke:#000000;stroke-width:0.5;" x="23.014375" xlink:href="#mb5b8908065" y="406.8"/>
      </g>
     </g>
     <g id="text_11">
      <!-- 0.2 -->
      <g transform="translate(13.4625 408.455625)scale(0.06 -0.06)">
       <use xlink:href="#BitstreamVeraSans-Roman-30"/>
       <use x="63.623046875" xlink:href="#BitstreamVeraSans-Roman-2e"/>
       <use x="95.41015625" xlink:href="#BitstreamVeraSans-Roman-32"/>
      </g>
     </g>
    </g>
    <g id="ytick_3">
     <g id="line2d_21">
      <path clip-path="url(#p15026d237b)" d="M 23.014375 337.68 
L 273.449158 337.68 
" style="fill:none;opacity:0.1;stroke:#ffffff;stroke-dasharray:1.000000,3.000000;stroke-dashoffset:0.0;stroke-width:0.5;"/>
     </g>
     <g id="line2d_22">
      <g>
       <use style="stroke:#000000;stroke-width:0.5;" x="23.014375" xlink:href="#mb5b8908065" y="337.68"/>
      </g>
     </g>
     <g id="text_12">
      <!-- 0.4 -->
      <defs>
       <path d="M 37.796875 64.3125 
L 12.890625 25.390625 
L 37.796875 25.390625 
z
M 35.203125 72.90625 
L 47.609375 72.90625 
L 47.609375 25.390625 
L 58.015625 25.390625 
L 58.015625 17.1875 
L 47.609375 17.1875 
L 47.609375 0 
L 37.796875 0 
L 37.796875 17.1875 
L 4.890625 17.1875 
L 4.890625 26.703125 
z
" id="BitstreamVeraSans-Roman-34"/>
      </defs>
      <g transform="translate(13.4625 339.335625)scale(0.06 -0.06)">
       <use xlink:href="#BitstreamVeraSans-Roman-30"/>
       <use x="63.623046875" xlink:href="#BitstreamVeraSans-Roman-2e"/>
       <use x="95.41015625" xlink:href="#BitstreamVeraSans-Roman-34"/>
      </g>
     </g>
    </g>
    <g id="ytick_4">
     <g id="line2d_23">
      <path clip-path="url(#p15026d237b)" d="M 23.014375 268.56 
L 273.449158 268.56 
" style="fill:none;opacity:0.1;stroke:#ffffff;stroke-dasharray:1.000000,3.000000;stroke-dashoffset:0.0;stroke-width:0.5;"/>
     </g>
     <g id="line2d_24">
      <g>
       <use style="stroke:#000000;stroke-width:0.5;" x="23.014375" xlink:href="#mb5b8908065" y="268.56"/>
      </g>
     </g>
     <g id="text_13">
      <!-- 0.6 -->
      <defs>
       <path d="M 33.015625 40.375 
Q 26.375 40.375 22.484375 35.828125 
Q 18.609375 31.296875 18.609375 23.390625 
Q 18.609375 15.53125 22.484375 10.953125 
Q 26.375 6.390625 33.015625 6.390625 
Q 39.65625 6.390625 43.53125 10.953125 
Q 47.40625 15.53125 47.40625 23.390625 
Q 47.40625 31.296875 43.53125 35.828125 
Q 39.65625 40.375 33.015625 40.375 
M 52.59375 71.296875 
L 52.59375 62.3125 
Q 48.875 64.0625 45.09375 64.984375 
Q 41.3125 65.921875 37.59375 65.921875 
Q 27.828125 65.921875 22.671875 59.328125 
Q 17.53125 52.734375 16.796875 39.40625 
Q 19.671875 43.65625 24.015625 45.921875 
Q 28.375 48.1875 33.59375 48.1875 
Q 44.578125 48.1875 50.953125 41.515625 
Q 57.328125 34.859375 57.328125 23.390625 
Q 57.328125 12.15625 50.6875 5.359375 
Q 44.046875 -1.421875 33.015625 -1.421875 
Q 20.359375 -1.421875 13.671875 8.265625 
Q 6.984375 17.96875 6.984375 36.375 
Q 6.984375 53.65625 15.1875 63.9375 
Q 23.390625 74.21875 37.203125 74.21875 
Q 40.921875 74.21875 44.703125 73.484375 
Q 48.484375 72.75 52.59375 71.296875 
" id="BitstreamVeraSans-Roman-36"/>
      </defs>
      <g transform="translate(13.4625 270.215625)scale(0.06 -0.06)">
       <use xlink:href="#BitstreamVeraSans-Roman-30"/>
       <use x="63.623046875" xlink:href="#BitstreamVeraSans-Roman-2e"/>
       <use x="95.41015625" xlink:href="#BitstreamVeraSans-Roman-36"/>
      </g>
     </g>
    </g>
    <g id="ytick_5">
     <g id="line2d_25">
      <path clip-path="url(#p15026d237b)" d="M 23.014375 199.44 
L 273.449158 199.44 
" style="fill:none;opacity:0.1;stroke:#ffffff;stroke-dasharray:1.000000,3.000000;stroke-dashoffset:0.0;stroke-width:0.5;"/>
     </g>
     <g id="line2d_26">
      <g>
       <use style="stroke:#000000;stroke-width:0.5;" x="23.014375" xlink:href="#mb5b8908065" y="199.44"/>
      </g>
     </g>
     <g id="text_14">
      <!-- 0.8 -->
      <defs>
       <path d="M 31.78125 34.625 
Q 24.75 34.625 20.71875 30.859375 
Q 16.703125 27.09375 16.703125 20.515625 
Q 16.703125 13.921875 20.71875 10.15625 
Q 24.75 6.390625 31.78125 6.390625 
Q 38.8125 6.390625 42.859375 10.171875 
Q 46.921875 13.96875 46.921875 20.515625 
Q 46.921875 27.09375 42.890625 30.859375 
Q 38.875 34.625 31.78125 34.625 
M 21.921875 38.8125 
Q 15.578125 40.375 12.03125 44.71875 
Q 8.5 49.078125 8.5 55.328125 
Q 8.5 64.0625 14.71875 69.140625 
Q 20.953125 74.21875 31.78125 74.21875 
Q 42.671875 74.21875 48.875 69.140625 
Q 55.078125 64.0625 55.078125 55.328125 
Q 55.078125 49.078125 51.53125 44.71875 
Q 48 40.375 41.703125 38.8125 
Q 48.828125 37.15625 52.796875 32.3125 
Q 56.78125 27.484375 56.78125 20.515625 
Q 56.78125 9.90625 50.3125 4.234375 
Q 43.84375 -1.421875 31.78125 -1.421875 
Q 19.734375 -1.421875 13.25 4.234375 
Q 6.78125 9.90625 6.78125 20.515625 
Q 6.78125 27.484375 10.78125 32.3125 
Q 14.796875 37.15625 21.921875 38.8125 
M 18.3125 54.390625 
Q 18.3125 48.734375 21.84375 45.5625 
Q 25.390625 42.390625 31.78125 42.390625 
Q 38.140625 42.390625 41.71875 45.5625 
Q 45.3125 48.734375 45.3125 54.390625 
Q 45.3125 60.0625 41.71875 63.234375 
Q 38.140625 66.40625 31.78125 66.40625 
Q 25.390625 66.40625 21.84375 63.234375 
Q 18.3125 60.0625 18.3125 54.390625 
" id="BitstreamVeraSans-Roman-38"/>
      </defs>
      <g transform="translate(13.4625 201.095625)scale(0.06 -0.06)">
       <use xlink:href="#BitstreamVeraSans-Roman-30"/>
       <use x="63.623046875" xlink:href="#BitstreamVeraSans-Roman-2e"/>
       <use x="95.41015625" xlink:href="#BitstreamVeraSans-Roman-38"/>
      </g>
     </g>
    </g>
    <g id="ytick_6">
     <g id="line2d_27">
      <path clip-path="url(#p15026d237b)" d="M 23.014375 130.32 
L 273.449158 130.32 
" style="fill:none;opacity:0.1;stroke:#ffffff;stroke-dasharray:1.000000,3.000000;stroke-dashoffset:0.0;stroke-width:0.5;"/>
     </g>
     <g id="line2d_28">
      <g>
       <use style="stroke:#000000;stroke-width:0.5;" x="23.014375" xlink:href="#mb5b8908065" y="130.32"/>
      </g>
     </g>
     <g id="text_15">
      <!-- 1.0 -->
      <g transform="translate(13.4625 131.975625)scale(0.06 -0.06)">
       <use xlink:href="#BitstreamVeraSans-Roman-31"/>
       <use x="63.623046875" xlink:href="#BitstreamVeraSans-Roman-2e"/>
       <use x="95.41015625" xlink:href="#BitstreamVeraSans-Roman-30"/>
      </g>
     </g>
    </g>
    <g id="text_16">
     <!-- fraction -->
     <defs>
      <path d="M 54.890625 33.015625 
L 54.890625 0 
L 45.90625 0 
L 45.90625 32.71875 
Q 45.90625 40.484375 42.875 44.328125 
Q 39.84375 48.1875 33.796875 48.1875 
Q 26.515625 48.1875 22.3125 43.546875 
Q 18.109375 38.921875 18.109375 30.90625 
L 18.109375 0 
L 9.078125 0 
L 9.078125 54.6875 
L 18.109375 54.6875 
L 18.109375 46.1875 
Q 21.34375 51.125 25.703125 53.5625 
Q 30.078125 56 35.796875 56 
Q 45.21875 56 50.046875 50.171875 
Q 54.890625 44.34375 54.890625 33.015625 
" id="BitstreamVeraSans-Roman-6e"/>
      <path d="M 37.109375 75.984375 
L 37.109375 68.5 
L 28.515625 68.5 
Q 23.6875 68.5 21.796875 66.546875 
Q 19.921875 64.59375 19.921875 59.515625 
L 19.921875 54.6875 
L 34.71875 54.6875 
L 34.71875 47.703125 
L 19.921875 47.703125 
L 19.921875 0 
L 10.890625 0 
L 10.890625 47.703125 
L 2.296875 47.703125 
L 2.296875 54.6875 
L 10.890625 54.6875 
L 10.890625 58.5 
Q 10.890625 67.625 15.140625 71.796875 
Q 19.390625 75.984375 28.609375 75.984375 
z
" id="BitstreamVeraSans-Roman-66"/>
      <path d="M 34.28125 27.484375 
Q 23.390625 27.484375 19.1875 25 
Q 14.984375 22.515625 14.984375 16.5 
Q 14.984375 11.71875 18.140625 8.90625 
Q 21.296875 6.109375 26.703125 6.109375 
Q 34.1875 6.109375 38.703125 11.40625 
Q 43.21875 16.703125 43.21875 25.484375 
L 43.21875 27.484375 
z
M 52.203125 31.203125 
L 52.203125 0 
L 43.21875 0 
L 43.21875 8.296875 
Q 40.140625 3.328125 35.546875 0.953125 
Q 30.953125 -1.421875 24.3125 -1.421875 
Q 15.921875 -1.421875 10.953125 3.296875 
Q 6 8.015625 6 15.921875 
Q 6 25.140625 12.171875 29.828125 
Q 18.359375 34.515625 30.609375 34.515625 
L 43.21875 34.515625 
L 43.21875 35.40625 
Q 43.21875 41.609375 39.140625 45 
Q 35.0625 48.390625 27.6875 48.390625 
Q 23 48.390625 18.546875 47.265625 
Q 14.109375 46.140625 10.015625 43.890625 
L 10.015625 52.203125 
Q 14.9375 54.109375 19.578125 55.046875 
Q 24.21875 56 28.609375 56 
Q 40.484375 56 46.34375 49.84375 
Q 52.203125 43.703125 52.203125 31.203125 
" id="BitstreamVeraSans-Roman-61"/>
      <path d="M 18.3125 70.21875 
L 18.3125 54.6875 
L 36.8125 54.6875 
L 36.8125 47.703125 
L 18.3125 47.703125 
L 18.3125 18.015625 
Q 18.3125 11.328125 20.140625 9.421875 
Q 21.96875 7.515625 27.59375 7.515625 
L 36.8125 7.515625 
L 36.8125 0 
L 27.59375 0 
Q 17.1875 0 13.234375 3.875 
Q 9.28125 7.765625 9.28125 18.015625 
L 9.28125 47.703125 
L 2.6875 47.703125 
L 2.6875 54.6875 
L 9.28125 54.6875 
L 9.28125 70.21875 
z
" id="BitstreamVeraSans-Roman-74"/>
     </defs>
     <g transform="translate(6.79875 318.485)rotate(-90.0)scale(0.08 -0.08)">
      <use xlink:href="#BitstreamVeraSans-Roman-66"/>
      <use x="35.205078125" xlink:href="#BitstreamVeraSans-Roman-72"/>
      <use x="76.318359375" xlink:href="#BitstreamVeraSans-Roman-61"/>
      <use x="137.59765625" xlink:href="#BitstreamVeraSans-Roman-63"/>
      <use x="192.578125" xlink:href="#BitstreamVeraSans-Roman-74"/>
      <use x="231.787109375" xlink:href="#BitstreamVeraSans-Roman-69"/>
      <use x="259.5703125" xlink:href="#BitstreamVeraSans-Roman-6f"/>
      <use x="320.751953125" xlink:href="#BitstreamVeraSans-Roman-6e"/>
     </g>
    </g>
   </g>
   <g id="text_17">
    <!-- Vinayagam -->
    <defs>
     <path d="M 52 44.1875 
Q 55.375 50.25 60.0625 53.125 
Q 64.75 56 71.09375 56 
Q 79.640625 56 84.28125 50.015625 
Q 88.921875 44.046875 88.921875 33.015625 
L 88.921875 0 
L 79.890625 0 
L 79.890625 32.71875 
Q 79.890625 40.578125 77.09375 44.375 
Q 74.3125 48.1875 68.609375 48.1875 
Q 61.625 48.1875 57.5625 43.546875 
Q 53.515625 38.921875 53.515625 30.90625 
L 53.515625 0 
L 44.484375 0 
L 44.484375 32.71875 
Q 44.484375 40.625 41.703125 44.40625 
Q 38.921875 48.1875 33.109375 48.1875 
Q 26.21875 48.1875 22.15625 43.53125 
Q 18.109375 38.875 18.109375 30.90625 
L 18.109375 0 
L 9.078125 0 
L 9.078125 54.6875 
L 18.109375 54.6875 
L 18.109375 46.1875 
Q 21.1875 51.21875 25.484375 53.609375 
Q 29.78125 56 35.6875 56 
Q 41.65625 56 45.828125 52.96875 
Q 50 49.953125 52 44.1875 
" id="BitstreamVeraSans-Roman-6d"/>
     <path d="M 45.40625 27.984375 
Q 45.40625 37.75 41.375 43.109375 
Q 37.359375 48.484375 30.078125 48.484375 
Q 22.859375 48.484375 18.828125 43.109375 
Q 14.796875 37.75 14.796875 27.984375 
Q 14.796875 18.265625 18.828125 12.890625 
Q 22.859375 7.515625 30.078125 7.515625 
Q 37.359375 7.515625 41.375 12.890625 
Q 45.40625 18.265625 45.40625 27.984375 
M 54.390625 6.78125 
Q 54.390625 -7.171875 48.1875 -13.984375 
Q 42 -20.796875 29.203125 -20.796875 
Q 24.46875 -20.796875 20.265625 -20.09375 
Q 16.0625 -19.390625 12.109375 -17.921875 
L 12.109375 -9.1875 
Q 16.0625 -11.328125 19.921875 -12.34375 
Q 23.78125 -13.375 27.78125 -13.375 
Q 36.625 -13.375 41.015625 -8.765625 
Q 45.40625 -4.15625 45.40625 5.171875 
L 45.40625 9.625 
Q 42.625 4.78125 38.28125 2.390625 
Q 33.9375 0 27.875 0 
Q 17.828125 0 11.671875 7.65625 
Q 5.515625 15.328125 5.515625 27.984375 
Q 5.515625 40.671875 11.671875 48.328125 
Q 17.828125 56 27.875 56 
Q 33.9375 56 38.28125 53.609375 
Q 42.625 51.21875 45.40625 46.390625 
L 45.40625 54.6875 
L 54.390625 54.6875 
z
" id="BitstreamVeraSans-Roman-67"/>
     <path d="M 28.609375 0 
L 0.78125 72.90625 
L 11.078125 72.90625 
L 34.1875 11.53125 
L 57.328125 72.90625 
L 67.578125 72.90625 
L 39.796875 0 
z
" id="BitstreamVeraSans-Roman-56"/>
     <path d="M 32.171875 -5.078125 
Q 28.375 -14.84375 24.75 -17.8125 
Q 21.140625 -20.796875 15.09375 -20.796875 
L 7.90625 -20.796875 
L 7.90625 -13.28125 
L 13.1875 -13.28125 
Q 16.890625 -13.28125 18.9375 -11.515625 
Q 21 -9.765625 23.484375 -3.21875 
L 25.09375 0.875 
L 2.984375 54.6875 
L 12.5 54.6875 
L 29.59375 11.921875 
L 46.6875 54.6875 
L 56.203125 54.6875 
z
" id="BitstreamVeraSans-Roman-79"/>
    </defs>
    <g transform="translate(125.693641304 116.36175)scale(0.08 -0.08)">
     <use xlink:href="#BitstreamVeraSans-Roman-56"/>
     <use x="68.376953125" xlink:href="#BitstreamVeraSans-Roman-69"/>
     <use x="96.16015625" xlink:href="#BitstreamVeraSans-Roman-6e"/>
     <use x="159.5390625" xlink:href="#BitstreamVeraSans-Roman-61"/>
     <use x="220.818359375" xlink:href="#BitstreamVeraSans-Roman-79"/>
     <use x="279.998046875" xlink:href="#BitstreamVeraSans-Roman-61"/>
     <use x="341.27734375" xlink:href="#BitstreamVeraSans-Roman-67"/>
     <use x="404.75390625" xlink:href="#BitstreamVeraSans-Roman-61"/>
     <use x="466.033203125" xlink:href="#BitstreamVeraSans-Roman-6d"/>
    </g>
    <!-- [$p=050.0, t=005.0$, V4EB, MINKNAP, 2X, BOTH, REVERSE, 19K instances] -->
    <defs>
     <path d="M 19.671875 64.796875 
L 19.671875 37.40625 
L 32.078125 37.40625 
Q 38.96875 37.40625 42.71875 40.96875 
Q 46.484375 44.53125 46.484375 51.125 
Q 46.484375 57.671875 42.71875 61.234375 
Q 38.96875 64.796875 32.078125 64.796875 
z
M 9.8125 72.90625 
L 32.078125 72.90625 
Q 44.34375 72.90625 50.609375 67.359375 
Q 56.890625 61.8125 56.890625 51.125 
Q 56.890625 40.328125 50.609375 34.8125 
Q 44.34375 29.296875 32.078125 29.296875 
L 19.671875 29.296875 
L 19.671875 0 
L 9.8125 0 
z
" id="BitstreamVeraSans-Roman-50"/>
     <path d="M -0.296875 72.90625 
L 61.375 72.90625 
L 61.375 64.59375 
L 35.5 64.59375 
L 35.5 0 
L 25.59375 0 
L 25.59375 64.59375 
L -0.296875 64.59375 
z
" id="BitstreamVeraSans-Roman-54"/>
     <path d="M 9.8125 72.90625 
L 24.515625 72.90625 
L 43.109375 23.296875 
L 61.8125 72.90625 
L 76.515625 72.90625 
L 76.515625 0 
L 66.890625 0 
L 66.890625 64.015625 
L 48.09375 14.015625 
L 38.1875 14.015625 
L 19.390625 64.015625 
L 19.390625 0 
L 9.8125 0 
z
" id="BitstreamVeraSans-Roman-4d"/>
     <path d="M 25 -2.203125 
Q 12.75 -2.203125 8.328125 7.875 
Q 3.90625 17.96875 3.90625 31.890625 
Q 3.90625 40.578125 5.484375 48.234375 
Q 7.078125 55.90625 11.78125 61.25 
Q 16.5 66.609375 25 66.609375 
Q 31.59375 66.609375 35.78125 63.375 
Q 39.984375 60.15625 42.1875 55.046875 
Q 44.390625 49.953125 45.1875 44.109375 
Q 46 38.28125 46 31.890625 
Q 46 23.296875 44.40625 15.796875 
Q 42.828125 8.296875 38.1875 3.046875 
Q 33.546875 -2.203125 25 -2.203125 
M 25 0.390625 
Q 30.5625 0.390625 33.296875 6.09375 
Q 36.03125 11.8125 36.671875 18.75 
Q 37.3125 25.6875 37.3125 33.5 
Q 37.3125 41.015625 36.671875 47.359375 
Q 36.03125 53.71875 33.3125 58.859375 
Q 30.609375 64.015625 25 64.015625 
Q 19.34375 64.015625 16.609375 58.828125 
Q 13.875 53.65625 13.234375 47.328125 
Q 12.59375 41.015625 12.59375 33.5 
Q 12.59375 27.9375 12.859375 23 
Q 13.140625 18.0625 14.3125 12.8125 
Q 15.484375 7.5625 18.09375 3.96875 
Q 20.703125 0.390625 25 0.390625 
" id="Cmr10-30"/>
     <path d="M 34.1875 63.1875 
L 20.796875 26.90625 
L 47.609375 26.90625 
z
M 28.609375 72.90625 
L 39.796875 72.90625 
L 67.578125 0 
L 57.328125 0 
L 50.6875 18.703125 
L 17.828125 18.703125 
L 11.1875 0 
L 0.78125 0 
z
" id="BitstreamVeraSans-Roman-41"/>
     <path d="M 11.71875 12.40625 
L 22.015625 12.40625 
L 22.015625 4 
L 14.015625 -11.625 
L 7.71875 -11.625 
L 11.71875 4 
z
" id="BitstreamVeraSans-Roman-2c"/>
     <path d="M 10.984375 1.515625 
L 10.984375 10.5 
Q 14.703125 8.734375 18.5 7.8125 
Q 22.3125 6.890625 25.984375 6.890625 
Q 35.75 6.890625 40.890625 13.453125 
Q 46.046875 20.015625 46.78125 33.40625 
Q 43.953125 29.203125 39.59375 26.953125 
Q 35.25 24.703125 29.984375 24.703125 
Q 19.046875 24.703125 12.671875 31.3125 
Q 6.296875 37.9375 6.296875 49.421875 
Q 6.296875 60.640625 12.9375 67.421875 
Q 19.578125 74.21875 30.609375 74.21875 
Q 43.265625 74.21875 49.921875 64.515625 
Q 56.59375 54.828125 56.59375 36.375 
Q 56.59375 19.140625 48.40625 8.859375 
Q 40.234375 -1.421875 26.421875 -1.421875 
Q 22.703125 -1.421875 18.890625 -0.6875 
Q 15.09375 0.046875 10.984375 1.515625 
M 30.609375 32.421875 
Q 37.25 32.421875 41.125 36.953125 
Q 45.015625 41.5 45.015625 49.421875 
Q 45.015625 57.28125 41.125 61.84375 
Q 37.25 66.40625 30.609375 66.40625 
Q 23.96875 66.40625 20.09375 61.84375 
Q 16.21875 57.28125 16.21875 49.421875 
Q 16.21875 41.5 20.09375 36.953125 
Q 23.96875 32.421875 30.609375 32.421875 
" id="BitstreamVeraSans-Roman-39"/>
     <path d="M 39.40625 66.21875 
Q 28.65625 66.21875 22.328125 58.203125 
Q 16.015625 50.203125 16.015625 36.375 
Q 16.015625 22.609375 22.328125 14.59375 
Q 28.65625 6.59375 39.40625 6.59375 
Q 50.140625 6.59375 56.421875 14.59375 
Q 62.703125 22.609375 62.703125 36.375 
Q 62.703125 50.203125 56.421875 58.203125 
Q 50.140625 66.21875 39.40625 66.21875 
M 39.40625 74.21875 
Q 54.734375 74.21875 63.90625 63.9375 
Q 73.09375 53.65625 73.09375 36.375 
Q 73.09375 19.140625 63.90625 8.859375 
Q 54.734375 -1.421875 39.40625 -1.421875 
Q 24.03125 -1.421875 14.8125 8.828125 
Q 5.609375 19.09375 5.609375 36.375 
Q 5.609375 53.65625 14.8125 63.9375 
Q 24.03125 74.21875 39.40625 74.21875 
" id="BitstreamVeraSans-Roman-4f"/>
     <path d="M 19.671875 34.8125 
L 19.671875 8.109375 
L 35.5 8.109375 
Q 43.453125 8.109375 47.28125 11.40625 
Q 51.125 14.703125 51.125 21.484375 
Q 51.125 28.328125 47.28125 31.5625 
Q 43.453125 34.8125 35.5 34.8125 
z
M 19.671875 64.796875 
L 19.671875 42.828125 
L 34.28125 42.828125 
Q 41.5 42.828125 45.03125 45.53125 
Q 48.578125 48.25 48.578125 53.8125 
Q 48.578125 59.328125 45.03125 62.0625 
Q 41.5 64.796875 34.28125 64.796875 
z
M 9.8125 72.90625 
L 35.015625 72.90625 
Q 46.296875 72.90625 52.390625 68.21875 
Q 58.5 63.53125 58.5 54.890625 
Q 58.5 48.1875 55.375 44.234375 
Q 52.25 40.28125 46.1875 39.3125 
Q 53.46875 37.75 57.5 32.78125 
Q 61.53125 27.828125 61.53125 20.40625 
Q 61.53125 10.640625 54.890625 5.3125 
Q 48.25 0 35.984375 0 
L 9.8125 0 
z
" id="BitstreamVeraSans-Roman-42"/>
     <path d="M 6.203125 8.109375 
Q 6.203125 9.578125 6.5 10.890625 
L 13.71875 39.59375 
L 3.21875 39.59375 
Q 2.203125 39.59375 2.203125 40.921875 
Q 2.59375 43.109375 3.515625 43.109375 
L 14.59375 43.109375 
L 18.609375 59.421875 
Q 19 60.75 20.171875 61.671875 
Q 21.34375 62.59375 22.796875 62.59375 
Q 24.078125 62.59375 24.921875 61.828125 
Q 25.78125 61.078125 25.78125 59.8125 
Q 25.78125 59.515625 25.75 59.34375 
Q 25.734375 59.1875 25.6875 58.984375 
L 21.6875 43.109375 
L 31.984375 43.109375 
Q 33.015625 43.109375 33.015625 41.796875 
Q 32.953125 41.546875 32.8125 40.953125 
Q 32.671875 40.375 32.421875 39.984375 
Q 32.171875 39.59375 31.6875 39.59375 
L 20.796875 39.59375 
L 13.625 10.6875 
Q 12.890625 7.859375 12.890625 5.8125 
Q 12.890625 1.515625 15.828125 1.515625 
Q 20.21875 1.515625 23.609375 5.640625 
Q 27 9.765625 28.8125 14.703125 
Q 29.203125 15.28125 29.59375 15.28125 
L 30.8125 15.28125 
Q 31.203125 15.28125 31.4375 15.015625 
Q 31.6875 14.75 31.6875 14.40625 
Q 31.6875 14.203125 31.59375 14.109375 
Q 29.390625 8.0625 25.1875 3.46875 
Q 21 -1.125 15.578125 -1.125 
Q 11.625 -1.125 8.90625 1.453125 
Q 6.203125 4.046875 6.203125 8.109375 
" id="Cmmi10-74"/>
     <path d="M 9.8125 72.90625 
L 19.671875 72.90625 
L 19.671875 42.09375 
L 52.390625 72.90625 
L 65.09375 72.90625 
L 28.90625 38.921875 
L 67.671875 0 
L 54.6875 0 
L 19.671875 35.109375 
L 19.671875 0 
L 9.8125 0 
z
" id="BitstreamVeraSans-Roman-4b"/>
     <path d="M 9.8125 72.90625 
L 19.671875 72.90625 
L 19.671875 0 
L 9.8125 0 
z
" id="BitstreamVeraSans-Roman-49"/>
     <path d="M 9.8125 72.90625 
L 23.09375 72.90625 
L 55.421875 11.921875 
L 55.421875 72.90625 
L 64.984375 72.90625 
L 64.984375 0 
L 51.703125 0 
L 19.390625 60.984375 
L 19.390625 0 
L 9.8125 0 
z
" id="BitstreamVeraSans-Roman-4e"/>
     <path d="M 9.90625 -18.015625 
Q 9.90625 -17.578125 10.296875 -17.1875 
Q 13.921875 -13.71875 15.921875 -9.171875 
Q 17.921875 -4.640625 17.921875 0.390625 
L 17.921875 1.609375 
Q 16.3125 0 13.921875 0 
Q 11.625 0 10.015625 1.609375 
Q 8.40625 3.21875 8.40625 5.515625 
Q 8.40625 7.859375 10.015625 9.421875 
Q 11.625 10.984375 13.921875 10.984375 
Q 17.484375 10.984375 19 7.6875 
Q 20.515625 4.390625 20.515625 0.390625 
Q 20.515625 -5.171875 18.28125 -10.171875 
Q 16.0625 -15.1875 12.015625 -19.1875 
Q 11.625 -19.390625 11.375 -19.390625 
Q 10.890625 -19.390625 10.390625 -18.9375 
Q 9.90625 -18.5 9.90625 -18.015625 
" id="Cmmi10-3b"/>
     <path d="M 8.40625 5.515625 
Q 8.40625 7.765625 10.0625 9.375 
Q 11.71875 10.984375 13.921875 10.984375 
Q 15.28125 10.984375 16.59375 10.25 
Q 17.921875 9.515625 18.65625 8.203125 
Q 19.390625 6.890625 19.390625 5.515625 
Q 19.390625 3.328125 17.765625 1.65625 
Q 16.15625 0 13.921875 0 
Q 11.71875 0 10.0625 1.65625 
Q 8.40625 3.328125 8.40625 5.515625 
" id="Cmmi10-3a"/>
     <path d="M 9.8125 72.90625 
L 55.90625 72.90625 
L 55.90625 64.59375 
L 19.671875 64.59375 
L 19.671875 43.015625 
L 54.390625 43.015625 
L 54.390625 34.71875 
L 19.671875 34.71875 
L 19.671875 8.296875 
L 56.78125 8.296875 
L 56.78125 0 
L 9.8125 0 
z
" id="BitstreamVeraSans-Roman-45"/>
     <path d="M 6.296875 72.90625 
L 16.890625 72.90625 
L 35.015625 45.796875 
L 53.21875 72.90625 
L 63.8125 72.90625 
L 40.375 37.890625 
L 65.375 0 
L 54.78125 0 
L 34.28125 31 
L 13.625 0 
L 2.984375 0 
L 29 38.921875 
z
" id="BitstreamVeraSans-Roman-58"/>
     <path d="M 53.515625 70.515625 
L 53.515625 60.890625 
Q 47.90625 63.578125 42.921875 64.890625 
Q 37.9375 66.21875 33.296875 66.21875 
Q 25.25 66.21875 20.875 63.09375 
Q 16.5 59.96875 16.5 54.203125 
Q 16.5 49.359375 19.40625 46.890625 
Q 22.3125 44.4375 30.421875 42.921875 
L 36.375 41.703125 
Q 47.40625 39.59375 52.65625 34.296875 
Q 57.90625 29 57.90625 20.125 
Q 57.90625 9.515625 50.796875 4.046875 
Q 43.703125 -1.421875 29.984375 -1.421875 
Q 24.8125 -1.421875 18.96875 -0.25 
Q 13.140625 0.921875 6.890625 3.21875 
L 6.890625 13.375 
Q 12.890625 10.015625 18.65625 8.296875 
Q 24.421875 6.59375 29.984375 6.59375 
Q 38.421875 6.59375 43.015625 9.90625 
Q 47.609375 13.234375 47.609375 19.390625 
Q 47.609375 24.75 44.3125 27.78125 
Q 41.015625 30.8125 33.5 32.328125 
L 27.484375 33.5 
Q 16.453125 35.6875 11.515625 40.375 
Q 6.59375 45.0625 6.59375 53.421875 
Q 6.59375 63.09375 13.40625 68.65625 
Q 20.21875 74.21875 32.171875 74.21875 
Q 37.3125 74.21875 42.625 73.28125 
Q 47.953125 72.359375 53.515625 70.515625 
" id="BitstreamVeraSans-Roman-53"/>
     <path d="M 8.59375 75.984375 
L 29.296875 75.984375 
L 29.296875 69 
L 17.578125 69 
L 17.578125 -6.203125 
L 29.296875 -6.203125 
L 29.296875 -13.1875 
L 8.59375 -13.1875 
z
" id="BitstreamVeraSans-Roman-5b"/>
     <path d="M 8.6875 11.375 
Q 9.71875 8.453125 11.84375 6.046875 
Q 13.96875 3.65625 16.875 2.3125 
Q 19.78125 0.984375 22.90625 0.984375 
Q 30.125 0.984375 32.859375 6.59375 
Q 35.59375 12.203125 35.59375 20.21875 
Q 35.59375 23.6875 35.46875 26.046875 
Q 35.359375 28.421875 34.8125 30.609375 
Q 33.890625 34.125 31.5625 36.765625 
Q 29.25 39.40625 25.875 39.40625 
Q 22.515625 39.40625 20.09375 38.375 
Q 17.671875 37.359375 16.15625 35.984375 
Q 14.65625 34.625 13.484375 33.109375 
Q 12.3125 31.59375 12.015625 31.5 
L 10.890625 31.5 
Q 10.640625 31.5 10.265625 31.8125 
Q 9.90625 32.125 9.90625 32.421875 
L 9.90625 65.828125 
Q 9.90625 66.0625 10.21875 66.328125 
Q 10.546875 66.609375 10.890625 66.609375 
L 11.1875 66.609375 
Q 17.921875 63.375 25.484375 63.375 
Q 32.90625 63.375 39.796875 66.609375 
L 40.09375 66.609375 
Q 40.4375 66.609375 40.71875 66.359375 
Q 41.015625 66.109375 41.015625 65.828125 
L 41.015625 64.890625 
Q 41.015625 64.40625 40.828125 64.40625 
Q 37.40625 59.859375 32.25 57.3125 
Q 27.09375 54.78125 21.578125 54.78125 
Q 17.578125 54.78125 13.375 55.90625 
L 13.375 37.015625 
Q 16.703125 39.703125 19.3125 40.84375 
Q 21.921875 42 25.984375 42 
Q 31.5 42 35.859375 38.8125 
Q 40.234375 35.640625 42.578125 30.53125 
Q 44.921875 25.4375 44.921875 20.125 
Q 44.921875 14.109375 41.96875 8.984375 
Q 39.015625 3.859375 33.9375 0.828125 
Q 28.859375 -2.203125 22.90625 -2.203125 
Q 17.96875 -2.203125 13.84375 0.328125 
Q 9.71875 2.875 7.34375 7.171875 
Q 4.984375 11.46875 4.984375 16.3125 
Q 4.984375 18.5625 6.4375 19.96875 
Q 7.90625 21.390625 10.109375 21.390625 
Q 12.3125 21.390625 13.796875 19.9375 
Q 15.28125 18.5 15.28125 16.3125 
Q 15.28125 14.15625 13.796875 12.671875 
Q 12.3125 11.1875 10.109375 11.1875 
Q 9.765625 11.1875 9.328125 11.25 
Q 8.890625 11.328125 8.6875 11.375 
" id="Cmr10-35"/>
     <path d="M 9.8125 72.90625 
L 19.671875 72.90625 
L 19.671875 43.015625 
L 55.515625 43.015625 
L 55.515625 72.90625 
L 65.375 72.90625 
L 65.375 0 
L 55.515625 0 
L 55.515625 34.71875 
L 19.671875 34.71875 
L 19.671875 0 
L 9.8125 0 
z
" id="BitstreamVeraSans-Roman-48"/>
     <path d="M 7.515625 13.28125 
Q 6.6875 13.28125 6.140625 13.90625 
Q 5.609375 14.546875 5.609375 15.28125 
Q 5.609375 16.109375 6.140625 16.6875 
Q 6.6875 17.28125 7.515625 17.28125 
L 70.3125 17.28125 
Q 71.046875 17.28125 71.578125 16.6875 
Q 72.125 16.109375 72.125 15.28125 
Q 72.125 14.546875 71.578125 13.90625 
Q 71.046875 13.28125 70.3125 13.28125 
z
M 7.515625 32.71875 
Q 6.6875 32.71875 6.140625 33.296875 
Q 5.609375 33.890625 5.609375 34.71875 
Q 5.609375 35.453125 6.140625 36.078125 
Q 6.6875 36.71875 7.515625 36.71875 
L 70.3125 36.71875 
Q 71.046875 36.71875 71.578125 36.078125 
Q 72.125 35.453125 72.125 34.71875 
Q 72.125 33.890625 71.578125 33.296875 
Q 71.046875 32.71875 70.3125 32.71875 
z
" id="Cmr10-3d"/>
     <path d="M -2.484375 -19.390625 
Q -3.421875 -19.390625 -3.421875 -18.109375 
Q -3.078125 -15.921875 -2.09375 -15.921875 
Q 1.03125 -15.921875 2.265625 -15.359375 
Q 3.515625 -14.796875 4.203125 -12.5 
L 15.484375 32.515625 
Q 16.21875 34.375 16.21875 37.3125 
Q 16.21875 41.609375 13.28125 41.609375 
Q 10.15625 41.609375 8.640625 37.859375 
Q 7.125 34.125 5.71875 28.421875 
Q 5.71875 27.78125 4.890625 27.78125 
L 3.71875 27.78125 
Q 3.46875 27.78125 3.171875 28.140625 
Q 2.875 28.515625 2.875 28.8125 
Q 3.953125 33.15625 4.953125 36.171875 
Q 5.953125 39.203125 8.078125 41.6875 
Q 10.203125 44.1875 13.375 44.1875 
Q 16.796875 44.1875 19.375 42.25 
Q 21.96875 40.328125 22.703125 37.015625 
Q 25.4375 40.1875 28.75 42.1875 
Q 32.078125 44.1875 35.59375 44.1875 
Q 39.796875 44.1875 42.890625 41.9375 
Q 46 39.703125 47.5625 36.0625 
Q 49.125 32.421875 49.125 28.21875 
Q 49.125 21.78125 45.828125 14.890625 
Q 42.53125 8.015625 36.890625 3.4375 
Q 31.25 -1.125 24.8125 -1.125 
Q 21.875 -1.125 19.5 0.53125 
Q 17.140625 2.203125 15.828125 4.890625 
L 11.28125 -12.890625 
Q 11.03125 -14.359375 10.984375 -14.59375 
Q 10.984375 -15.921875 17.578125 -15.921875 
Q 18.609375 -15.921875 18.609375 -17.1875 
Q 18.265625 -18.5 18.046875 -18.9375 
Q 17.828125 -19.390625 16.890625 -19.390625 
z
M 24.90625 1.515625 
Q 28.375 1.515625 31.34375 4.375 
Q 34.328125 7.234375 36.1875 10.796875 
Q 37.546875 13.484375 38.734375 17.359375 
Q 39.9375 21.234375 40.8125 25.625 
Q 41.703125 30.03125 41.703125 32.625 
Q 41.703125 34.90625 41.09375 36.90625 
Q 40.484375 38.921875 39.09375 40.265625 
Q 37.703125 41.609375 35.40625 41.609375 
Q 31.734375 41.609375 28.484375 38.984375 
Q 25.25 36.375 22.609375 32.515625 
L 22.609375 32.171875 
L 17.09375 10.109375 
Q 17.78125 6.546875 19.734375 4.03125 
Q 21.6875 1.515625 24.90625 1.515625 
" id="Cmmi10-70"/>
     <path d="M 30.421875 75.984375 
L 30.421875 -13.1875 
L 9.71875 -13.1875 
L 9.71875 -6.203125 
L 21.390625 -6.203125 
L 21.390625 69 
L 9.71875 69 
L 9.71875 75.984375 
z
" id="BitstreamVeraSans-Roman-5d"/>
     <path d="M 44.390625 34.1875 
Q 47.5625 33.109375 50.5625 29.59375 
Q 53.5625 26.078125 56.59375 19.921875 
L 66.609375 0 
L 56 0 
L 46.6875 18.703125 
Q 43.0625 26.03125 39.671875 28.421875 
Q 36.28125 30.8125 30.421875 30.8125 
L 19.671875 30.8125 
L 19.671875 0 
L 9.8125 0 
L 9.8125 72.90625 
L 32.078125 72.90625 
Q 44.578125 72.90625 50.734375 67.671875 
Q 56.890625 62.453125 56.890625 51.90625 
Q 56.890625 45.015625 53.6875 40.46875 
Q 50.484375 35.9375 44.390625 34.1875 
M 19.671875 64.796875 
L 19.671875 38.921875 
L 32.078125 38.921875 
Q 39.203125 38.921875 42.84375 42.21875 
Q 46.484375 45.515625 46.484375 51.90625 
Q 46.484375 58.296875 42.84375 61.546875 
Q 39.203125 64.796875 32.078125 64.796875 
z
" id="BitstreamVeraSans-Roman-52"/>
    </defs>
    <g transform="translate(3.91176630435 125.32)scale(0.08 -0.08)">
     <use transform="translate(0.0 0.015625)" xlink:href="#BitstreamVeraSans-Roman-5b"/>
     <use transform="translate(39.013671875 0.015625)" xlink:href="#Cmmi10-70"/>
     <use transform="translate(106.865234375 0.015625)" xlink:href="#Cmr10-3d"/>
     <use transform="translate(202.109375 0.015625)" xlink:href="#Cmr10-30"/>
     <use transform="translate(252.109375 0.015625)" xlink:href="#Cmr10-35"/>
     <use transform="translate(302.109375 0.015625)" xlink:href="#Cmr10-30"/>
     <use transform="translate(352.109375 0.015625)" xlink:href="#Cmmi10-3a"/>
     <use transform="translate(397.353515625 0.015625)" xlink:href="#Cmr10-30"/>
     <use transform="translate(447.353515625 0.015625)" xlink:href="#Cmmi10-3b"/>
     <use transform="translate(492.59765625 0.015625)" xlink:href="#Cmmi10-74"/>
     <use transform="translate(546.240234375 0.015625)" xlink:href="#Cmr10-3d"/>
     <use transform="translate(641.484375 0.015625)" xlink:href="#Cmr10-30"/>
     <use transform="translate(691.484375 0.015625)" xlink:href="#Cmr10-30"/>
     <use transform="translate(741.484375 0.015625)" xlink:href="#Cmr10-35"/>
     <use transform="translate(791.484375 0.015625)" xlink:href="#Cmmi10-3a"/>
     <use transform="translate(836.728515625 0.015625)" xlink:href="#Cmr10-30"/>
     <use transform="translate(886.728515625 0.015625)" xlink:href="#BitstreamVeraSans-Roman-2c"/>
     <use transform="translate(918.515625 0.015625)" xlink:href="#BitstreamVeraSans-Roman-20"/>
     <use transform="translate(950.302734375 0.015625)" xlink:href="#BitstreamVeraSans-Roman-56"/>
     <use transform="translate(1018.7109375 0.015625)" xlink:href="#BitstreamVeraSans-Roman-34"/>
     <use transform="translate(1082.333984375 0.015625)" xlink:href="#BitstreamVeraSans-Roman-45"/>
     <use transform="translate(1145.517578125 0.015625)" xlink:href="#BitstreamVeraSans-Roman-42"/>
     <use transform="translate(1214.12109375 0.015625)" xlink:href="#BitstreamVeraSans-Roman-2c"/>
     <use transform="translate(1245.908203125 0.015625)" xlink:href="#BitstreamVeraSans-Roman-20"/>
     <use transform="translate(1277.6953125 0.015625)" xlink:href="#BitstreamVeraSans-Roman-4d"/>
     <use transform="translate(1363.974609375 0.015625)" xlink:href="#BitstreamVeraSans-Roman-49"/>
     <use transform="translate(1393.466796875 0.015625)" xlink:href="#BitstreamVeraSans-Roman-4e"/>
     <use transform="translate(1468.271484375 0.015625)" xlink:href="#BitstreamVeraSans-Roman-4b"/>
     <use transform="translate(1533.84765625 0.015625)" xlink:href="#BitstreamVeraSans-Roman-4e"/>
     <use transform="translate(1608.65234375 0.015625)" xlink:href="#BitstreamVeraSans-Roman-41"/>
     <use transform="translate(1677.060546875 0.015625)" xlink:href="#BitstreamVeraSans-Roman-50"/>
     <use transform="translate(1737.36328125 0.015625)" xlink:href="#BitstreamVeraSans-Roman-2c"/>
     <use transform="translate(1769.150390625 0.015625)" xlink:href="#BitstreamVeraSans-Roman-20"/>
     <use transform="translate(1800.9375 0.015625)" xlink:href="#BitstreamVeraSans-Roman-32"/>
     <use transform="translate(1864.560546875 0.015625)" xlink:href="#BitstreamVeraSans-Roman-58"/>
     <use transform="translate(1933.06640625 0.015625)" xlink:href="#BitstreamVeraSans-Roman-2c"/>
     <use transform="translate(1964.853515625 0.015625)" xlink:href="#BitstreamVeraSans-Roman-20"/>
     <use transform="translate(1996.640625 0.015625)" xlink:href="#BitstreamVeraSans-Roman-42"/>
     <use transform="translate(2065.244140625 0.015625)" xlink:href="#BitstreamVeraSans-Roman-4f"/>
     <use transform="translate(2143.955078125 0.015625)" xlink:href="#BitstreamVeraSans-Roman-54"/>
     <use transform="translate(2205.0390625 0.015625)" xlink:href="#BitstreamVeraSans-Roman-48"/>
     <use transform="translate(2280.234375 0.015625)" xlink:href="#BitstreamVeraSans-Roman-2c"/>
     <use transform="translate(2312.021484375 0.015625)" xlink:href="#BitstreamVeraSans-Roman-20"/>
     <use transform="translate(2343.80859375 0.015625)" xlink:href="#BitstreamVeraSans-Roman-52"/>
     <use transform="translate(2413.291015625 0.015625)" xlink:href="#BitstreamVeraSans-Roman-45"/>
     <use transform="translate(2476.474609375 0.015625)" xlink:href="#BitstreamVeraSans-Roman-56"/>
     <use transform="translate(2544.8828125 0.015625)" xlink:href="#BitstreamVeraSans-Roman-45"/>
     <use transform="translate(2608.06640625 0.015625)" xlink:href="#BitstreamVeraSans-Roman-52"/>
     <use transform="translate(2677.548828125 0.015625)" xlink:href="#BitstreamVeraSans-Roman-53"/>
     <use transform="translate(2741.025390625 0.015625)" xlink:href="#BitstreamVeraSans-Roman-45"/>
     <use transform="translate(2804.208984375 0.015625)" xlink:href="#BitstreamVeraSans-Roman-2c"/>
     <use transform="translate(2835.99609375 0.015625)" xlink:href="#BitstreamVeraSans-Roman-20"/>
     <use transform="translate(2867.783203125 0.015625)" xlink:href="#BitstreamVeraSans-Roman-31"/>
     <use transform="translate(2931.40625 0.015625)" xlink:href="#BitstreamVeraSans-Roman-39"/>
     <use transform="translate(2995.029296875 0.015625)" xlink:href="#BitstreamVeraSans-Roman-4b"/>
     <use transform="translate(3060.60546875 0.015625)" xlink:href="#BitstreamVeraSans-Roman-20"/>
     <use transform="translate(3092.392578125 0.015625)" xlink:href="#BitstreamVeraSans-Roman-69"/>
     <use transform="translate(3120.17578125 0.015625)" xlink:href="#BitstreamVeraSans-Roman-6e"/>
     <use transform="translate(3183.5546875 0.015625)" xlink:href="#BitstreamVeraSans-Roman-73"/>
     <use transform="translate(3235.654296875 0.015625)" xlink:href="#BitstreamVeraSans-Roman-74"/>
     <use transform="translate(3274.86328125 0.015625)" xlink:href="#BitstreamVeraSans-Roman-61"/>
     <use transform="translate(3336.142578125 0.015625)" xlink:href="#BitstreamVeraSans-Roman-6e"/>
     <use transform="translate(3399.521484375 0.015625)" xlink:href="#BitstreamVeraSans-Roman-63"/>
     <use transform="translate(3454.501953125 0.015625)" xlink:href="#BitstreamVeraSans-Roman-65"/>
     <use transform="translate(3516.025390625 0.015625)" xlink:href="#BitstreamVeraSans-Roman-73"/>
     <use transform="translate(3568.125 0.015625)" xlink:href="#BitstreamVeraSans-Roman-5d"/>
    </g>
   </g>
  </g>
  <g id="axes_2">
   <g id="patch_15">
    <path d="M 348.579592 475.92 
L 599.014375 475.92 
L 599.014375 130.32 
L 348.579592 130.32 
z
" style="fill:#ffffff;"/>
   </g>
   <g id="patch_16">
    <path clip-path="url(#p6feccec10e)" d="M 374.418102 475.92 
L 394.293878 475.92 
L 394.293878 177.161317 
L 374.418102 177.161317 
z
" style="fill:#228b22;"/>
   </g>
   <g id="patch_17">
    <path clip-path="url(#p6feccec10e)" d="M 396.502298 475.92 
L 416.378074 475.92 
L 416.378074 475.145153 
L 396.502298 475.145153 
z
" style="fill:#228b22;"/>
   </g>
   <g id="patch_18">
    <path clip-path="url(#p6feccec10e)" d="M 418.586494 475.92 
L 438.46227 475.92 
L 438.46227 454.371887 
L 418.586494 454.371887 
z
" style="fill:#228b22;"/>
   </g>
   <g id="patch_19">
    <path clip-path="url(#p6feccec10e)" d="M 440.67069 475.92 
L 460.546466 475.92 
L 460.546466 464.205058 
L 440.67069 464.205058 
z
" style="fill:#228b22;"/>
   </g>
   <g id="patch_20">
    <path clip-path="url(#p6feccec10e)" d="M 462.754886 475.92 
L 482.630662 475.92 
L 482.630662 469.167766 
L 462.754886 469.167766 
z
" style="fill:#228b22;"/>
   </g>
   <g id="patch_21">
    <path clip-path="url(#p6feccec10e)" d="M 484.839082 475.92 
L 504.714858 475.92 
L 504.714858 470.828151 
L 484.839082 470.828151 
z
" style="fill:#228b22;"/>
   </g>
   <g id="patch_22">
    <path clip-path="url(#p6feccec10e)" d="M 506.923278 475.92 
L 526.799054 475.92 
L 526.799054 475.274295 
L 506.923278 475.274295 
z
" style="fill:#228b22;"/>
   </g>
   <g id="patch_23">
    <path clip-path="url(#p6feccec10e)" d="M 529.007474 475.92 
L 548.88325 475.92 
L 548.88325 475.717064 
L 529.007474 475.717064 
z
" style="fill:#228b22;"/>
   </g>
   <g id="patch_24">
    <path clip-path="url(#p6feccec10e)" d="M 551.09167 475.92 
L 570.967446 475.92 
L 570.967446 475.846205 
L 551.09167 475.846205 
z
" style="fill:#228b22;"/>
   </g>
   <g id="patch_25">
    <path clip-path="url(#p6feccec10e)" d="M 573.175866 475.92 
L 593.051642 475.92 
L 593.051642 475.883103 
L 573.175866 475.883103 
z
" style="fill:#228b22;"/>
   </g>
   <g id="patch_26">
    <path d="M 348.579592 475.92 
L 348.579592 130.32 
" style="fill:none;stroke:#000000;stroke-linecap:square;stroke-linejoin:miter;"/>
   </g>
   <g id="patch_27">
    <path d="M 348.579592 475.92 
L 599.014375 475.92 
" style="fill:none;stroke:#000000;stroke-linecap:square;stroke-linejoin:miter;"/>
   </g>
   <g id="matplotlib.axis_3">
    <g id="xtick_9">
     <g id="line2d_29">
      <path clip-path="url(#p6feccec10e)" d="M 348.579592 475.92 
L 348.579592 130.32 
" style="fill:none;opacity:0.1;stroke:#ffffff;stroke-dasharray:1.000000,3.000000;stroke-dashoffset:0.0;stroke-width:0.5;"/>
     </g>
     <g id="line2d_30">
      <g>
       <use style="stroke:#000000;stroke-width:0.5;" x="348.579592391" xlink:href="#ma146a432b9" y="475.92"/>
      </g>
     </g>
     <g id="text_18">
      <!-- −2 -->
      <g transform="translate(344.156936141 484.4790625)scale(0.06 -0.06)">
       <use xlink:href="#BitstreamVeraSans-Roman-2212"/>
       <use x="83.7890625" xlink:href="#BitstreamVeraSans-Roman-32"/>
      </g>
     </g>
    </g>
    <g id="xtick_10">
     <g id="line2d_31">
      <path clip-path="url(#p6feccec10e)" d="M 384.35599 475.92 
L 384.35599 130.32 
" style="fill:none;opacity:0.1;stroke:#ffffff;stroke-dasharray:1.000000,3.000000;stroke-dashoffset:0.0;stroke-width:0.5;"/>
     </g>
     <g id="line2d_32">
      <g>
       <use style="stroke:#000000;stroke-width:0.5;" x="384.355989907" xlink:href="#ma146a432b9" y="475.92"/>
      </g>
     </g>
     <g id="text_19">
      <!-- 0 -->
      <g transform="translate(382.447239907 484.4790625)scale(0.06 -0.06)">
       <use xlink:href="#BitstreamVeraSans-Roman-30"/>
      </g>
     </g>
    </g>
    <g id="xtick_11">
     <g id="line2d_33">
      <path clip-path="url(#p6feccec10e)" d="M 420.132387 475.92 
L 420.132387 130.32 
" style="fill:none;opacity:0.1;stroke:#ffffff;stroke-dasharray:1.000000,3.000000;stroke-dashoffset:0.0;stroke-width:0.5;"/>
     </g>
     <g id="line2d_34">
      <g>
       <use style="stroke:#000000;stroke-width:0.5;" x="420.132387422" xlink:href="#ma146a432b9" y="475.92"/>
      </g>
     </g>
     <g id="text_20">
      <!-- 2 -->
      <g transform="translate(418.223637422 484.4790625)scale(0.06 -0.06)">
       <use xlink:href="#BitstreamVeraSans-Roman-32"/>
      </g>
     </g>
    </g>
    <g id="xtick_12">
     <g id="line2d_35">
      <path clip-path="url(#p6feccec10e)" d="M 455.908785 475.92 
L 455.908785 130.32 
" style="fill:none;opacity:0.1;stroke:#ffffff;stroke-dasharray:1.000000,3.000000;stroke-dashoffset:0.0;stroke-width:0.5;"/>
     </g>
     <g id="line2d_36">
      <g>
       <use style="stroke:#000000;stroke-width:0.5;" x="455.908784938" xlink:href="#ma146a432b9" y="475.92"/>
      </g>
     </g>
     <g id="text_21">
      <!-- 4 -->
      <g transform="translate(454.000034938 484.4790625)scale(0.06 -0.06)">
       <use xlink:href="#BitstreamVeraSans-Roman-34"/>
      </g>
     </g>
    </g>
    <g id="xtick_13">
     <g id="line2d_37">
      <path clip-path="url(#p6feccec10e)" d="M 491.685182 475.92 
L 491.685182 130.32 
" style="fill:none;opacity:0.1;stroke:#ffffff;stroke-dasharray:1.000000,3.000000;stroke-dashoffset:0.0;stroke-width:0.5;"/>
     </g>
     <g id="line2d_38">
      <g>
       <use style="stroke:#000000;stroke-width:0.5;" x="491.685182453" xlink:href="#ma146a432b9" y="475.92"/>
      </g>
     </g>
     <g id="text_22">
      <!-- 6 -->
      <g transform="translate(489.776432453 484.4790625)scale(0.06 -0.06)">
       <use xlink:href="#BitstreamVeraSans-Roman-36"/>
      </g>
     </g>
    </g>
    <g id="xtick_14">
     <g id="line2d_39">
      <path clip-path="url(#p6feccec10e)" d="M 527.46158 475.92 
L 527.46158 130.32 
" style="fill:none;opacity:0.1;stroke:#ffffff;stroke-dasharray:1.000000,3.000000;stroke-dashoffset:0.0;stroke-width:0.5;"/>
     </g>
     <g id="line2d_40">
      <g>
       <use style="stroke:#000000;stroke-width:0.5;" x="527.461579969" xlink:href="#ma146a432b9" y="475.92"/>
      </g>
     </g>
     <g id="text_23">
      <!-- 8 -->
      <g transform="translate(525.552829969 484.4790625)scale(0.06 -0.06)">
       <use xlink:href="#BitstreamVeraSans-Roman-38"/>
      </g>
     </g>
    </g>
    <g id="xtick_15">
     <g id="line2d_41">
      <path clip-path="url(#p6feccec10e)" d="M 563.237977 475.92 
L 563.237977 130.32 
" style="fill:none;opacity:0.1;stroke:#ffffff;stroke-dasharray:1.000000,3.000000;stroke-dashoffset:0.0;stroke-width:0.5;"/>
     </g>
     <g id="line2d_42">
      <g>
       <use style="stroke:#000000;stroke-width:0.5;" x="563.237977484" xlink:href="#ma146a432b9" y="475.92"/>
      </g>
     </g>
     <g id="text_24">
      <!-- 10 -->
      <g transform="translate(559.420477484 484.4790625)scale(0.06 -0.06)">
       <use xlink:href="#BitstreamVeraSans-Roman-31"/>
       <use x="63.623046875" xlink:href="#BitstreamVeraSans-Roman-30"/>
      </g>
     </g>
    </g>
    <g id="xtick_16">
     <g id="line2d_43">
      <path clip-path="url(#p6feccec10e)" d="M 599.014375 475.92 
L 599.014375 130.32 
" style="fill:none;opacity:0.1;stroke:#ffffff;stroke-dasharray:1.000000,3.000000;stroke-dashoffset:0.0;stroke-width:0.5;"/>
     </g>
     <g id="line2d_44">
      <g>
       <use style="stroke:#000000;stroke-width:0.5;" x="599.014375" xlink:href="#ma146a432b9" y="475.92"/>
      </g>
     </g>
     <g id="text_25">
      <!-- 12 -->
      <g transform="translate(595.196875 484.4790625)scale(0.06 -0.06)">
       <use xlink:href="#BitstreamVeraSans-Roman-31"/>
       <use x="63.623046875" xlink:href="#BitstreamVeraSans-Roman-32"/>
      </g>
     </g>
    </g>
    <g id="text_26">
     <!-- core size -->
     <g transform="translate(456.018858696 496.805625)scale(0.08 -0.08)">
      <use xlink:href="#BitstreamVeraSans-Roman-63"/>
      <use x="54.98046875" xlink:href="#BitstreamVeraSans-Roman-6f"/>
      <use x="116.162109375" xlink:href="#BitstreamVeraSans-Roman-72"/>
      <use x="157.244140625" xlink:href="#BitstreamVeraSans-Roman-65"/>
      <use x="218.767578125" xlink:href="#BitstreamVeraSans-Roman-20"/>
      <use x="250.5546875" xlink:href="#BitstreamVeraSans-Roman-73"/>
      <use x="302.654296875" xlink:href="#BitstreamVeraSans-Roman-69"/>
      <use x="330.4375" xlink:href="#BitstreamVeraSans-Roman-7a"/>
      <use x="382.927734375" xlink:href="#BitstreamVeraSans-Roman-65"/>
     </g>
    </g>
   </g>
   <g id="matplotlib.axis_4">
    <g id="ytick_7">
     <g id="line2d_45">
      <path clip-path="url(#p6feccec10e)" d="M 348.579592 475.92 
L 599.014375 475.92 
" style="fill:none;opacity:0.1;stroke:#ffffff;stroke-dasharray:1.000000,3.000000;stroke-dashoffset:0.0;stroke-width:0.5;"/>
     </g>
     <g id="line2d_46">
      <g>
       <use style="stroke:#000000;stroke-width:0.5;" x="348.579592391" xlink:href="#mb5b8908065" y="475.92"/>
      </g>
     </g>
     <g id="text_27">
      <!-- 0.0 -->
      <g transform="translate(339.027717391 477.575625)scale(0.06 -0.06)">
       <use xlink:href="#BitstreamVeraSans-Roman-30"/>
       <use x="63.623046875" xlink:href="#BitstreamVeraSans-Roman-2e"/>
       <use x="95.41015625" xlink:href="#BitstreamVeraSans-Roman-30"/>
      </g>
     </g>
    </g>
    <g id="ytick_8">
     <g id="line2d_47">
      <path clip-path="url(#p6feccec10e)" d="M 348.579592 406.8 
L 599.014375 406.8 
" style="fill:none;opacity:0.1;stroke:#ffffff;stroke-dasharray:1.000000,3.000000;stroke-dashoffset:0.0;stroke-width:0.5;"/>
     </g>
     <g id="line2d_48">
      <g>
       <use style="stroke:#000000;stroke-width:0.5;" x="348.579592391" xlink:href="#mb5b8908065" y="406.8"/>
      </g>
     </g>
     <g id="text_28">
      <!-- 0.2 -->
      <g transform="translate(339.027717391 408.455625)scale(0.06 -0.06)">
       <use xlink:href="#BitstreamVeraSans-Roman-30"/>
       <use x="63.623046875" xlink:href="#BitstreamVeraSans-Roman-2e"/>
       <use x="95.41015625" xlink:href="#BitstreamVeraSans-Roman-32"/>
      </g>
     </g>
    </g>
    <g id="ytick_9">
     <g id="line2d_49">
      <path clip-path="url(#p6feccec10e)" d="M 348.579592 337.68 
L 599.014375 337.68 
" style="fill:none;opacity:0.1;stroke:#ffffff;stroke-dasharray:1.000000,3.000000;stroke-dashoffset:0.0;stroke-width:0.5;"/>
     </g>
     <g id="line2d_50">
      <g>
       <use style="stroke:#000000;stroke-width:0.5;" x="348.579592391" xlink:href="#mb5b8908065" y="337.68"/>
      </g>
     </g>
     <g id="text_29">
      <!-- 0.4 -->
      <g transform="translate(339.027717391 339.335625)scale(0.06 -0.06)">
       <use xlink:href="#BitstreamVeraSans-Roman-30"/>
       <use x="63.623046875" xlink:href="#BitstreamVeraSans-Roman-2e"/>
       <use x="95.41015625" xlink:href="#BitstreamVeraSans-Roman-34"/>
      </g>
     </g>
    </g>
    <g id="ytick_10">
     <g id="line2d_51">
      <path clip-path="url(#p6feccec10e)" d="M 348.579592 268.56 
L 599.014375 268.56 
" style="fill:none;opacity:0.1;stroke:#ffffff;stroke-dasharray:1.000000,3.000000;stroke-dashoffset:0.0;stroke-width:0.5;"/>
     </g>
     <g id="line2d_52">
      <g>
       <use style="stroke:#000000;stroke-width:0.5;" x="348.579592391" xlink:href="#mb5b8908065" y="268.56"/>
      </g>
     </g>
     <g id="text_30">
      <!-- 0.6 -->
      <g transform="translate(339.027717391 270.215625)scale(0.06 -0.06)">
       <use xlink:href="#BitstreamVeraSans-Roman-30"/>
       <use x="63.623046875" xlink:href="#BitstreamVeraSans-Roman-2e"/>
       <use x="95.41015625" xlink:href="#BitstreamVeraSans-Roman-36"/>
      </g>
     </g>
    </g>
    <g id="ytick_11">
     <g id="line2d_53">
      <path clip-path="url(#p6feccec10e)" d="M 348.579592 199.44 
L 599.014375 199.44 
" style="fill:none;opacity:0.1;stroke:#ffffff;stroke-dasharray:1.000000,3.000000;stroke-dashoffset:0.0;stroke-width:0.5;"/>
     </g>
     <g id="line2d_54">
      <g>
       <use style="stroke:#000000;stroke-width:0.5;" x="348.579592391" xlink:href="#mb5b8908065" y="199.44"/>
      </g>
     </g>
     <g id="text_31">
      <!-- 0.8 -->
      <g transform="translate(339.027717391 201.095625)scale(0.06 -0.06)">
       <use xlink:href="#BitstreamVeraSans-Roman-30"/>
       <use x="63.623046875" xlink:href="#BitstreamVeraSans-Roman-2e"/>
       <use x="95.41015625" xlink:href="#BitstreamVeraSans-Roman-38"/>
      </g>
     </g>
    </g>
    <g id="ytick_12">
     <g id="line2d_55">
      <path clip-path="url(#p6feccec10e)" d="M 348.579592 130.32 
L 599.014375 130.32 
" style="fill:none;opacity:0.1;stroke:#ffffff;stroke-dasharray:1.000000,3.000000;stroke-dashoffset:0.0;stroke-width:0.5;"/>
     </g>
     <g id="line2d_56">
      <g>
       <use style="stroke:#000000;stroke-width:0.5;" x="348.579592391" xlink:href="#mb5b8908065" y="130.32"/>
      </g>
     </g>
     <g id="text_32">
      <!-- 1.0 -->
      <g transform="translate(339.027717391 131.975625)scale(0.06 -0.06)">
       <use xlink:href="#BitstreamVeraSans-Roman-31"/>
       <use x="63.623046875" xlink:href="#BitstreamVeraSans-Roman-2e"/>
       <use x="95.41015625" xlink:href="#BitstreamVeraSans-Roman-30"/>
      </g>
     </g>
    </g>
    <g id="text_33">
     <!-- fraction -->
     <g transform="translate(332.363967391 318.485)rotate(-90.0)scale(0.08 -0.08)">
      <use xlink:href="#BitstreamVeraSans-Roman-66"/>
      <use x="35.205078125" xlink:href="#BitstreamVeraSans-Roman-72"/>
      <use x="76.318359375" xlink:href="#BitstreamVeraSans-Roman-61"/>
      <use x="137.59765625" xlink:href="#BitstreamVeraSans-Roman-63"/>
      <use x="192.578125" xlink:href="#BitstreamVeraSans-Roman-74"/>
      <use x="231.787109375" xlink:href="#BitstreamVeraSans-Roman-69"/>
      <use x="259.5703125" xlink:href="#BitstreamVeraSans-Roman-6f"/>
      <use x="320.751953125" xlink:href="#BitstreamVeraSans-Roman-6e"/>
     </g>
    </g>
   </g>
   <g id="text_34">
    <!-- ER_Vinayagam -->
    <defs>
     <path d="M 50.984375 -16.609375 
L 50.984375 -23.578125 
L -0.984375 -23.578125 
L -0.984375 -16.609375 
z
" id="BitstreamVeraSans-Roman-5f"/>
    </defs>
    <g transform="translate(443.951983696 116.36175)scale(0.08 -0.08)">
     <use xlink:href="#BitstreamVeraSans-Roman-45"/>
     <use x="63.18359375" xlink:href="#BitstreamVeraSans-Roman-52"/>
     <use x="132.666015625" xlink:href="#BitstreamVeraSans-Roman-5f"/>
     <use x="182.666015625" xlink:href="#BitstreamVeraSans-Roman-56"/>
     <use x="251.04296875" xlink:href="#BitstreamVeraSans-Roman-69"/>
     <use x="278.826171875" xlink:href="#BitstreamVeraSans-Roman-6e"/>
     <use x="342.205078125" xlink:href="#BitstreamVeraSans-Roman-61"/>
     <use x="403.484375" xlink:href="#BitstreamVeraSans-Roman-79"/>
     <use x="462.6640625" xlink:href="#BitstreamVeraSans-Roman-61"/>
     <use x="523.943359375" xlink:href="#BitstreamVeraSans-Roman-67"/>
     <use x="587.419921875" xlink:href="#BitstreamVeraSans-Roman-61"/>
     <use x="648.69921875" xlink:href="#BitstreamVeraSans-Roman-6d"/>
    </g>
    <!-- [$p=050.0, t=005.0$, V4EB, MINKNAP, 2X, BOTH, REVERSE, 19K instances] -->
    <g transform="translate(329.476983696 125.5425)scale(0.08 -0.08)">
     <use transform="translate(0.0 0.015625)" xlink:href="#BitstreamVeraSans-Roman-5b"/>
     <use transform="translate(39.013671875 0.015625)" xlink:href="#Cmmi10-70"/>
     <use transform="translate(106.865234375 0.015625)" xlink:href="#Cmr10-3d"/>
     <use transform="translate(202.109375 0.015625)" xlink:href="#Cmr10-30"/>
     <use transform="translate(252.109375 0.015625)" xlink:href="#Cmr10-35"/>
     <use transform="translate(302.109375 0.015625)" xlink:href="#Cmr10-30"/>
     <use transform="translate(352.109375 0.015625)" xlink:href="#Cmmi10-3a"/>
     <use transform="translate(397.353515625 0.015625)" xlink:href="#Cmr10-30"/>
     <use transform="translate(447.353515625 0.015625)" xlink:href="#Cmmi10-3b"/>
     <use transform="translate(492.59765625 0.015625)" xlink:href="#Cmmi10-74"/>
     <use transform="translate(546.240234375 0.015625)" xlink:href="#Cmr10-3d"/>
     <use transform="translate(641.484375 0.015625)" xlink:href="#Cmr10-30"/>
     <use transform="translate(691.484375 0.015625)" xlink:href="#Cmr10-30"/>
     <use transform="translate(741.484375 0.015625)" xlink:href="#Cmr10-35"/>
     <use transform="translate(791.484375 0.015625)" xlink:href="#Cmmi10-3a"/>
     <use transform="translate(836.728515625 0.015625)" xlink:href="#Cmr10-30"/>
     <use transform="translate(886.728515625 0.015625)" xlink:href="#BitstreamVeraSans-Roman-2c"/>
     <use transform="translate(918.515625 0.015625)" xlink:href="#BitstreamVeraSans-Roman-20"/>
     <use transform="translate(950.302734375 0.015625)" xlink:href="#BitstreamVeraSans-Roman-56"/>
     <use transform="translate(1018.7109375 0.015625)" xlink:href="#BitstreamVeraSans-Roman-34"/>
     <use transform="translate(1082.333984375 0.015625)" xlink:href="#BitstreamVeraSans-Roman-45"/>
     <use transform="translate(1145.517578125 0.015625)" xlink:href="#BitstreamVeraSans-Roman-42"/>
     <use transform="translate(1214.12109375 0.015625)" xlink:href="#BitstreamVeraSans-Roman-2c"/>
     <use transform="translate(1245.908203125 0.015625)" xlink:href="#BitstreamVeraSans-Roman-20"/>
     <use transform="translate(1277.6953125 0.015625)" xlink:href="#BitstreamVeraSans-Roman-4d"/>
     <use transform="translate(1363.974609375 0.015625)" xlink:href="#BitstreamVeraSans-Roman-49"/>
     <use transform="translate(1393.466796875 0.015625)" xlink:href="#BitstreamVeraSans-Roman-4e"/>
     <use transform="translate(1468.271484375 0.015625)" xlink:href="#BitstreamVeraSans-Roman-4b"/>
     <use transform="translate(1533.84765625 0.015625)" xlink:href="#BitstreamVeraSans-Roman-4e"/>
     <use transform="translate(1608.65234375 0.015625)" xlink:href="#BitstreamVeraSans-Roman-41"/>
     <use transform="translate(1677.060546875 0.015625)" xlink:href="#BitstreamVeraSans-Roman-50"/>
     <use transform="translate(1737.36328125 0.015625)" xlink:href="#BitstreamVeraSans-Roman-2c"/>
     <use transform="translate(1769.150390625 0.015625)" xlink:href="#BitstreamVeraSans-Roman-20"/>
     <use transform="translate(1800.9375 0.015625)" xlink:href="#BitstreamVeraSans-Roman-32"/>
     <use transform="translate(1864.560546875 0.015625)" xlink:href="#BitstreamVeraSans-Roman-58"/>
     <use transform="translate(1933.06640625 0.015625)" xlink:href="#BitstreamVeraSans-Roman-2c"/>
     <use transform="translate(1964.853515625 0.015625)" xlink:href="#BitstreamVeraSans-Roman-20"/>
     <use transform="translate(1996.640625 0.015625)" xlink:href="#BitstreamVeraSans-Roman-42"/>
     <use transform="translate(2065.244140625 0.015625)" xlink:href="#BitstreamVeraSans-Roman-4f"/>
     <use transform="translate(2143.955078125 0.015625)" xlink:href="#BitstreamVeraSans-Roman-54"/>
     <use transform="translate(2205.0390625 0.015625)" xlink:href="#BitstreamVeraSans-Roman-48"/>
     <use transform="translate(2280.234375 0.015625)" xlink:href="#BitstreamVeraSans-Roman-2c"/>
     <use transform="translate(2312.021484375 0.015625)" xlink:href="#BitstreamVeraSans-Roman-20"/>
     <use transform="translate(2343.80859375 0.015625)" xlink:href="#BitstreamVeraSans-Roman-52"/>
     <use transform="translate(2413.291015625 0.015625)" xlink:href="#BitstreamVeraSans-Roman-45"/>
     <use transform="translate(2476.474609375 0.015625)" xlink:href="#BitstreamVeraSans-Roman-56"/>
     <use transform="translate(2544.8828125 0.015625)" xlink:href="#BitstreamVeraSans-Roman-45"/>
     <use transform="translate(2608.06640625 0.015625)" xlink:href="#BitstreamVeraSans-Roman-52"/>
     <use transform="translate(2677.548828125 0.015625)" xlink:href="#BitstreamVeraSans-Roman-53"/>
     <use transform="translate(2741.025390625 0.015625)" xlink:href="#BitstreamVeraSans-Roman-45"/>
     <use transform="translate(2804.208984375 0.015625)" xlink:href="#BitstreamVeraSans-Roman-2c"/>
     <use transform="translate(2835.99609375 0.015625)" xlink:href="#BitstreamVeraSans-Roman-20"/>
     <use transform="translate(2867.783203125 0.015625)" xlink:href="#BitstreamVeraSans-Roman-31"/>
     <use transform="translate(2931.40625 0.015625)" xlink:href="#BitstreamVeraSans-Roman-39"/>
     <use transform="translate(2995.029296875 0.015625)" xlink:href="#BitstreamVeraSans-Roman-4b"/>
     <use transform="translate(3060.60546875 0.015625)" xlink:href="#BitstreamVeraSans-Roman-20"/>
     <use transform="translate(3092.392578125 0.015625)" xlink:href="#BitstreamVeraSans-Roman-69"/>
     <use transform="translate(3120.17578125 0.015625)" xlink:href="#BitstreamVeraSans-Roman-6e"/>
     <use transform="translate(3183.5546875 0.015625)" xlink:href="#BitstreamVeraSans-Roman-73"/>
     <use transform="translate(3235.654296875 0.015625)" xlink:href="#BitstreamVeraSans-Roman-74"/>
     <use transform="translate(3274.86328125 0.015625)" xlink:href="#BitstreamVeraSans-Roman-61"/>
     <use transform="translate(3336.142578125 0.015625)" xlink:href="#BitstreamVeraSans-Roman-6e"/>
     <use transform="translate(3399.521484375 0.015625)" xlink:href="#BitstreamVeraSans-Roman-63"/>
     <use transform="translate(3454.501953125 0.015625)" xlink:href="#BitstreamVeraSans-Roman-65"/>
     <use transform="translate(3516.025390625 0.015625)" xlink:href="#BitstreamVeraSans-Roman-73"/>
     <use transform="translate(3568.125 0.015625)" xlink:href="#BitstreamVeraSans-Roman-5d"/>
    </g>
   </g>
  </g>
  <g id="text_35">
   <!--  -->
   <g transform="translate(311.014375 14.3971875)scale(0.18 -0.18)"/>
   <!-- Instance coresize (Psinger minknap algorithm) -->
   <defs>
    <path d="M 31 75.875 
Q 24.46875 64.65625 21.28125 53.65625 
Q 18.109375 42.671875 18.109375 31.390625 
Q 18.109375 20.125 21.3125 9.0625 
Q 24.515625 -2 31 -13.1875 
L 23.1875 -13.1875 
Q 15.875 -1.703125 12.234375 9.375 
Q 8.59375 20.453125 8.59375 31.390625 
Q 8.59375 42.28125 12.203125 53.3125 
Q 15.828125 64.359375 23.1875 75.875 
z
" id="BitstreamVeraSans-Roman-28"/>
    <path d="M 9.078125 75.984375 
L 18.109375 75.984375 
L 18.109375 31.109375 
L 44.921875 54.6875 
L 56.390625 54.6875 
L 27.390625 29.109375 
L 57.625 0 
L 45.90625 0 
L 18.109375 26.703125 
L 18.109375 0 
L 9.078125 0 
z
" id="BitstreamVeraSans-Roman-6b"/>
    <path d="M 18.109375 8.203125 
L 18.109375 -20.796875 
L 9.078125 -20.796875 
L 9.078125 54.6875 
L 18.109375 54.6875 
L 18.109375 46.390625 
Q 20.953125 51.265625 25.265625 53.625 
Q 29.59375 56 35.59375 56 
Q 45.5625 56 51.78125 48.09375 
Q 58.015625 40.1875 58.015625 27.296875 
Q 58.015625 14.40625 51.78125 6.484375 
Q 45.5625 -1.421875 35.59375 -1.421875 
Q 29.59375 -1.421875 25.265625 0.953125 
Q 20.953125 3.328125 18.109375 8.203125 
M 48.6875 27.296875 
Q 48.6875 37.203125 44.609375 42.84375 
Q 40.53125 48.484375 33.40625 48.484375 
Q 26.265625 48.484375 22.1875 42.84375 
Q 18.109375 37.203125 18.109375 27.296875 
Q 18.109375 17.390625 22.1875 11.75 
Q 26.265625 6.109375 33.40625 6.109375 
Q 40.53125 6.109375 44.609375 11.75 
Q 48.6875 17.390625 48.6875 27.296875 
" id="BitstreamVeraSans-Roman-70"/>
    <path d="M 8.015625 75.875 
L 15.828125 75.875 
Q 23.140625 64.359375 26.78125 53.3125 
Q 30.421875 42.28125 30.421875 31.390625 
Q 30.421875 20.453125 26.78125 9.375 
Q 23.140625 -1.703125 15.828125 -13.1875 
L 8.015625 -13.1875 
Q 14.5 -2 17.703125 9.0625 
Q 20.90625 20.125 20.90625 31.390625 
Q 20.90625 42.671875 17.703125 53.65625 
Q 14.5 64.65625 8.015625 75.875 
" id="BitstreamVeraSans-Roman-29"/>
    <path d="M 54.890625 33.015625 
L 54.890625 0 
L 45.90625 0 
L 45.90625 32.71875 
Q 45.90625 40.484375 42.875 44.328125 
Q 39.84375 48.1875 33.796875 48.1875 
Q 26.515625 48.1875 22.3125 43.546875 
Q 18.109375 38.921875 18.109375 30.90625 
L 18.109375 0 
L 9.078125 0 
L 9.078125 75.984375 
L 18.109375 75.984375 
L 18.109375 46.1875 
Q 21.34375 51.125 25.703125 53.5625 
Q 30.078125 56 35.796875 56 
Q 45.21875 56 50.046875 50.171875 
Q 54.890625 44.34375 54.890625 33.015625 
" id="BitstreamVeraSans-Roman-68"/>
    <path d="M 9.421875 75.984375 
L 18.40625 75.984375 
L 18.40625 0 
L 9.421875 0 
z
" id="BitstreamVeraSans-Roman-6c"/>
   </defs>
   <g transform="translate(101.31015625 34.55325)scale(0.18 -0.18)">
    <use xlink:href="#BitstreamVeraSans-Roman-49"/>
    <use x="29.4921875" xlink:href="#BitstreamVeraSans-Roman-6e"/>
    <use x="92.87109375" xlink:href="#BitstreamVeraSans-Roman-73"/>
    <use x="144.970703125" xlink:href="#BitstreamVeraSans-Roman-74"/>
    <use x="184.1796875" xlink:href="#BitstreamVeraSans-Roman-61"/>
    <use x="245.458984375" xlink:href="#BitstreamVeraSans-Roman-6e"/>
    <use x="308.837890625" xlink:href="#BitstreamVeraSans-Roman-63"/>
    <use x="363.818359375" xlink:href="#BitstreamVeraSans-Roman-65"/>
    <use x="425.341796875" xlink:href="#BitstreamVeraSans-Roman-20"/>
    <use x="457.12890625" xlink:href="#BitstreamVeraSans-Roman-63"/>
    <use x="512.109375" xlink:href="#BitstreamVeraSans-Roman-6f"/>
    <use x="573.291015625" xlink:href="#BitstreamVeraSans-Roman-72"/>
    <use x="614.373046875" xlink:href="#BitstreamVeraSans-Roman-65"/>
    <use x="675.896484375" xlink:href="#BitstreamVeraSans-Roman-73"/>
    <use x="727.99609375" xlink:href="#BitstreamVeraSans-Roman-69"/>
    <use x="755.779296875" xlink:href="#BitstreamVeraSans-Roman-7a"/>
    <use x="808.26953125" xlink:href="#BitstreamVeraSans-Roman-65"/>
    <use x="869.79296875" xlink:href="#BitstreamVeraSans-Roman-20"/>
    <use x="901.580078125" xlink:href="#BitstreamVeraSans-Roman-28"/>
    <use x="940.59375" xlink:href="#BitstreamVeraSans-Roman-50"/>
    <use x="1000.880859375" xlink:href="#BitstreamVeraSans-Roman-73"/>
    <use x="1052.98046875" xlink:href="#BitstreamVeraSans-Roman-69"/>
    <use x="1080.763671875" xlink:href="#BitstreamVeraSans-Roman-6e"/>
    <use x="1144.142578125" xlink:href="#BitstreamVeraSans-Roman-67"/>
    <use x="1207.619140625" xlink:href="#BitstreamVeraSans-Roman-65"/>
    <use x="1269.142578125" xlink:href="#BitstreamVeraSans-Roman-72"/>
    <use x="1310.255859375" xlink:href="#BitstreamVeraSans-Roman-20"/>
    <use x="1342.04296875" xlink:href="#BitstreamVeraSans-Roman-6d"/>
    <use x="1439.455078125" xlink:href="#BitstreamVeraSans-Roman-69"/>
    <use x="1467.23828125" xlink:href="#BitstreamVeraSans-Roman-6e"/>
    <use x="1530.6171875" xlink:href="#BitstreamVeraSans-Roman-6b"/>
    <use x="1588.52734375" xlink:href="#BitstreamVeraSans-Roman-6e"/>
    <use x="1651.90625" xlink:href="#BitstreamVeraSans-Roman-61"/>
    <use x="1713.185546875" xlink:href="#BitstreamVeraSans-Roman-70"/>
    <use x="1776.662109375" xlink:href="#BitstreamVeraSans-Roman-20"/>
    <use x="1808.44921875" xlink:href="#BitstreamVeraSans-Roman-61"/>
    <use x="1869.728515625" xlink:href="#BitstreamVeraSans-Roman-6c"/>
    <use x="1897.51171875" xlink:href="#BitstreamVeraSans-Roman-67"/>
    <use x="1960.98828125" xlink:href="#BitstreamVeraSans-Roman-6f"/>
    <use x="2022.169921875" xlink:href="#BitstreamVeraSans-Roman-72"/>
    <use x="2063.283203125" xlink:href="#BitstreamVeraSans-Roman-69"/>
    <use x="2091.06640625" xlink:href="#BitstreamVeraSans-Roman-74"/>
    <use x="2130.275390625" xlink:href="#BitstreamVeraSans-Roman-68"/>
    <use x="2193.654296875" xlink:href="#BitstreamVeraSans-Roman-6d"/>
    <use x="2291.06640625" xlink:href="#BitstreamVeraSans-Roman-29"/>
   </g>
  </g>
 </g>
 <defs>
  <clipPath id="p15026d237b">
   <rect height="345.6" width="250.434782609" x="23.014375" y="130.32"/>
  </clipPath>
  <clipPath id="p6feccec10e">
   <rect height="345.6" width="250.434782609" x="348.579592391" y="130.32"/>
  </clipPath>
 </defs>
</svg>
