<?xml version="1.0" encoding="utf-8" standalone="no"?>
<!DOCTYPE svg PUBLIC "-//W3C//DTD SVG 1.1//EN"
  "http://www.w3.org/Graphics/SVG/1.1/DTD/svg11.dtd">
<!-- Created with matplotlib (http://matplotlib.org/) -->
<svg height="504pt" version="1.1" viewBox="0 0 653 504" width="653pt" xmlns="http://www.w3.org/2000/svg" xmlns:xlink="http://www.w3.org/1999/xlink">
 <defs>
  <style type="text/css">
*{stroke-linecap:butt;stroke-linejoin:round;stroke-miterlimit:100000;}
  </style>
 </defs>
 <g id="figure_1">
  <g id="patch_1">
   <path d="M 0 504.40575 
L 653.872211 504.40575 
L 653.872211 -0 
L 0 -0 
z
" style="fill:#ffffff;"/>
  </g>
  <g id="axes_1">
   <g id="patch_2">
    <path d="M 148.599701 100.08 
C 135.972013 100.08 123.498048 102.862271 112.067259 108.228424 
C 100.636471 113.594577 90.527165 121.413962 82.460184 131.129018 
C 74.393203 140.844075 68.564953 152.218272 65.391017 164.440573 
C 62.217082 176.662874 61.774735 189.435704 64.09552 201.848297 
L 148.599701 186.048536 
L 148.599701 100.08 
z
" style="fill:#0cc406;"/>
   </g>
   <g id="patch_3">
    <path d="M 64.09552 201.848297 
C 67.781662 221.563432 78.253487 239.380266 93.685014 252.192064 
C 109.116541 265.003861 128.555484 272.02 148.612258 272.017071 
C 168.669031 272.014141 188.105924 264.992324 203.533708 252.176019 
C 218.961492 239.359715 229.428112 221.539822 233.108495 201.823612 
L 148.599701 186.048536 
L 64.09552 201.848297 
z
" style="fill:#929999;"/>
   </g>
   <g id="patch_4">
    <path d="M 233.108495 201.823612 
C 235.425265 189.412423 234.97973 176.6419 231.803649 164.422344 
C 228.627569 152.202788 222.798244 140.831608 214.731197 131.119359 
C 206.66415 121.407109 196.555723 113.590174 185.12646 108.225756 
C 173.697197 102.861338 161.225272 100.08 148.599701 100.08 
L 148.599701 186.048536 
L 233.108495 201.823612 
z
" style="fill:#e72929;"/>
   </g>
   <g id="matplotlib.axis_1">
    <g id="text_1">
     <!-- Vinayagam -->
     <defs>
      <path d="M 28.609375 0 
L 0.78125 72.90625 
L 11.078125 72.90625 
L 34.1875 11.53125 
L 57.328125 72.90625 
L 67.578125 72.90625 
L 39.796875 0 
z
" id="BitstreamVeraSans-Roman-56"/>
      <path d="M 32.171875 -5.078125 
Q 28.375 -14.84375 24.75 -17.8125 
Q 21.140625 -20.796875 15.09375 -20.796875 
L 7.90625 -20.796875 
L 7.90625 -13.28125 
L 13.1875 -13.28125 
Q 16.890625 -13.28125 18.9375 -11.515625 
Q 21 -9.765625 23.484375 -3.21875 
L 25.09375 0.875 
L 2.984375 54.6875 
L 12.5 54.6875 
L 29.59375 11.921875 
L 46.6875 54.6875 
L 56.203125 54.6875 
z
" id="BitstreamVeraSans-Roman-79"/>
      <path d="M 34.28125 27.484375 
Q 23.390625 27.484375 19.1875 25 
Q 14.984375 22.515625 14.984375 16.5 
Q 14.984375 11.71875 18.140625 8.90625 
Q 21.296875 6.109375 26.703125 6.109375 
Q 34.1875 6.109375 38.703125 11.40625 
Q 43.21875 16.703125 43.21875 25.484375 
L 43.21875 27.484375 
z
M 52.203125 31.203125 
L 52.203125 0 
L 43.21875 0 
L 43.21875 8.296875 
Q 40.140625 3.328125 35.546875 0.953125 
Q 30.953125 -1.421875 24.3125 -1.421875 
Q 15.921875 -1.421875 10.953125 3.296875 
Q 6 8.015625 6 15.921875 
Q 6 25.140625 12.171875 29.828125 
Q 18.359375 34.515625 30.609375 34.515625 
L 43.21875 34.515625 
L 43.21875 35.40625 
Q 43.21875 41.609375 39.140625 45 
Q 35.0625 48.390625 27.6875 48.390625 
Q 23 48.390625 18.546875 47.265625 
Q 14.109375 46.140625 10.015625 43.890625 
L 10.015625 52.203125 
Q 14.9375 54.109375 19.578125 55.046875 
Q 24.21875 56 28.609375 56 
Q 40.484375 56 46.34375 49.84375 
Q 52.203125 43.703125 52.203125 31.203125 
" id="BitstreamVeraSans-Roman-61"/>
      <path d="M 45.40625 27.984375 
Q 45.40625 37.75 41.375 43.109375 
Q 37.359375 48.484375 30.078125 48.484375 
Q 22.859375 48.484375 18.828125 43.109375 
Q 14.796875 37.75 14.796875 27.984375 
Q 14.796875 18.265625 18.828125 12.890625 
Q 22.859375 7.515625 30.078125 7.515625 
Q 37.359375 7.515625 41.375 12.890625 
Q 45.40625 18.265625 45.40625 27.984375 
M 54.390625 6.78125 
Q 54.390625 -7.171875 48.1875 -13.984375 
Q 42 -20.796875 29.203125 -20.796875 
Q 24.46875 -20.796875 20.265625 -20.09375 
Q 16.0625 -19.390625 12.109375 -17.921875 
L 12.109375 -9.1875 
Q 16.0625 -11.328125 19.921875 -12.34375 
Q 23.78125 -13.375 27.78125 -13.375 
Q 36.625 -13.375 41.015625 -8.765625 
Q 45.40625 -4.15625 45.40625 5.171875 
L 45.40625 9.625 
Q 42.625 4.78125 38.28125 2.390625 
Q 33.9375 0 27.875 0 
Q 17.828125 0 11.671875 7.65625 
Q 5.515625 15.328125 5.515625 27.984375 
Q 5.515625 40.671875 11.671875 48.328125 
Q 17.828125 56 27.875 56 
Q 33.9375 56 38.28125 53.609375 
Q 42.625 51.21875 45.40625 46.390625 
L 45.40625 54.6875 
L 54.390625 54.6875 
z
" id="BitstreamVeraSans-Roman-67"/>
      <path d="M 52 44.1875 
Q 55.375 50.25 60.0625 53.125 
Q 64.75 56 71.09375 56 
Q 79.640625 56 84.28125 50.015625 
Q 88.921875 44.046875 88.921875 33.015625 
L 88.921875 0 
L 79.890625 0 
L 79.890625 32.71875 
Q 79.890625 40.578125 77.09375 44.375 
Q 74.3125 48.1875 68.609375 48.1875 
Q 61.625 48.1875 57.5625 43.546875 
Q 53.515625 38.921875 53.515625 30.90625 
L 53.515625 0 
L 44.484375 0 
L 44.484375 32.71875 
Q 44.484375 40.625 41.703125 44.40625 
Q 38.921875 48.1875 33.109375 48.1875 
Q 26.21875 48.1875 22.15625 43.53125 
Q 18.109375 38.875 18.109375 30.90625 
L 18.109375 0 
L 9.078125 0 
L 9.078125 54.6875 
L 18.109375 54.6875 
L 18.109375 46.1875 
Q 21.1875 51.21875 25.484375 53.609375 
Q 29.78125 56 35.6875 56 
Q 41.65625 56 45.828125 52.96875 
Q 50 49.953125 52 44.1875 
" id="BitstreamVeraSans-Roman-6d"/>
      <path d="M 54.890625 33.015625 
L 54.890625 0 
L 45.90625 0 
L 45.90625 32.71875 
Q 45.90625 40.484375 42.875 44.328125 
Q 39.84375 48.1875 33.796875 48.1875 
Q 26.515625 48.1875 22.3125 43.546875 
Q 18.109375 38.921875 18.109375 30.90625 
L 18.109375 0 
L 9.078125 0 
L 9.078125 54.6875 
L 18.109375 54.6875 
L 18.109375 46.1875 
Q 21.34375 51.125 25.703125 53.5625 
Q 30.078125 56 35.796875 56 
Q 45.21875 56 50.046875 50.171875 
Q 54.890625 44.34375 54.890625 33.015625 
" id="BitstreamVeraSans-Roman-6e"/>
      <path d="M 9.421875 54.6875 
L 18.40625 54.6875 
L 18.40625 0 
L 9.421875 0 
z
M 9.421875 75.984375 
L 18.40625 75.984375 
L 18.40625 64.59375 
L 9.421875 64.59375 
z
" id="BitstreamVeraSans-Roman-69"/>
     </defs>
     <g transform="translate(126.061875 283.09875)scale(0.08 -0.08)">
      <use xlink:href="#BitstreamVeraSans-Roman-56"/>
      <use x="68.376953125" xlink:href="#BitstreamVeraSans-Roman-69"/>
      <use x="96.16015625" xlink:href="#BitstreamVeraSans-Roman-6e"/>
      <use x="159.5390625" xlink:href="#BitstreamVeraSans-Roman-61"/>
      <use x="220.818359375" xlink:href="#BitstreamVeraSans-Roman-79"/>
      <use x="279.998046875" xlink:href="#BitstreamVeraSans-Roman-61"/>
      <use x="341.27734375" xlink:href="#BitstreamVeraSans-Roman-67"/>
      <use x="404.75390625" xlink:href="#BitstreamVeraSans-Roman-61"/>
      <use x="466.033203125" xlink:href="#BitstreamVeraSans-Roman-6d"/>
     </g>
     <!-- [$p=100.0, t=000.1$, V4EU, MINKNAP, 4X, BOTH, REVERSE, 37K instances] -->
     <defs>
      <path d="M 8.6875 72.90625 
L 18.609375 72.90625 
L 18.609375 28.609375 
Q 18.609375 16.890625 22.84375 11.734375 
Q 27.09375 6.59375 36.625 6.59375 
Q 46.09375 6.59375 50.34375 11.734375 
Q 54.59375 16.890625 54.59375 28.609375 
L 54.59375 72.90625 
L 64.5 72.90625 
L 64.5 27.390625 
Q 64.5 13.140625 57.4375 5.859375 
Q 50.390625 -1.421875 36.625 -1.421875 
Q 22.796875 -1.421875 15.734375 5.859375 
Q 8.6875 13.140625 8.6875 27.390625 
z
" id="BitstreamVeraSans-Roman-55"/>
      <path d="M 44.390625 34.1875 
Q 47.5625 33.109375 50.5625 29.59375 
Q 53.5625 26.078125 56.59375 19.921875 
L 66.609375 0 
L 56 0 
L 46.6875 18.703125 
Q 43.0625 26.03125 39.671875 28.421875 
Q 36.28125 30.8125 30.421875 30.8125 
L 19.671875 30.8125 
L 19.671875 0 
L 9.8125 0 
L 9.8125 72.90625 
L 32.078125 72.90625 
Q 44.578125 72.90625 50.734375 67.671875 
Q 56.890625 62.453125 56.890625 51.90625 
Q 56.890625 45.015625 53.6875 40.46875 
Q 50.484375 35.9375 44.390625 34.1875 
M 19.671875 64.796875 
L 19.671875 38.921875 
L 32.078125 38.921875 
Q 39.203125 38.921875 42.84375 42.21875 
Q 46.484375 45.515625 46.484375 51.90625 
Q 46.484375 58.296875 42.84375 61.546875 
Q 39.203125 64.796875 32.078125 64.796875 
z
" id="BitstreamVeraSans-Roman-52"/>
      <path d="M 19.671875 34.8125 
L 19.671875 8.109375 
L 35.5 8.109375 
Q 43.453125 8.109375 47.28125 11.40625 
Q 51.125 14.703125 51.125 21.484375 
Q 51.125 28.328125 47.28125 31.5625 
Q 43.453125 34.8125 35.5 34.8125 
z
M 19.671875 64.796875 
L 19.671875 42.828125 
L 34.28125 42.828125 
Q 41.5 42.828125 45.03125 45.53125 
Q 48.578125 48.25 48.578125 53.8125 
Q 48.578125 59.328125 45.03125 62.0625 
Q 41.5 64.796875 34.28125 64.796875 
z
M 9.8125 72.90625 
L 35.015625 72.90625 
Q 46.296875 72.90625 52.390625 68.21875 
Q 58.5 63.53125 58.5 54.890625 
Q 58.5 48.1875 55.375 44.234375 
Q 52.25 40.28125 46.1875 39.3125 
Q 53.46875 37.75 57.5 32.78125 
Q 61.53125 27.828125 61.53125 20.40625 
Q 61.53125 10.640625 54.890625 5.3125 
Q 48.25 0 35.984375 0 
L 9.8125 0 
z
" id="BitstreamVeraSans-Roman-42"/>
      <path id="BitstreamVeraSans-Roman-20"/>
      <path d="M 53.515625 70.515625 
L 53.515625 60.890625 
Q 47.90625 63.578125 42.921875 64.890625 
Q 37.9375 66.21875 33.296875 66.21875 
Q 25.25 66.21875 20.875 63.09375 
Q 16.5 59.96875 16.5 54.203125 
Q 16.5 49.359375 19.40625 46.890625 
Q 22.3125 44.4375 30.421875 42.921875 
L 36.375 41.703125 
Q 47.40625 39.59375 52.65625 34.296875 
Q 57.90625 29 57.90625 20.125 
Q 57.90625 9.515625 50.796875 4.046875 
Q 43.703125 -1.421875 29.984375 -1.421875 
Q 24.8125 -1.421875 18.96875 -0.25 
Q 13.140625 0.921875 6.890625 3.21875 
L 6.890625 13.375 
Q 12.890625 10.015625 18.65625 8.296875 
Q 24.421875 6.59375 29.984375 6.59375 
Q 38.421875 6.59375 43.015625 9.90625 
Q 47.609375 13.234375 47.609375 19.390625 
Q 47.609375 24.75 44.3125 27.78125 
Q 41.015625 30.8125 33.5 32.328125 
L 27.484375 33.5 
Q 16.453125 35.6875 11.515625 40.375 
Q 6.59375 45.0625 6.59375 53.421875 
Q 6.59375 63.09375 13.40625 68.65625 
Q 20.21875 74.21875 32.171875 74.21875 
Q 37.3125 74.21875 42.625 73.28125 
Q 47.953125 72.359375 53.515625 70.515625 
" id="BitstreamVeraSans-Roman-53"/>
      <path d="M 6.203125 8.109375 
Q 6.203125 9.578125 6.5 10.890625 
L 13.71875 39.59375 
L 3.21875 39.59375 
Q 2.203125 39.59375 2.203125 40.921875 
Q 2.59375 43.109375 3.515625 43.109375 
L 14.59375 43.109375 
L 18.609375 59.421875 
Q 19 60.75 20.171875 61.671875 
Q 21.34375 62.59375 22.796875 62.59375 
Q 24.078125 62.59375 24.921875 61.828125 
Q 25.78125 61.078125 25.78125 59.8125 
Q 25.78125 59.515625 25.75 59.34375 
Q 25.734375 59.1875 25.6875 58.984375 
L 21.6875 43.109375 
L 31.984375 43.109375 
Q 33.015625 43.109375 33.015625 41.796875 
Q 32.953125 41.546875 32.8125 40.953125 
Q 32.671875 40.375 32.421875 39.984375 
Q 32.171875 39.59375 31.6875 39.59375 
L 20.796875 39.59375 
L 13.625 10.6875 
Q 12.890625 7.859375 12.890625 5.8125 
Q 12.890625 1.515625 15.828125 1.515625 
Q 20.21875 1.515625 23.609375 5.640625 
Q 27 9.765625 28.8125 14.703125 
Q 29.203125 15.28125 29.59375 15.28125 
L 30.8125 15.28125 
Q 31.203125 15.28125 31.4375 15.015625 
Q 31.6875 14.75 31.6875 14.40625 
Q 31.6875 14.203125 31.59375 14.109375 
Q 29.390625 8.0625 25.1875 3.46875 
Q 21 -1.125 15.578125 -1.125 
Q 11.625 -1.125 8.90625 1.453125 
Q 6.203125 4.046875 6.203125 8.109375 
" id="Cmmi10-74"/>
      <path d="M 7.515625 13.28125 
Q 6.6875 13.28125 6.140625 13.90625 
Q 5.609375 14.546875 5.609375 15.28125 
Q 5.609375 16.109375 6.140625 16.6875 
Q 6.6875 17.28125 7.515625 17.28125 
L 70.3125 17.28125 
Q 71.046875 17.28125 71.578125 16.6875 
Q 72.125 16.109375 72.125 15.28125 
Q 72.125 14.546875 71.578125 13.90625 
Q 71.046875 13.28125 70.3125 13.28125 
z
M 7.515625 32.71875 
Q 6.6875 32.71875 6.140625 33.296875 
Q 5.609375 33.890625 5.609375 34.71875 
Q 5.609375 35.453125 6.140625 36.078125 
Q 6.6875 36.71875 7.515625 36.71875 
L 70.3125 36.71875 
Q 71.046875 36.71875 71.578125 36.078125 
Q 72.125 35.453125 72.125 34.71875 
Q 72.125 33.890625 71.578125 33.296875 
Q 71.046875 32.71875 70.3125 32.71875 
z
" id="Cmr10-3d"/>
      <path d="M 40.578125 39.3125 
Q 47.65625 37.796875 51.625 33 
Q 55.609375 28.21875 55.609375 21.1875 
Q 55.609375 10.40625 48.1875 4.484375 
Q 40.765625 -1.421875 27.09375 -1.421875 
Q 22.515625 -1.421875 17.65625 -0.515625 
Q 12.796875 0.390625 7.625 2.203125 
L 7.625 11.71875 
Q 11.71875 9.328125 16.59375 8.109375 
Q 21.484375 6.890625 26.8125 6.890625 
Q 36.078125 6.890625 40.9375 10.546875 
Q 45.796875 14.203125 45.796875 21.1875 
Q 45.796875 27.640625 41.28125 31.265625 
Q 36.765625 34.90625 28.71875 34.90625 
L 20.21875 34.90625 
L 20.21875 43.015625 
L 29.109375 43.015625 
Q 36.375 43.015625 40.234375 45.921875 
Q 44.09375 48.828125 44.09375 54.296875 
Q 44.09375 59.90625 40.109375 62.90625 
Q 36.140625 65.921875 28.71875 65.921875 
Q 24.65625 65.921875 20.015625 65.03125 
Q 15.375 64.15625 9.8125 62.3125 
L 9.8125 71.09375 
Q 15.4375 72.65625 20.34375 73.4375 
Q 25.25 74.21875 29.59375 74.21875 
Q 40.828125 74.21875 47.359375 69.109375 
Q 53.90625 64.015625 53.90625 55.328125 
Q 53.90625 49.265625 50.4375 45.09375 
Q 46.96875 40.921875 40.578125 39.3125 
" id="BitstreamVeraSans-Roman-33"/>
      <path d="M 9.90625 -18.015625 
Q 9.90625 -17.578125 10.296875 -17.1875 
Q 13.921875 -13.71875 15.921875 -9.171875 
Q 17.921875 -4.640625 17.921875 0.390625 
L 17.921875 1.609375 
Q 16.3125 0 13.921875 0 
Q 11.625 0 10.015625 1.609375 
Q 8.40625 3.21875 8.40625 5.515625 
Q 8.40625 7.859375 10.015625 9.421875 
Q 11.625 10.984375 13.921875 10.984375 
Q 17.484375 10.984375 19 7.6875 
Q 20.515625 4.390625 20.515625 0.390625 
Q 20.515625 -5.171875 18.28125 -10.171875 
Q 16.0625 -15.1875 12.015625 -19.1875 
Q 11.625 -19.390625 11.375 -19.390625 
Q 10.890625 -19.390625 10.390625 -18.9375 
Q 9.90625 -18.5 9.90625 -18.015625 
" id="Cmmi10-3b"/>
      <path d="M 25 -2.203125 
Q 12.75 -2.203125 8.328125 7.875 
Q 3.90625 17.96875 3.90625 31.890625 
Q 3.90625 40.578125 5.484375 48.234375 
Q 7.078125 55.90625 11.78125 61.25 
Q 16.5 66.609375 25 66.609375 
Q 31.59375 66.609375 35.78125 63.375 
Q 39.984375 60.15625 42.1875 55.046875 
Q 44.390625 49.953125 45.1875 44.109375 
Q 46 38.28125 46 31.890625 
Q 46 23.296875 44.40625 15.796875 
Q 42.828125 8.296875 38.1875 3.046875 
Q 33.546875 -2.203125 25 -2.203125 
M 25 0.390625 
Q 30.5625 0.390625 33.296875 6.09375 
Q 36.03125 11.8125 36.671875 18.75 
Q 37.3125 25.6875 37.3125 33.5 
Q 37.3125 41.015625 36.671875 47.359375 
Q 36.03125 53.71875 33.3125 58.859375 
Q 30.609375 64.015625 25 64.015625 
Q 19.34375 64.015625 16.609375 58.828125 
Q 13.875 53.65625 13.234375 47.328125 
Q 12.59375 41.015625 12.59375 33.5 
Q 12.59375 27.9375 12.859375 23 
Q 13.140625 18.0625 14.3125 12.8125 
Q 15.484375 7.5625 18.09375 3.96875 
Q 20.703125 0.390625 25 0.390625 
" id="Cmr10-30"/>
      <path d="M 9.8125 72.90625 
L 19.671875 72.90625 
L 19.671875 43.015625 
L 55.515625 43.015625 
L 55.515625 72.90625 
L 65.375 72.90625 
L 65.375 0 
L 55.515625 0 
L 55.515625 34.71875 
L 19.671875 34.71875 
L 19.671875 0 
L 9.8125 0 
z
" id="BitstreamVeraSans-Roman-48"/>
      <path d="M 8.203125 72.90625 
L 55.078125 72.90625 
L 55.078125 68.703125 
L 28.609375 0 
L 18.3125 0 
L 43.21875 64.59375 
L 8.203125 64.59375 
z
" id="BitstreamVeraSans-Roman-37"/>
      <path d="M 37.796875 64.3125 
L 12.890625 25.390625 
L 37.796875 25.390625 
z
M 35.203125 72.90625 
L 47.609375 72.90625 
L 47.609375 25.390625 
L 58.015625 25.390625 
L 58.015625 17.1875 
L 47.609375 17.1875 
L 47.609375 0 
L 37.796875 0 
L 37.796875 17.1875 
L 4.890625 17.1875 
L 4.890625 26.703125 
z
" id="BitstreamVeraSans-Roman-34"/>
      <path d="M 8.40625 5.515625 
Q 8.40625 7.765625 10.0625 9.375 
Q 11.71875 10.984375 13.921875 10.984375 
Q 15.28125 10.984375 16.59375 10.25 
Q 17.921875 9.515625 18.65625 8.203125 
Q 19.390625 6.890625 19.390625 5.515625 
Q 19.390625 3.328125 17.765625 1.65625 
Q 16.15625 0 13.921875 0 
Q 11.71875 0 10.0625 1.65625 
Q 8.40625 3.328125 8.40625 5.515625 
" id="Cmmi10-3a"/>
      <path d="M -2.484375 -19.390625 
Q -3.421875 -19.390625 -3.421875 -18.109375 
Q -3.078125 -15.921875 -2.09375 -15.921875 
Q 1.03125 -15.921875 2.265625 -15.359375 
Q 3.515625 -14.796875 4.203125 -12.5 
L 15.484375 32.515625 
Q 16.21875 34.375 16.21875 37.3125 
Q 16.21875 41.609375 13.28125 41.609375 
Q 10.15625 41.609375 8.640625 37.859375 
Q 7.125 34.125 5.71875 28.421875 
Q 5.71875 27.78125 4.890625 27.78125 
L 3.71875 27.78125 
Q 3.46875 27.78125 3.171875 28.140625 
Q 2.875 28.515625 2.875 28.8125 
Q 3.953125 33.15625 4.953125 36.171875 
Q 5.953125 39.203125 8.078125 41.6875 
Q 10.203125 44.1875 13.375 44.1875 
Q 16.796875 44.1875 19.375 42.25 
Q 21.96875 40.328125 22.703125 37.015625 
Q 25.4375 40.1875 28.75 42.1875 
Q 32.078125 44.1875 35.59375 44.1875 
Q 39.796875 44.1875 42.890625 41.9375 
Q 46 39.703125 47.5625 36.0625 
Q 49.125 32.421875 49.125 28.21875 
Q 49.125 21.78125 45.828125 14.890625 
Q 42.53125 8.015625 36.890625 3.4375 
Q 31.25 -1.125 24.8125 -1.125 
Q 21.875 -1.125 19.5 0.53125 
Q 17.140625 2.203125 15.828125 4.890625 
L 11.28125 -12.890625 
Q 11.03125 -14.359375 10.984375 -14.59375 
Q 10.984375 -15.921875 17.578125 -15.921875 
Q 18.609375 -15.921875 18.609375 -17.1875 
Q 18.265625 -18.5 18.046875 -18.9375 
Q 17.828125 -19.390625 16.890625 -19.390625 
z
M 24.90625 1.515625 
Q 28.375 1.515625 31.34375 4.375 
Q 34.328125 7.234375 36.1875 10.796875 
Q 37.546875 13.484375 38.734375 17.359375 
Q 39.9375 21.234375 40.8125 25.625 
Q 41.703125 30.03125 41.703125 32.625 
Q 41.703125 34.90625 41.09375 36.90625 
Q 40.484375 38.921875 39.09375 40.265625 
Q 37.703125 41.609375 35.40625 41.609375 
Q 31.734375 41.609375 28.484375 38.984375 
Q 25.25 36.375 22.609375 32.515625 
L 22.609375 32.171875 
L 17.09375 10.109375 
Q 17.78125 6.546875 19.734375 4.03125 
Q 21.6875 1.515625 24.90625 1.515625 
" id="Cmmi10-70"/>
      <path d="M 18.3125 70.21875 
L 18.3125 54.6875 
L 36.8125 54.6875 
L 36.8125 47.703125 
L 18.3125 47.703125 
L 18.3125 18.015625 
Q 18.3125 11.328125 20.140625 9.421875 
Q 21.96875 7.515625 27.59375 7.515625 
L 36.8125 7.515625 
L 36.8125 0 
L 27.59375 0 
Q 17.1875 0 13.234375 3.875 
Q 9.28125 7.765625 9.28125 18.015625 
L 9.28125 47.703125 
L 2.6875 47.703125 
L 2.6875 54.6875 
L 9.28125 54.6875 
L 9.28125 70.21875 
z
" id="BitstreamVeraSans-Roman-74"/>
      <path d="M 8.59375 75.984375 
L 29.296875 75.984375 
L 29.296875 69 
L 17.578125 69 
L 17.578125 -6.203125 
L 29.296875 -6.203125 
L 29.296875 -13.1875 
L 8.59375 -13.1875 
z
" id="BitstreamVeraSans-Roman-5b"/>
      <path d="M -0.296875 72.90625 
L 61.375 72.90625 
L 61.375 64.59375 
L 35.5 64.59375 
L 35.5 0 
L 25.59375 0 
L 25.59375 64.59375 
L -0.296875 64.59375 
z
" id="BitstreamVeraSans-Roman-54"/>
      <path d="M 48.78125 52.59375 
L 48.78125 44.1875 
Q 44.96875 46.296875 41.140625 47.34375 
Q 37.3125 48.390625 33.40625 48.390625 
Q 24.65625 48.390625 19.8125 42.84375 
Q 14.984375 37.3125 14.984375 27.296875 
Q 14.984375 17.28125 19.8125 11.734375 
Q 24.65625 6.203125 33.40625 6.203125 
Q 37.3125 6.203125 41.140625 7.25 
Q 44.96875 8.296875 48.78125 10.40625 
L 48.78125 2.09375 
Q 45.015625 0.34375 40.984375 -0.53125 
Q 36.96875 -1.421875 32.421875 -1.421875 
Q 20.0625 -1.421875 12.78125 6.34375 
Q 5.515625 14.109375 5.515625 27.296875 
Q 5.515625 40.671875 12.859375 48.328125 
Q 20.21875 56 33.015625 56 
Q 37.15625 56 41.109375 55.140625 
Q 45.0625 54.296875 48.78125 52.59375 
" id="BitstreamVeraSans-Roman-63"/>
      <path d="M 11.71875 12.40625 
L 22.015625 12.40625 
L 22.015625 4 
L 14.015625 -11.625 
L 7.71875 -11.625 
L 11.71875 4 
z
" id="BitstreamVeraSans-Roman-2c"/>
      <path d="M 44.28125 53.078125 
L 44.28125 44.578125 
Q 40.484375 46.53125 36.375 47.5 
Q 32.28125 48.484375 27.875 48.484375 
Q 21.1875 48.484375 17.84375 46.4375 
Q 14.5 44.390625 14.5 40.28125 
Q 14.5 37.15625 16.890625 35.375 
Q 19.28125 33.59375 26.515625 31.984375 
L 29.59375 31.296875 
Q 39.15625 29.25 43.1875 25.515625 
Q 47.21875 21.78125 47.21875 15.09375 
Q 47.21875 7.46875 41.1875 3.015625 
Q 35.15625 -1.421875 24.609375 -1.421875 
Q 20.21875 -1.421875 15.453125 -0.5625 
Q 10.6875 0.296875 5.421875 2 
L 5.421875 11.28125 
Q 10.40625 8.6875 15.234375 7.390625 
Q 20.0625 6.109375 24.8125 6.109375 
Q 31.15625 6.109375 34.5625 8.28125 
Q 37.984375 10.453125 37.984375 14.40625 
Q 37.984375 18.0625 35.515625 20.015625 
Q 33.0625 21.96875 24.703125 23.78125 
L 21.578125 24.515625 
Q 13.234375 26.265625 9.515625 29.90625 
Q 5.8125 33.546875 5.8125 39.890625 
Q 5.8125 47.609375 11.28125 51.796875 
Q 16.75 56 26.8125 56 
Q 31.78125 56 36.171875 55.265625 
Q 40.578125 54.546875 44.28125 53.078125 
" id="BitstreamVeraSans-Roman-73"/>
      <path d="M 9.8125 72.90625 
L 55.90625 72.90625 
L 55.90625 64.59375 
L 19.671875 64.59375 
L 19.671875 43.015625 
L 54.390625 43.015625 
L 54.390625 34.71875 
L 19.671875 34.71875 
L 19.671875 8.296875 
L 56.78125 8.296875 
L 56.78125 0 
L 9.8125 0 
z
" id="BitstreamVeraSans-Roman-45"/>
      <path d="M 30.421875 75.984375 
L 30.421875 -13.1875 
L 9.71875 -13.1875 
L 9.71875 -6.203125 
L 21.390625 -6.203125 
L 21.390625 69 
L 9.71875 69 
L 9.71875 75.984375 
z
" id="BitstreamVeraSans-Roman-5d"/>
      <path d="M 34.1875 63.1875 
L 20.796875 26.90625 
L 47.609375 26.90625 
z
M 28.609375 72.90625 
L 39.796875 72.90625 
L 67.578125 0 
L 57.328125 0 
L 50.6875 18.703125 
L 17.828125 18.703125 
L 11.1875 0 
L 0.78125 0 
z
" id="BitstreamVeraSans-Roman-41"/>
      <path d="M 9.28125 0 
L 9.28125 3.515625 
Q 21.78125 3.515625 21.78125 6.6875 
L 21.78125 59.1875 
Q 16.609375 56.6875 8.6875 56.6875 
L 8.6875 60.203125 
Q 20.953125 60.203125 27.203125 66.609375 
L 28.609375 66.609375 
Q 28.953125 66.609375 29.265625 66.328125 
Q 29.59375 66.0625 29.59375 65.71875 
L 29.59375 6.6875 
Q 29.59375 3.515625 42.09375 3.515625 
L 42.09375 0 
z
" id="Cmr10-31"/>
      <path d="M 9.8125 72.90625 
L 19.671875 72.90625 
L 19.671875 42.09375 
L 52.390625 72.90625 
L 65.09375 72.90625 
L 28.90625 38.921875 
L 67.671875 0 
L 54.6875 0 
L 19.671875 35.109375 
L 19.671875 0 
L 9.8125 0 
z
" id="BitstreamVeraSans-Roman-4b"/>
      <path d="M 39.40625 66.21875 
Q 28.65625 66.21875 22.328125 58.203125 
Q 16.015625 50.203125 16.015625 36.375 
Q 16.015625 22.609375 22.328125 14.59375 
Q 28.65625 6.59375 39.40625 6.59375 
Q 50.140625 6.59375 56.421875 14.59375 
Q 62.703125 22.609375 62.703125 36.375 
Q 62.703125 50.203125 56.421875 58.203125 
Q 50.140625 66.21875 39.40625 66.21875 
M 39.40625 74.21875 
Q 54.734375 74.21875 63.90625 63.9375 
Q 73.09375 53.65625 73.09375 36.375 
Q 73.09375 19.140625 63.90625 8.859375 
Q 54.734375 -1.421875 39.40625 -1.421875 
Q 24.03125 -1.421875 14.8125 8.828125 
Q 5.609375 19.09375 5.609375 36.375 
Q 5.609375 53.65625 14.8125 63.9375 
Q 24.03125 74.21875 39.40625 74.21875 
" id="BitstreamVeraSans-Roman-4f"/>
      <path d="M 9.8125 72.90625 
L 19.671875 72.90625 
L 19.671875 0 
L 9.8125 0 
z
" id="BitstreamVeraSans-Roman-49"/>
      <path d="M 6.296875 72.90625 
L 16.890625 72.90625 
L 35.015625 45.796875 
L 53.21875 72.90625 
L 63.8125 72.90625 
L 40.375 37.890625 
L 65.375 0 
L 54.78125 0 
L 34.28125 31 
L 13.625 0 
L 2.984375 0 
L 29 38.921875 
z
" id="BitstreamVeraSans-Roman-58"/>
      <path d="M 9.8125 72.90625 
L 24.515625 72.90625 
L 43.109375 23.296875 
L 61.8125 72.90625 
L 76.515625 72.90625 
L 76.515625 0 
L 66.890625 0 
L 66.890625 64.015625 
L 48.09375 14.015625 
L 38.1875 14.015625 
L 19.390625 64.015625 
L 19.390625 0 
L 9.8125 0 
z
" id="BitstreamVeraSans-Roman-4d"/>
      <path d="M 56.203125 29.59375 
L 56.203125 25.203125 
L 14.890625 25.203125 
Q 15.484375 15.921875 20.484375 11.0625 
Q 25.484375 6.203125 34.421875 6.203125 
Q 39.59375 6.203125 44.453125 7.46875 
Q 49.3125 8.734375 54.109375 11.28125 
L 54.109375 2.78125 
Q 49.265625 0.734375 44.1875 -0.34375 
Q 39.109375 -1.421875 33.890625 -1.421875 
Q 20.796875 -1.421875 13.15625 6.1875 
Q 5.515625 13.8125 5.515625 26.8125 
Q 5.515625 40.234375 12.765625 48.109375 
Q 20.015625 56 32.328125 56 
Q 43.359375 56 49.78125 48.890625 
Q 56.203125 41.796875 56.203125 29.59375 
M 47.21875 32.234375 
Q 47.125 39.59375 43.09375 43.984375 
Q 39.0625 48.390625 32.421875 48.390625 
Q 24.90625 48.390625 20.390625 44.140625 
Q 15.875 39.890625 15.1875 32.171875 
z
" id="BitstreamVeraSans-Roman-65"/>
      <path d="M 19.671875 64.796875 
L 19.671875 37.40625 
L 32.078125 37.40625 
Q 38.96875 37.40625 42.71875 40.96875 
Q 46.484375 44.53125 46.484375 51.125 
Q 46.484375 57.671875 42.71875 61.234375 
Q 38.96875 64.796875 32.078125 64.796875 
z
M 9.8125 72.90625 
L 32.078125 72.90625 
Q 44.34375 72.90625 50.609375 67.359375 
Q 56.890625 61.8125 56.890625 51.125 
Q 56.890625 40.328125 50.609375 34.8125 
Q 44.34375 29.296875 32.078125 29.296875 
L 19.671875 29.296875 
L 19.671875 0 
L 9.8125 0 
z
" id="BitstreamVeraSans-Roman-50"/>
      <path d="M 9.8125 72.90625 
L 23.09375 72.90625 
L 55.421875 11.921875 
L 55.421875 72.90625 
L 64.984375 72.90625 
L 64.984375 0 
L 51.703125 0 
L 19.390625 60.984375 
L 19.390625 0 
L 9.8125 0 
z
" id="BitstreamVeraSans-Roman-4e"/>
     </defs>
     <g transform="translate(4.12 292.057)scale(0.08 -0.08)">
      <use transform="translate(0.0 0.015625)" xlink:href="#BitstreamVeraSans-Roman-5b"/>
      <use transform="translate(39.013671875 0.015625)" xlink:href="#Cmmi10-70"/>
      <use transform="translate(106.865234375 0.015625)" xlink:href="#Cmr10-3d"/>
      <use transform="translate(202.109375 0.015625)" xlink:href="#Cmr10-31"/>
      <use transform="translate(252.109375 0.015625)" xlink:href="#Cmr10-30"/>
      <use transform="translate(302.109375 0.015625)" xlink:href="#Cmr10-30"/>
      <use transform="translate(352.109375 0.015625)" xlink:href="#Cmmi10-3a"/>
      <use transform="translate(397.353515625 0.015625)" xlink:href="#Cmr10-30"/>
      <use transform="translate(447.353515625 0.015625)" xlink:href="#Cmmi10-3b"/>
      <use transform="translate(492.59765625 0.015625)" xlink:href="#Cmmi10-74"/>
      <use transform="translate(546.240234375 0.015625)" xlink:href="#Cmr10-3d"/>
      <use transform="translate(641.484375 0.015625)" xlink:href="#Cmr10-30"/>
      <use transform="translate(691.484375 0.015625)" xlink:href="#Cmr10-30"/>
      <use transform="translate(741.484375 0.015625)" xlink:href="#Cmr10-30"/>
      <use transform="translate(791.484375 0.015625)" xlink:href="#Cmmi10-3a"/>
      <use transform="translate(836.728515625 0.015625)" xlink:href="#Cmr10-31"/>
      <use transform="translate(886.728515625 0.015625)" xlink:href="#BitstreamVeraSans-Roman-2c"/>
      <use transform="translate(918.515625 0.015625)" xlink:href="#BitstreamVeraSans-Roman-20"/>
      <use transform="translate(950.302734375 0.015625)" xlink:href="#BitstreamVeraSans-Roman-56"/>
      <use transform="translate(1018.7109375 0.015625)" xlink:href="#BitstreamVeraSans-Roman-34"/>
      <use transform="translate(1082.333984375 0.015625)" xlink:href="#BitstreamVeraSans-Roman-45"/>
      <use transform="translate(1145.517578125 0.015625)" xlink:href="#BitstreamVeraSans-Roman-55"/>
      <use transform="translate(1218.7109375 0.015625)" xlink:href="#BitstreamVeraSans-Roman-2c"/>
      <use transform="translate(1250.498046875 0.015625)" xlink:href="#BitstreamVeraSans-Roman-20"/>
      <use transform="translate(1282.28515625 0.015625)" xlink:href="#BitstreamVeraSans-Roman-4d"/>
      <use transform="translate(1368.564453125 0.015625)" xlink:href="#BitstreamVeraSans-Roman-49"/>
      <use transform="translate(1398.056640625 0.015625)" xlink:href="#BitstreamVeraSans-Roman-4e"/>
      <use transform="translate(1472.861328125 0.015625)" xlink:href="#BitstreamVeraSans-Roman-4b"/>
      <use transform="translate(1538.4375 0.015625)" xlink:href="#BitstreamVeraSans-Roman-4e"/>
      <use transform="translate(1613.2421875 0.015625)" xlink:href="#BitstreamVeraSans-Roman-41"/>
      <use transform="translate(1681.650390625 0.015625)" xlink:href="#BitstreamVeraSans-Roman-50"/>
      <use transform="translate(1741.953125 0.015625)" xlink:href="#BitstreamVeraSans-Roman-2c"/>
      <use transform="translate(1773.740234375 0.015625)" xlink:href="#BitstreamVeraSans-Roman-20"/>
      <use transform="translate(1805.52734375 0.015625)" xlink:href="#BitstreamVeraSans-Roman-34"/>
      <use transform="translate(1869.150390625 0.015625)" xlink:href="#BitstreamVeraSans-Roman-58"/>
      <use transform="translate(1937.65625 0.015625)" xlink:href="#BitstreamVeraSans-Roman-2c"/>
      <use transform="translate(1969.443359375 0.015625)" xlink:href="#BitstreamVeraSans-Roman-20"/>
      <use transform="translate(2001.23046875 0.015625)" xlink:href="#BitstreamVeraSans-Roman-42"/>
      <use transform="translate(2069.833984375 0.015625)" xlink:href="#BitstreamVeraSans-Roman-4f"/>
      <use transform="translate(2148.544921875 0.015625)" xlink:href="#BitstreamVeraSans-Roman-54"/>
      <use transform="translate(2209.62890625 0.015625)" xlink:href="#BitstreamVeraSans-Roman-48"/>
      <use transform="translate(2284.82421875 0.015625)" xlink:href="#BitstreamVeraSans-Roman-2c"/>
      <use transform="translate(2316.611328125 0.015625)" xlink:href="#BitstreamVeraSans-Roman-20"/>
      <use transform="translate(2348.3984375 0.015625)" xlink:href="#BitstreamVeraSans-Roman-52"/>
      <use transform="translate(2417.880859375 0.015625)" xlink:href="#BitstreamVeraSans-Roman-45"/>
      <use transform="translate(2481.064453125 0.015625)" xlink:href="#BitstreamVeraSans-Roman-56"/>
      <use transform="translate(2549.47265625 0.015625)" xlink:href="#BitstreamVeraSans-Roman-45"/>
      <use transform="translate(2612.65625 0.015625)" xlink:href="#BitstreamVeraSans-Roman-52"/>
      <use transform="translate(2682.138671875 0.015625)" xlink:href="#BitstreamVeraSans-Roman-53"/>
      <use transform="translate(2745.615234375 0.015625)" xlink:href="#BitstreamVeraSans-Roman-45"/>
      <use transform="translate(2808.798828125 0.015625)" xlink:href="#BitstreamVeraSans-Roman-2c"/>
      <use transform="translate(2840.5859375 0.015625)" xlink:href="#BitstreamVeraSans-Roman-20"/>
      <use transform="translate(2872.373046875 0.015625)" xlink:href="#BitstreamVeraSans-Roman-33"/>
      <use transform="translate(2935.99609375 0.015625)" xlink:href="#BitstreamVeraSans-Roman-37"/>
      <use transform="translate(2999.619140625 0.015625)" xlink:href="#BitstreamVeraSans-Roman-4b"/>
      <use transform="translate(3065.1953125 0.015625)" xlink:href="#BitstreamVeraSans-Roman-20"/>
      <use transform="translate(3096.982421875 0.015625)" xlink:href="#BitstreamVeraSans-Roman-69"/>
      <use transform="translate(3124.765625 0.015625)" xlink:href="#BitstreamVeraSans-Roman-6e"/>
      <use transform="translate(3188.14453125 0.015625)" xlink:href="#BitstreamVeraSans-Roman-73"/>
      <use transform="translate(3240.244140625 0.015625)" xlink:href="#BitstreamVeraSans-Roman-74"/>
      <use transform="translate(3279.453125 0.015625)" xlink:href="#BitstreamVeraSans-Roman-61"/>
      <use transform="translate(3340.732421875 0.015625)" xlink:href="#BitstreamVeraSans-Roman-6e"/>
      <use transform="translate(3404.111328125 0.015625)" xlink:href="#BitstreamVeraSans-Roman-63"/>
      <use transform="translate(3459.091796875 0.015625)" xlink:href="#BitstreamVeraSans-Roman-65"/>
      <use transform="translate(3520.615234375 0.015625)" xlink:href="#BitstreamVeraSans-Roman-73"/>
      <use transform="translate(3572.71484375 0.015625)" xlink:href="#BitstreamVeraSans-Roman-5d"/>
     </g>
    </g>
   </g>
   <g id="matplotlib.axis_2"/>
   <g id="text_2">
    <!-- 27.9% -->
    <defs>
     <path d="M 10.203125 18.890625 
L 27.78125 18.890625 
L 27.78125 0 
L 10.203125 0 
z
" id="BitstreamVeraSans-Bold-2e"/>
     <path d="M 10.015625 1.609375 
L 10.015625 15.09375 
Q 14.5 12.984375 18.59375 11.9375 
Q 22.703125 10.890625 26.703125 10.890625 
Q 35.109375 10.890625 39.796875 15.546875 
Q 44.484375 20.21875 45.3125 29.390625 
Q 42 26.953125 38.234375 25.734375 
Q 34.46875 24.515625 30.078125 24.515625 
Q 18.890625 24.515625 12.03125 31.03125 
Q 5.171875 37.546875 5.171875 48.1875 
Q 5.171875 59.96875 12.8125 67.046875 
Q 20.453125 74.125 33.296875 74.125 
Q 47.5625 74.125 55.375 64.5 
Q 63.1875 54.890625 63.1875 37.3125 
Q 63.1875 19.234375 54.046875 8.90625 
Q 44.921875 -1.421875 29 -1.421875 
Q 23.875 -1.421875 19.1875 -0.65625 
Q 14.5 0.09375 10.015625 1.609375 
M 33.203125 36.71875 
Q 38.140625 36.71875 40.625 39.90625 
Q 43.109375 43.109375 43.109375 49.515625 
Q 43.109375 55.859375 40.625 59.078125 
Q 38.140625 62.3125 33.203125 62.3125 
Q 28.265625 62.3125 25.78125 59.078125 
Q 23.296875 55.859375 23.296875 49.515625 
Q 23.296875 43.109375 25.78125 39.90625 
Q 28.265625 36.71875 33.203125 36.71875 
" id="BitstreamVeraSans-Bold-39"/>
     <path d="M 6.6875 72.90625 
L 61.625 72.90625 
L 61.625 62.3125 
L 33.203125 0 
L 14.890625 0 
L 41.796875 59.078125 
L 6.6875 59.078125 
z
" id="BitstreamVeraSans-Bold-37"/>
     <path d="M 28.8125 13.8125 
L 60.890625 13.8125 
L 60.890625 0 
L 7.90625 0 
L 7.90625 13.8125 
L 34.515625 37.3125 
Q 38.09375 40.53125 39.796875 43.609375 
Q 41.5 46.6875 41.5 50 
Q 41.5 55.125 38.0625 58.25 
Q 34.625 61.375 28.90625 61.375 
Q 24.515625 61.375 19.28125 59.5 
Q 14.0625 57.625 8.109375 53.90625 
L 8.109375 69.921875 
Q 14.453125 72.015625 20.65625 73.109375 
Q 26.859375 74.21875 32.8125 74.21875 
Q 45.90625 74.21875 53.15625 68.453125 
Q 60.40625 62.703125 60.40625 52.390625 
Q 60.40625 46.4375 57.328125 41.28125 
Q 54.25 36.140625 44.390625 27.484375 
z
" id="BitstreamVeraSans-Bold-32"/>
     <path d="M 77.484375 30.078125 
Q 74.03125 30.078125 72.125 27.078125 
Q 70.21875 24.078125 70.21875 18.5 
Q 70.21875 12.890625 72.09375 9.890625 
Q 73.96875 6.890625 77.484375 6.890625 
Q 81 6.890625 82.859375 9.890625 
Q 84.71875 12.890625 84.71875 18.5 
Q 84.71875 24.078125 82.828125 27.078125 
Q 80.953125 30.078125 77.484375 30.078125 
M 77.484375 38.28125 
Q 86.578125 38.28125 91.796875 33 
Q 97.015625 27.734375 97.015625 18.5 
Q 97.015625 9.28125 91.796875 3.921875 
Q 86.578125 -1.421875 77.484375 -1.421875 
Q 68.40625 -1.421875 63.15625 3.921875 
Q 57.90625 9.28125 57.90625 18.5 
Q 57.90625 27.6875 63.15625 32.984375 
Q 68.40625 38.28125 77.484375 38.28125 
M 32.71875 -1.421875 
L 21.921875 -1.421875 
L 67.484375 74.21875 
L 78.328125 74.21875 
z
M 22.703125 74.21875 
Q 31.78125 74.21875 36.984375 68.921875 
Q 42.1875 63.625 42.1875 54.390625 
Q 42.1875 45.171875 36.984375 39.84375 
Q 31.78125 34.515625 22.703125 34.515625 
Q 13.625 34.515625 8.421875 39.84375 
Q 3.21875 45.171875 3.21875 54.390625 
Q 3.21875 63.625 8.421875 68.921875 
Q 13.625 74.21875 22.703125 74.21875 
M 22.703125 66.015625 
Q 19.1875 66.015625 17.28125 62.984375 
Q 15.375 59.96875 15.375 54.390625 
Q 15.375 48.78125 17.28125 45.71875 
Q 19.1875 42.671875 22.703125 42.671875 
Q 26.21875 42.671875 28.09375 45.71875 
Q 29.984375 48.78125 29.984375 54.390625 
Q 29.984375 59.96875 28.078125 62.984375 
Q 26.171875 66.015625 22.703125 66.015625 
" id="BitstreamVeraSans-Bold-25"/>
    </defs>
    <g style="fill:#ffffff;" transform="translate(95.039116013 150.825200361)scale(0.08 -0.08)">
     <use xlink:href="#BitstreamVeraSans-Bold-32"/>
     <use x="69.580078125" xlink:href="#BitstreamVeraSans-Bold-37"/>
     <use x="139.16015625" xlink:href="#BitstreamVeraSans-Bold-2e"/>
     <use x="177.1484375" xlink:href="#BitstreamVeraSans-Bold-39"/>
     <use x="246.728515625" xlink:href="#BitstreamVeraSans-Bold-25"/>
    </g>
    <!-- ±0.01% -->
    <defs>
     <path d="M 47.703125 62.703125 
L 47.703125 45.40625 
L 73.1875 45.40625 
L 73.1875 33.890625 
L 47.703125 33.890625 
L 47.703125 16.609375 
L 36.078125 16.609375 
L 36.078125 33.890625 
L 10.59375 33.890625 
L 10.59375 45.40625 
L 36.078125 45.40625 
L 36.078125 62.703125 
z
M 10.59375 11.625 
L 73.1875 11.625 
L 73.1875 0 
L 10.59375 0 
z
" id="BitstreamVeraSans-Bold-b1"/>
     <path d="M 11.71875 12.984375 
L 28.328125 12.984375 
L 28.328125 60.109375 
L 11.28125 56.59375 
L 11.28125 69.390625 
L 28.21875 72.90625 
L 46.09375 72.90625 
L 46.09375 12.984375 
L 62.703125 12.984375 
L 62.703125 0 
L 11.71875 0 
z
" id="BitstreamVeraSans-Bold-31"/>
     <path d="M 46 36.53125 
Q 46 50.203125 43.4375 55.78125 
Q 40.875 61.375 34.8125 61.375 
Q 28.765625 61.375 26.171875 55.78125 
Q 23.578125 50.203125 23.578125 36.53125 
Q 23.578125 22.703125 26.171875 17.03125 
Q 28.765625 11.375 34.8125 11.375 
Q 40.828125 11.375 43.40625 17.03125 
Q 46 22.703125 46 36.53125 
M 64.796875 36.375 
Q 64.796875 18.265625 56.984375 8.421875 
Q 49.171875 -1.421875 34.8125 -1.421875 
Q 20.40625 -1.421875 12.59375 8.421875 
Q 4.78125 18.265625 4.78125 36.375 
Q 4.78125 54.546875 12.59375 64.375 
Q 20.40625 74.21875 34.8125 74.21875 
Q 49.171875 74.21875 56.984375 64.375 
Q 64.796875 54.546875 64.796875 36.375 
" id="BitstreamVeraSans-Bold-30"/>
    </defs>
    <g style="fill:#ffffff;" transform="translate(91.687241013 159.783450361)scale(0.08 -0.08)">
     <use xlink:href="#BitstreamVeraSans-Bold-b1"/>
     <use x="83.7890625" xlink:href="#BitstreamVeraSans-Bold-30"/>
     <use x="153.369140625" xlink:href="#BitstreamVeraSans-Bold-2e"/>
     <use x="191.357421875" xlink:href="#BitstreamVeraSans-Bold-30"/>
     <use x="260.9375" xlink:href="#BitstreamVeraSans-Bold-31"/>
     <use x="330.517578125" xlink:href="#BitstreamVeraSans-Bold-25"/>
    </g>
   </g>
   <g id="text_3">
    <!-- 44.1% -->
    <defs>
     <path d="M 36.8125 57.421875 
L 16.21875 26.90625 
L 36.8125 26.90625 
z
M 33.6875 72.90625 
L 54.59375 72.90625 
L 54.59375 26.90625 
L 64.984375 26.90625 
L 64.984375 13.28125 
L 54.59375 13.28125 
L 54.59375 0 
L 36.8125 0 
L 36.8125 13.28125 
L 4.5 13.28125 
L 4.5 29.390625 
z
" id="BitstreamVeraSans-Bold-34"/>
    </defs>
    <g style="fill:#ffffff;" transform="translate(134.730360253 235.358031626)scale(0.08 -0.08)">
     <use xlink:href="#BitstreamVeraSans-Bold-34"/>
     <use x="69.580078125" xlink:href="#BitstreamVeraSans-Bold-34"/>
     <use x="139.16015625" xlink:href="#BitstreamVeraSans-Bold-2e"/>
     <use x="177.1484375" xlink:href="#BitstreamVeraSans-Bold-31"/>
     <use x="246.728515625" xlink:href="#BitstreamVeraSans-Bold-25"/>
    </g>
    <!-- ±0.01% -->
    <g style="fill:#ffffff;" transform="translate(131.378485253 244.316281626)scale(0.08 -0.08)">
     <use xlink:href="#BitstreamVeraSans-Bold-b1"/>
     <use x="83.7890625" xlink:href="#BitstreamVeraSans-Bold-30"/>
     <use x="153.369140625" xlink:href="#BitstreamVeraSans-Bold-2e"/>
     <use x="191.357421875" xlink:href="#BitstreamVeraSans-Bold-30"/>
     <use x="260.9375" xlink:href="#BitstreamVeraSans-Bold-31"/>
     <use x="330.517578125" xlink:href="#BitstreamVeraSans-Bold-25"/>
    </g>
   </g>
   <g id="text_4">
    <!-- 27.9% -->
    <g style="fill:#ffffff;" transform="translate(174.401723573 150.819404599)scale(0.08 -0.08)">
     <use xlink:href="#BitstreamVeraSans-Bold-32"/>
     <use x="69.580078125" xlink:href="#BitstreamVeraSans-Bold-37"/>
     <use x="139.16015625" xlink:href="#BitstreamVeraSans-Bold-2e"/>
     <use x="177.1484375" xlink:href="#BitstreamVeraSans-Bold-39"/>
     <use x="246.728515625" xlink:href="#BitstreamVeraSans-Bold-25"/>
    </g>
    <!-- ±0.01% -->
    <g style="fill:#ffffff;" transform="translate(171.049848573 159.777654599)scale(0.08 -0.08)">
     <use xlink:href="#BitstreamVeraSans-Bold-b1"/>
     <use x="83.7890625" xlink:href="#BitstreamVeraSans-Bold-30"/>
     <use x="153.369140625" xlink:href="#BitstreamVeraSans-Bold-2e"/>
     <use x="191.357421875" xlink:href="#BitstreamVeraSans-Bold-30"/>
     <use x="260.9375" xlink:href="#BitstreamVeraSans-Bold-31"/>
     <use x="330.517578125" xlink:href="#BitstreamVeraSans-Bold-25"/>
    </g>
   </g>
   <g id="legend_1">
    <g id="patch_5">
     <path d="M 238.443574 106.11925 
L 254.443574 106.11925 
L 254.443574 100.51925 
L 238.443574 100.51925 
z
" style="fill:#0cc406;"/>
    </g>
    <g id="text_5">
     <!-- $b&gt;0, d=0$ -->
     <defs>
      <path d="M 8.296875 -2 
Q 8.296875 -0.734375 9.625 -0.09375 
L 62.703125 25 
L 9.28125 50.296875 
Q 8.296875 50.59375 8.296875 52 
Q 8.296875 52.6875 8.859375 53.34375 
Q 9.421875 54 10.296875 54 
Q 10.5 54 11.078125 53.8125 
L 68.5 26.703125 
Q 69.390625 26.265625 69.390625 25 
Q 69.390625 23.6875 68.21875 23.1875 
L 11.078125 -3.8125 
Q 10.5 -4 10.296875 -4 
Q 9.421875 -4 8.859375 -3.34375 
Q 8.296875 -2.6875 8.296875 -2 
" id="Cmmi10-3e"/>
      <path d="M 17.28125 -1.125 
Q 11.234375 -1.125 7.859375 3.609375 
Q 4.5 8.34375 4.5 14.703125 
Q 4.5 15.625 4.953125 18.328125 
Q 5.421875 21.046875 5.421875 21.6875 
L 15.09375 60.5 
Q 15.484375 62.203125 15.578125 63.1875 
Q 15.578125 64.796875 9.078125 64.796875 
Q 8.109375 64.796875 8.109375 66.109375 
Q 8.15625 66.359375 8.328125 66.984375 
Q 8.5 67.625 8.765625 67.96875 
Q 9.03125 68.3125 9.515625 68.3125 
L 23 69.390625 
Q 24.21875 69.390625 24.21875 68.109375 
L 16.796875 38.625 
Q 22.46875 44.1875 28.21875 44.1875 
Q 32.46875 44.1875 35.515625 41.9375 
Q 38.578125 39.703125 40.09375 36.03125 
Q 41.609375 32.375 41.609375 28.21875 
Q 41.609375 23.390625 39.71875 18.234375 
Q 37.84375 13.09375 34.515625 8.671875 
Q 31.203125 4.25 26.75 1.5625 
Q 22.3125 -1.125 17.28125 -1.125 
M 17.484375 1.515625 
Q 20.90625 1.515625 23.875 4.375 
Q 26.859375 7.234375 28.71875 10.796875 
Q 30.71875 14.796875 32.453125 21.65625 
Q 34.1875 28.515625 34.1875 32.625 
Q 34.1875 36.1875 32.6875 38.890625 
Q 31.203125 41.609375 27.984375 41.609375 
Q 24.359375 41.609375 21.0625 38.9375 
Q 17.78125 36.28125 15.28125 32.625 
L 12.5 21.296875 
Q 10.890625 14.984375 10.796875 11.1875 
Q 10.796875 7.421875 12.421875 4.46875 
Q 14.0625 1.515625 17.484375 1.515625 
" id="Cmmi10-62"/>
      <path d="M 17.390625 -1.125 
Q 11.078125 -1.125 7.4375 3.640625 
Q 3.8125 8.40625 3.8125 14.890625 
Q 3.8125 21.296875 7.125 28.171875 
Q 10.453125 35.0625 16.09375 39.625 
Q 21.734375 44.1875 28.21875 44.1875 
Q 31.15625 44.1875 33.515625 42.546875 
Q 35.890625 40.921875 37.203125 38.1875 
L 42.828125 60.5 
Q 43.21875 62.203125 43.3125 63.1875 
Q 43.3125 64.796875 36.8125 64.796875 
Q 35.796875 64.796875 35.796875 66.109375 
Q 35.84375 66.359375 36.015625 66.984375 
Q 36.1875 67.625 36.453125 67.96875 
Q 36.71875 68.3125 37.203125 68.3125 
L 50.6875 69.390625 
Q 51.90625 69.390625 51.90625 68.109375 
L 37.5 10.59375 
Q 36.8125 8.9375 36.8125 5.8125 
Q 36.8125 1.515625 39.703125 1.515625 
Q 42.828125 1.515625 44.453125 5.484375 
Q 46.09375 9.46875 47.21875 14.703125 
Q 47.40625 15.28125 48 15.28125 
L 49.21875 15.28125 
Q 49.609375 15.28125 49.84375 14.9375 
Q 50.09375 14.59375 50.09375 14.3125 
Q 48.34375 7.328125 46.265625 3.09375 
Q 44.1875 -1.125 39.5 -1.125 
Q 36.140625 -1.125 33.546875 0.84375 
Q 30.953125 2.828125 30.328125 6.109375 
Q 23.875 -1.125 17.390625 -1.125 
M 17.484375 1.515625 
Q 21.09375 1.515625 24.484375 4.21875 
Q 27.875 6.9375 30.328125 10.59375 
Q 30.421875 10.6875 30.421875 10.984375 
L 35.890625 33.015625 
Q 35.296875 36.53125 33.296875 39.0625 
Q 31.296875 41.609375 27.984375 41.609375 
Q 24.609375 41.609375 21.703125 38.84375 
Q 18.796875 36.078125 16.796875 32.328125 
Q 14.84375 28.328125 13.0625 21.34375 
Q 11.28125 14.359375 11.28125 10.5 
Q 11.28125 7.03125 12.765625 4.265625 
Q 14.265625 1.515625 17.484375 1.515625 
" id="Cmmi10-64"/>
     </defs>
     <g transform="translate(260.843573555 106.11925)scale(0.08 -0.08)">
      <use transform="translate(0.0 0.609375)" xlink:href="#Cmmi10-62"/>
      <use transform="translate(60.478515625 0.609375)" xlink:href="#Cmmi10-3e"/>
      <use transform="translate(155.72265625 0.609375)" xlink:href="#Cmr10-30"/>
      <use transform="translate(205.72265625 0.609375)" xlink:href="#Cmmi10-3b"/>
      <use transform="translate(250.966796875 0.609375)" xlink:href="#Cmmi10-64"/>
      <use transform="translate(320.52734375 0.609375)" xlink:href="#Cmr10-3d"/>
      <use transform="translate(415.771484375 0.609375)" xlink:href="#Cmr10-30"/>
     </g>
    </g>
    <g id="patch_6">
     <path d="M 238.443574 117.86175 
L 254.443574 117.86175 
L 254.443574 112.26175 
L 238.443574 112.26175 
z
" style="fill:#929999;"/>
    </g>
    <g id="text_6">
     <!-- $b&gt;0, d&gt;0$ -->
     <g transform="translate(260.843573555 117.86175)scale(0.08 -0.08)">
      <use transform="translate(0.0 0.609375)" xlink:href="#Cmmi10-62"/>
      <use transform="translate(60.478515625 0.609375)" xlink:href="#Cmmi10-3e"/>
      <use transform="translate(155.72265625 0.609375)" xlink:href="#Cmr10-30"/>
      <use transform="translate(205.72265625 0.609375)" xlink:href="#Cmmi10-3b"/>
      <use transform="translate(250.966796875 0.609375)" xlink:href="#Cmmi10-64"/>
      <use transform="translate(320.52734375 0.609375)" xlink:href="#Cmmi10-3e"/>
      <use transform="translate(415.771484375 0.609375)" xlink:href="#Cmr10-30"/>
     </g>
    </g>
    <g id="patch_7">
     <path d="M 238.443574 129.60425 
L 254.443574 129.60425 
L 254.443574 124.00425 
L 238.443574 124.00425 
z
" style="fill:#e72929;"/>
    </g>
    <g id="text_7">
     <!-- $b=0, d&gt;0$ -->
     <g transform="translate(260.843573555 129.60425)scale(0.08 -0.08)">
      <use transform="translate(0.0 0.609375)" xlink:href="#Cmmi10-62"/>
      <use transform="translate(60.478515625 0.609375)" xlink:href="#Cmr10-3d"/>
      <use transform="translate(155.72265625 0.609375)" xlink:href="#Cmr10-30"/>
      <use transform="translate(205.72265625 0.609375)" xlink:href="#Cmmi10-3b"/>
      <use transform="translate(250.966796875 0.609375)" xlink:href="#Cmmi10-64"/>
      <use transform="translate(320.52734375 0.609375)" xlink:href="#Cmmi10-3e"/>
      <use transform="translate(415.771484375 0.609375)" xlink:href="#Cmr10-30"/>
     </g>
    </g>
   </g>
  </g>
  <g id="axes_2">
   <g id="patch_8">
    <path d="M 500.427976 100.080001 
C 487.765294 100.080001 475.257618 102.877698 463.801643 108.272521 
C 452.345667 113.667344 442.221859 121.527216 434.156011 131.28865 
L 500.427976 186.049008 
L 500.427976 100.080001 
z
" style="fill:#0cc406;"/>
   </g>
   <g id="patch_9">
    <path d="M 434.156011 131.28865 
C 423.767789 143.860663 417.168358 159.132901 415.131864 175.313858 
C 413.09537 191.494814 415.704684 207.926042 422.65372 222.680077 
C 429.602756 237.434113 440.608739 249.910574 454.380614 258.645912 
C 468.152489 267.38125 484.12984 272.02 500.438447 272.018013 
C 516.747054 272.016027 532.723275 267.373385 546.493021 258.634692 
C 560.262768 249.895999 571.265711 237.416857 578.211153 222.661129 
C 585.156594 207.905401 587.761905 191.473539 585.721469 175.293078 
C 583.681034 159.112618 577.077883 143.841988 566.686598 131.272507 
L 500.427976 186.049008 
L 434.156011 131.28865 
z
" style="fill:#929999;"/>
   </g>
   <g id="patch_10">
    <path d="M 566.686598 131.272507 
C 558.620622 121.51576 548.498269 113.659982 537.044831 108.268059 
C 525.591392 102.876136 513.087118 100.08 500.427968 100.080001 
L 500.427976 186.049008 
L 566.686598 131.272507 
z
" style="fill:#e72929;"/>
   </g>
   <g id="matplotlib.axis_3">
    <g id="text_8">
     <!-- ER_Vinayagam -->
     <defs>
      <path d="M 50.984375 -16.609375 
L 50.984375 -23.578125 
L -0.984375 -23.578125 
L -0.984375 -16.609375 
z
" id="BitstreamVeraSans-Roman-5f"/>
     </defs>
     <g transform="translate(470.583637619 283.32125)scale(0.08 -0.08)">
      <use xlink:href="#BitstreamVeraSans-Roman-45"/>
      <use x="63.18359375" xlink:href="#BitstreamVeraSans-Roman-52"/>
      <use x="132.666015625" xlink:href="#BitstreamVeraSans-Roman-5f"/>
      <use x="182.666015625" xlink:href="#BitstreamVeraSans-Roman-56"/>
      <use x="251.04296875" xlink:href="#BitstreamVeraSans-Roman-69"/>
      <use x="278.826171875" xlink:href="#BitstreamVeraSans-Roman-6e"/>
      <use x="342.205078125" xlink:href="#BitstreamVeraSans-Roman-61"/>
      <use x="403.484375" xlink:href="#BitstreamVeraSans-Roman-79"/>
      <use x="462.6640625" xlink:href="#BitstreamVeraSans-Roman-61"/>
      <use x="523.943359375" xlink:href="#BitstreamVeraSans-Roman-67"/>
      <use x="587.419921875" xlink:href="#BitstreamVeraSans-Roman-61"/>
      <use x="648.69921875" xlink:href="#BitstreamVeraSans-Roman-6d"/>
     </g>
     <!-- [$p=100.0, t=000.1$, V4EU, MINKNAP, 4X, BOTH, REVERSE, 37K instances] -->
     <g transform="translate(355.948637619 292.502)scale(0.08 -0.08)">
      <use transform="translate(0.0 0.015625)" xlink:href="#BitstreamVeraSans-Roman-5b"/>
      <use transform="translate(39.013671875 0.015625)" xlink:href="#Cmmi10-70"/>
      <use transform="translate(106.865234375 0.015625)" xlink:href="#Cmr10-3d"/>
      <use transform="translate(202.109375 0.015625)" xlink:href="#Cmr10-31"/>
      <use transform="translate(252.109375 0.015625)" xlink:href="#Cmr10-30"/>
      <use transform="translate(302.109375 0.015625)" xlink:href="#Cmr10-30"/>
      <use transform="translate(352.109375 0.015625)" xlink:href="#Cmmi10-3a"/>
      <use transform="translate(397.353515625 0.015625)" xlink:href="#Cmr10-30"/>
      <use transform="translate(447.353515625 0.015625)" xlink:href="#Cmmi10-3b"/>
      <use transform="translate(492.59765625 0.015625)" xlink:href="#Cmmi10-74"/>
      <use transform="translate(546.240234375 0.015625)" xlink:href="#Cmr10-3d"/>
      <use transform="translate(641.484375 0.015625)" xlink:href="#Cmr10-30"/>
      <use transform="translate(691.484375 0.015625)" xlink:href="#Cmr10-30"/>
      <use transform="translate(741.484375 0.015625)" xlink:href="#Cmr10-30"/>
      <use transform="translate(791.484375 0.015625)" xlink:href="#Cmmi10-3a"/>
      <use transform="translate(836.728515625 0.015625)" xlink:href="#Cmr10-31"/>
      <use transform="translate(886.728515625 0.015625)" xlink:href="#BitstreamVeraSans-Roman-2c"/>
      <use transform="translate(918.515625 0.015625)" xlink:href="#BitstreamVeraSans-Roman-20"/>
      <use transform="translate(950.302734375 0.015625)" xlink:href="#BitstreamVeraSans-Roman-56"/>
      <use transform="translate(1018.7109375 0.015625)" xlink:href="#BitstreamVeraSans-Roman-34"/>
      <use transform="translate(1082.333984375 0.015625)" xlink:href="#BitstreamVeraSans-Roman-45"/>
      <use transform="translate(1145.517578125 0.015625)" xlink:href="#BitstreamVeraSans-Roman-55"/>
      <use transform="translate(1218.7109375 0.015625)" xlink:href="#BitstreamVeraSans-Roman-2c"/>
      <use transform="translate(1250.498046875 0.015625)" xlink:href="#BitstreamVeraSans-Roman-20"/>
      <use transform="translate(1282.28515625 0.015625)" xlink:href="#BitstreamVeraSans-Roman-4d"/>
      <use transform="translate(1368.564453125 0.015625)" xlink:href="#BitstreamVeraSans-Roman-49"/>
      <use transform="translate(1398.056640625 0.015625)" xlink:href="#BitstreamVeraSans-Roman-4e"/>
      <use transform="translate(1472.861328125 0.015625)" xlink:href="#BitstreamVeraSans-Roman-4b"/>
      <use transform="translate(1538.4375 0.015625)" xlink:href="#BitstreamVeraSans-Roman-4e"/>
      <use transform="translate(1613.2421875 0.015625)" xlink:href="#BitstreamVeraSans-Roman-41"/>
      <use transform="translate(1681.650390625 0.015625)" xlink:href="#BitstreamVeraSans-Roman-50"/>
      <use transform="translate(1741.953125 0.015625)" xlink:href="#BitstreamVeraSans-Roman-2c"/>
      <use transform="translate(1773.740234375 0.015625)" xlink:href="#BitstreamVeraSans-Roman-20"/>
      <use transform="translate(1805.52734375 0.015625)" xlink:href="#BitstreamVeraSans-Roman-34"/>
      <use transform="translate(1869.150390625 0.015625)" xlink:href="#BitstreamVeraSans-Roman-58"/>
      <use transform="translate(1937.65625 0.015625)" xlink:href="#BitstreamVeraSans-Roman-2c"/>
      <use transform="translate(1969.443359375 0.015625)" xlink:href="#BitstreamVeraSans-Roman-20"/>
      <use transform="translate(2001.23046875 0.015625)" xlink:href="#BitstreamVeraSans-Roman-42"/>
      <use transform="translate(2069.833984375 0.015625)" xlink:href="#BitstreamVeraSans-Roman-4f"/>
      <use transform="translate(2148.544921875 0.015625)" xlink:href="#BitstreamVeraSans-Roman-54"/>
      <use transform="translate(2209.62890625 0.015625)" xlink:href="#BitstreamVeraSans-Roman-48"/>
      <use transform="translate(2284.82421875 0.015625)" xlink:href="#BitstreamVeraSans-Roman-2c"/>
      <use transform="translate(2316.611328125 0.015625)" xlink:href="#BitstreamVeraSans-Roman-20"/>
      <use transform="translate(2348.3984375 0.015625)" xlink:href="#BitstreamVeraSans-Roman-52"/>
      <use transform="translate(2417.880859375 0.015625)" xlink:href="#BitstreamVeraSans-Roman-45"/>
      <use transform="translate(2481.064453125 0.015625)" xlink:href="#BitstreamVeraSans-Roman-56"/>
      <use transform="translate(2549.47265625 0.015625)" xlink:href="#BitstreamVeraSans-Roman-45"/>
      <use transform="translate(2612.65625 0.015625)" xlink:href="#BitstreamVeraSans-Roman-52"/>
      <use transform="translate(2682.138671875 0.015625)" xlink:href="#BitstreamVeraSans-Roman-53"/>
      <use transform="translate(2745.615234375 0.015625)" xlink:href="#BitstreamVeraSans-Roman-45"/>
      <use transform="translate(2808.798828125 0.015625)" xlink:href="#BitstreamVeraSans-Roman-2c"/>
      <use transform="translate(2840.5859375 0.015625)" xlink:href="#BitstreamVeraSans-Roman-20"/>
      <use transform="translate(2872.373046875 0.015625)" xlink:href="#BitstreamVeraSans-Roman-33"/>
      <use transform="translate(2935.99609375 0.015625)" xlink:href="#BitstreamVeraSans-Roman-37"/>
      <use transform="translate(2999.619140625 0.015625)" xlink:href="#BitstreamVeraSans-Roman-4b"/>
      <use transform="translate(3065.1953125 0.015625)" xlink:href="#BitstreamVeraSans-Roman-20"/>
      <use transform="translate(3096.982421875 0.015625)" xlink:href="#BitstreamVeraSans-Roman-69"/>
      <use transform="translate(3124.765625 0.015625)" xlink:href="#BitstreamVeraSans-Roman-6e"/>
      <use transform="translate(3188.14453125 0.015625)" xlink:href="#BitstreamVeraSans-Roman-73"/>
      <use transform="translate(3240.244140625 0.015625)" xlink:href="#BitstreamVeraSans-Roman-74"/>
      <use transform="translate(3279.453125 0.015625)" xlink:href="#BitstreamVeraSans-Roman-61"/>
      <use transform="translate(3340.732421875 0.015625)" xlink:href="#BitstreamVeraSans-Roman-6e"/>
      <use transform="translate(3404.111328125 0.015625)" xlink:href="#BitstreamVeraSans-Roman-63"/>
      <use transform="translate(3459.091796875 0.015625)" xlink:href="#BitstreamVeraSans-Roman-65"/>
      <use transform="translate(3520.615234375 0.015625)" xlink:href="#BitstreamVeraSans-Roman-73"/>
      <use transform="translate(3572.71484375 0.015625)" xlink:href="#BitstreamVeraSans-Roman-5d"/>
     </g>
    </g>
   </g>
   <g id="matplotlib.axis_4"/>
   <g id="text_9">
    <!-- 14.0% -->
    <g style="fill:#ffffff;" transform="translate(464.575300838 137.111490906)scale(0.08 -0.08)">
     <use xlink:href="#BitstreamVeraSans-Bold-31"/>
     <use x="69.580078125" xlink:href="#BitstreamVeraSans-Bold-34"/>
     <use x="139.16015625" xlink:href="#BitstreamVeraSans-Bold-2e"/>
     <use x="177.1484375" xlink:href="#BitstreamVeraSans-Bold-30"/>
     <use x="246.728515625" xlink:href="#BitstreamVeraSans-Bold-25"/>
    </g>
    <!-- ±0.01% -->
    <g style="fill:#ffffff;" transform="translate(461.223425838 146.069740906)scale(0.08 -0.08)">
     <use xlink:href="#BitstreamVeraSans-Bold-b1"/>
     <use x="83.7890625" xlink:href="#BitstreamVeraSans-Bold-30"/>
     <use x="153.369140625" xlink:href="#BitstreamVeraSans-Bold-2e"/>
     <use x="191.357421875" xlink:href="#BitstreamVeraSans-Bold-30"/>
     <use x="260.9375" xlink:href="#BitstreamVeraSans-Bold-31"/>
     <use x="330.517578125" xlink:href="#BitstreamVeraSans-Bold-25"/>
    </g>
   </g>
   <g id="text_10">
    <!-- 72.0% -->
    <g style="fill:#ffffff;" transform="translate(486.557383619 235.358786144)scale(0.08 -0.08)">
     <use xlink:href="#BitstreamVeraSans-Bold-37"/>
     <use x="69.580078125" xlink:href="#BitstreamVeraSans-Bold-32"/>
     <use x="139.16015625" xlink:href="#BitstreamVeraSans-Bold-2e"/>
     <use x="177.1484375" xlink:href="#BitstreamVeraSans-Bold-30"/>
     <use x="246.728515625" xlink:href="#BitstreamVeraSans-Bold-25"/>
    </g>
    <!-- ±0.01% -->
    <g style="fill:#ffffff;" transform="translate(483.205508619 244.317036144)scale(0.08 -0.08)">
     <use xlink:href="#BitstreamVeraSans-Bold-b1"/>
     <use x="83.7890625" xlink:href="#BitstreamVeraSans-Bold-30"/>
     <use x="153.369140625" xlink:href="#BitstreamVeraSans-Bold-2e"/>
     <use x="191.357421875" xlink:href="#BitstreamVeraSans-Bold-30"/>
     <use x="260.9375" xlink:href="#BitstreamVeraSans-Bold-31"/>
     <use x="330.517578125" xlink:href="#BitstreamVeraSans-Bold-25"/>
    </g>
   </g>
   <g id="text_11">
    <!-- 14.0% -->
    <g style="fill:#ffffff;" transform="translate(508.521213656 137.108813386)scale(0.08 -0.08)">
     <use xlink:href="#BitstreamVeraSans-Bold-31"/>
     <use x="69.580078125" xlink:href="#BitstreamVeraSans-Bold-34"/>
     <use x="139.16015625" xlink:href="#BitstreamVeraSans-Bold-2e"/>
     <use x="177.1484375" xlink:href="#BitstreamVeraSans-Bold-30"/>
     <use x="246.728515625" xlink:href="#BitstreamVeraSans-Bold-25"/>
    </g>
    <!-- ±0.01% -->
    <g style="fill:#ffffff;" transform="translate(505.169338656 146.067063386)scale(0.08 -0.08)">
     <use xlink:href="#BitstreamVeraSans-Bold-b1"/>
     <use x="83.7890625" xlink:href="#BitstreamVeraSans-Bold-30"/>
     <use x="153.369140625" xlink:href="#BitstreamVeraSans-Bold-2e"/>
     <use x="191.357421875" xlink:href="#BitstreamVeraSans-Bold-30"/>
     <use x="260.9375" xlink:href="#BitstreamVeraSans-Bold-31"/>
     <use x="330.517578125" xlink:href="#BitstreamVeraSans-Bold-25"/>
    </g>
   </g>
   <g id="legend_2">
    <g id="patch_11">
     <path d="M 590.272211 106.11925 
L 606.272211 106.11925 
L 606.272211 100.51925 
L 590.272211 100.51925 
z
" style="fill:#0cc406;"/>
    </g>
    <g id="text_12">
     <!-- $b&gt;0, d=0$ -->
     <g transform="translate(612.672211174 106.11925)scale(0.08 -0.08)">
      <use transform="translate(0.0 0.609375)" xlink:href="#Cmmi10-62"/>
      <use transform="translate(60.478515625 0.609375)" xlink:href="#Cmmi10-3e"/>
      <use transform="translate(155.72265625 0.609375)" xlink:href="#Cmr10-30"/>
      <use transform="translate(205.72265625 0.609375)" xlink:href="#Cmmi10-3b"/>
      <use transform="translate(250.966796875 0.609375)" xlink:href="#Cmmi10-64"/>
      <use transform="translate(320.52734375 0.609375)" xlink:href="#Cmr10-3d"/>
      <use transform="translate(415.771484375 0.609375)" xlink:href="#Cmr10-30"/>
     </g>
    </g>
    <g id="patch_12">
     <path d="M 590.272211 117.86175 
L 606.272211 117.86175 
L 606.272211 112.26175 
L 590.272211 112.26175 
z
" style="fill:#929999;"/>
    </g>
    <g id="text_13">
     <!-- $b&gt;0, d&gt;0$ -->
     <g transform="translate(612.672211174 117.86175)scale(0.08 -0.08)">
      <use transform="translate(0.0 0.609375)" xlink:href="#Cmmi10-62"/>
      <use transform="translate(60.478515625 0.609375)" xlink:href="#Cmmi10-3e"/>
      <use transform="translate(155.72265625 0.609375)" xlink:href="#Cmr10-30"/>
      <use transform="translate(205.72265625 0.609375)" xlink:href="#Cmmi10-3b"/>
      <use transform="translate(250.966796875 0.609375)" xlink:href="#Cmmi10-64"/>
      <use transform="translate(320.52734375 0.609375)" xlink:href="#Cmmi10-3e"/>
      <use transform="translate(415.771484375 0.609375)" xlink:href="#Cmr10-30"/>
     </g>
    </g>
    <g id="patch_13">
     <path d="M 590.272211 129.60425 
L 606.272211 129.60425 
L 606.272211 124.00425 
L 590.272211 124.00425 
z
" style="fill:#e72929;"/>
    </g>
    <g id="text_14">
     <!-- $b=0, d&gt;0$ -->
     <g transform="translate(612.672211174 129.60425)scale(0.08 -0.08)">
      <use transform="translate(0.0 0.609375)" xlink:href="#Cmmi10-62"/>
      <use transform="translate(60.478515625 0.609375)" xlink:href="#Cmr10-3d"/>
      <use transform="translate(155.72265625 0.609375)" xlink:href="#Cmr10-30"/>
      <use transform="translate(205.72265625 0.609375)" xlink:href="#Cmmi10-3b"/>
      <use transform="translate(250.966796875 0.609375)" xlink:href="#Cmmi10-64"/>
      <use transform="translate(320.52734375 0.609375)" xlink:href="#Cmmi10-3e"/>
      <use transform="translate(415.771484375 0.609375)" xlink:href="#Cmr10-30"/>
     </g>
    </g>
   </g>
  </g>
  <g id="axes_3">
   <g id="patch_14">
    <path d="M 148.599582 309.6 
C 135.972218 309.6 123.498563 312.382101 112.067986 317.747941 
C 100.63741 323.11378 90.528192 330.932724 82.46112 340.647283 
L 148.599582 395.569355 
L 148.599582 309.6 
z
" style="fill:#0cc406;"/>
   </g>
   <g id="patch_15">
    <path d="M 82.46112 340.647283 
C 72.031035 353.207439 65.391515 368.482608 63.323023 384.677222 
C 61.254531 400.871837 63.841421 417.325469 70.77961 432.104025 
C 77.7178 446.882581 88.724343 459.383382 102.505442 468.136981 
C 116.286541 476.89058 132.280194 481.54 148.606375 481.53871 
C 164.932556 481.53742 180.925473 476.885472 194.705189 468.129695 
C 208.484904 459.373918 219.489472 446.871378 226.425326 432.091726 
C 233.361179 417.312073 235.945469 400.858032 233.874418 384.663745 
C 231.803366 368.469458 225.161432 353.195338 214.729362 340.636831 
L 148.599582 395.569355 
L 82.46112 340.647283 
z
" style="fill:#929999;"/>
   </g>
   <g id="patch_16">
    <path d="M 214.729362 340.636831 
C 206.662221 330.925312 196.553958 323.10902 185.125035 317.745057 
C 173.696111 312.381095 161.224667 309.600002 148.599598 309.6 
L 148.599582 395.569355 
L 214.729362 340.636831 
z
" style="fill:#e72929;"/>
   </g>
   <g id="matplotlib.axis_5">
    <g id="text_15">
     <!-- Vinayagam -->
     <g transform="translate(126.061875 492.61875)scale(0.08 -0.08)">
      <use xlink:href="#BitstreamVeraSans-Roman-56"/>
      <use x="68.376953125" xlink:href="#BitstreamVeraSans-Roman-69"/>
      <use x="96.16015625" xlink:href="#BitstreamVeraSans-Roman-6e"/>
      <use x="159.5390625" xlink:href="#BitstreamVeraSans-Roman-61"/>
      <use x="220.818359375" xlink:href="#BitstreamVeraSans-Roman-79"/>
      <use x="279.998046875" xlink:href="#BitstreamVeraSans-Roman-61"/>
      <use x="341.27734375" xlink:href="#BitstreamVeraSans-Roman-67"/>
      <use x="404.75390625" xlink:href="#BitstreamVeraSans-Roman-61"/>
      <use x="466.033203125" xlink:href="#BitstreamVeraSans-Roman-6d"/>
     </g>
     <!-- [$p=100.0, t=000.1$, V4EU, MINKNAP, 4X, BOTH, SCRAMBLE, 38K instances] -->
     <defs>
      <path d="M 31.78125 34.625 
Q 24.75 34.625 20.71875 30.859375 
Q 16.703125 27.09375 16.703125 20.515625 
Q 16.703125 13.921875 20.71875 10.15625 
Q 24.75 6.390625 31.78125 6.390625 
Q 38.8125 6.390625 42.859375 10.171875 
Q 46.921875 13.96875 46.921875 20.515625 
Q 46.921875 27.09375 42.890625 30.859375 
Q 38.875 34.625 31.78125 34.625 
M 21.921875 38.8125 
Q 15.578125 40.375 12.03125 44.71875 
Q 8.5 49.078125 8.5 55.328125 
Q 8.5 64.0625 14.71875 69.140625 
Q 20.953125 74.21875 31.78125 74.21875 
Q 42.671875 74.21875 48.875 69.140625 
Q 55.078125 64.0625 55.078125 55.328125 
Q 55.078125 49.078125 51.53125 44.71875 
Q 48 40.375 41.703125 38.8125 
Q 48.828125 37.15625 52.796875 32.3125 
Q 56.78125 27.484375 56.78125 20.515625 
Q 56.78125 9.90625 50.3125 4.234375 
Q 43.84375 -1.421875 31.78125 -1.421875 
Q 19.734375 -1.421875 13.25 4.234375 
Q 6.78125 9.90625 6.78125 20.515625 
Q 6.78125 27.484375 10.78125 32.3125 
Q 14.796875 37.15625 21.921875 38.8125 
M 18.3125 54.390625 
Q 18.3125 48.734375 21.84375 45.5625 
Q 25.390625 42.390625 31.78125 42.390625 
Q 38.140625 42.390625 41.71875 45.5625 
Q 45.3125 48.734375 45.3125 54.390625 
Q 45.3125 60.0625 41.71875 63.234375 
Q 38.140625 66.40625 31.78125 66.40625 
Q 25.390625 66.40625 21.84375 63.234375 
Q 18.3125 60.0625 18.3125 54.390625 
" id="BitstreamVeraSans-Roman-38"/>
      <path d="M 64.40625 67.28125 
L 64.40625 56.890625 
Q 59.421875 61.53125 53.78125 63.8125 
Q 48.140625 66.109375 41.796875 66.109375 
Q 29.296875 66.109375 22.65625 58.46875 
Q 16.015625 50.828125 16.015625 36.375 
Q 16.015625 21.96875 22.65625 14.328125 
Q 29.296875 6.6875 41.796875 6.6875 
Q 48.140625 6.6875 53.78125 8.984375 
Q 59.421875 11.28125 64.40625 15.921875 
L 64.40625 5.609375 
Q 59.234375 2.09375 53.4375 0.328125 
Q 47.65625 -1.421875 41.21875 -1.421875 
Q 24.65625 -1.421875 15.125 8.703125 
Q 5.609375 18.84375 5.609375 36.375 
Q 5.609375 53.953125 15.125 64.078125 
Q 24.65625 74.21875 41.21875 74.21875 
Q 47.75 74.21875 53.53125 72.484375 
Q 59.328125 70.75 64.40625 67.28125 
" id="BitstreamVeraSans-Roman-43"/>
      <path d="M 9.8125 72.90625 
L 19.671875 72.90625 
L 19.671875 8.296875 
L 55.171875 8.296875 
L 55.171875 0 
L 9.8125 0 
z
" id="BitstreamVeraSans-Roman-4c"/>
     </defs>
     <g transform="translate(0.72 501.577)scale(0.08 -0.08)">
      <use transform="translate(0.0 0.015625)" xlink:href="#BitstreamVeraSans-Roman-5b"/>
      <use transform="translate(39.013671875 0.015625)" xlink:href="#Cmmi10-70"/>
      <use transform="translate(106.865234375 0.015625)" xlink:href="#Cmr10-3d"/>
      <use transform="translate(202.109375 0.015625)" xlink:href="#Cmr10-31"/>
      <use transform="translate(252.109375 0.015625)" xlink:href="#Cmr10-30"/>
      <use transform="translate(302.109375 0.015625)" xlink:href="#Cmr10-30"/>
      <use transform="translate(352.109375 0.015625)" xlink:href="#Cmmi10-3a"/>
      <use transform="translate(397.353515625 0.015625)" xlink:href="#Cmr10-30"/>
      <use transform="translate(447.353515625 0.015625)" xlink:href="#Cmmi10-3b"/>
      <use transform="translate(492.59765625 0.015625)" xlink:href="#Cmmi10-74"/>
      <use transform="translate(546.240234375 0.015625)" xlink:href="#Cmr10-3d"/>
      <use transform="translate(641.484375 0.015625)" xlink:href="#Cmr10-30"/>
      <use transform="translate(691.484375 0.015625)" xlink:href="#Cmr10-30"/>
      <use transform="translate(741.484375 0.015625)" xlink:href="#Cmr10-30"/>
      <use transform="translate(791.484375 0.015625)" xlink:href="#Cmmi10-3a"/>
      <use transform="translate(836.728515625 0.015625)" xlink:href="#Cmr10-31"/>
      <use transform="translate(886.728515625 0.015625)" xlink:href="#BitstreamVeraSans-Roman-2c"/>
      <use transform="translate(918.515625 0.015625)" xlink:href="#BitstreamVeraSans-Roman-20"/>
      <use transform="translate(950.302734375 0.015625)" xlink:href="#BitstreamVeraSans-Roman-56"/>
      <use transform="translate(1018.7109375 0.015625)" xlink:href="#BitstreamVeraSans-Roman-34"/>
      <use transform="translate(1082.333984375 0.015625)" xlink:href="#BitstreamVeraSans-Roman-45"/>
      <use transform="translate(1145.517578125 0.015625)" xlink:href="#BitstreamVeraSans-Roman-55"/>
      <use transform="translate(1218.7109375 0.015625)" xlink:href="#BitstreamVeraSans-Roman-2c"/>
      <use transform="translate(1250.498046875 0.015625)" xlink:href="#BitstreamVeraSans-Roman-20"/>
      <use transform="translate(1282.28515625 0.015625)" xlink:href="#BitstreamVeraSans-Roman-4d"/>
      <use transform="translate(1368.564453125 0.015625)" xlink:href="#BitstreamVeraSans-Roman-49"/>
      <use transform="translate(1398.056640625 0.015625)" xlink:href="#BitstreamVeraSans-Roman-4e"/>
      <use transform="translate(1472.861328125 0.015625)" xlink:href="#BitstreamVeraSans-Roman-4b"/>
      <use transform="translate(1538.4375 0.015625)" xlink:href="#BitstreamVeraSans-Roman-4e"/>
      <use transform="translate(1613.2421875 0.015625)" xlink:href="#BitstreamVeraSans-Roman-41"/>
      <use transform="translate(1681.650390625 0.015625)" xlink:href="#BitstreamVeraSans-Roman-50"/>
      <use transform="translate(1741.953125 0.015625)" xlink:href="#BitstreamVeraSans-Roman-2c"/>
      <use transform="translate(1773.740234375 0.015625)" xlink:href="#BitstreamVeraSans-Roman-20"/>
      <use transform="translate(1805.52734375 0.015625)" xlink:href="#BitstreamVeraSans-Roman-34"/>
      <use transform="translate(1869.150390625 0.015625)" xlink:href="#BitstreamVeraSans-Roman-58"/>
      <use transform="translate(1937.65625 0.015625)" xlink:href="#BitstreamVeraSans-Roman-2c"/>
      <use transform="translate(1969.443359375 0.015625)" xlink:href="#BitstreamVeraSans-Roman-20"/>
      <use transform="translate(2001.23046875 0.015625)" xlink:href="#BitstreamVeraSans-Roman-42"/>
      <use transform="translate(2069.833984375 0.015625)" xlink:href="#BitstreamVeraSans-Roman-4f"/>
      <use transform="translate(2148.544921875 0.015625)" xlink:href="#BitstreamVeraSans-Roman-54"/>
      <use transform="translate(2209.62890625 0.015625)" xlink:href="#BitstreamVeraSans-Roman-48"/>
      <use transform="translate(2284.82421875 0.015625)" xlink:href="#BitstreamVeraSans-Roman-2c"/>
      <use transform="translate(2316.611328125 0.015625)" xlink:href="#BitstreamVeraSans-Roman-20"/>
      <use transform="translate(2348.3984375 0.015625)" xlink:href="#BitstreamVeraSans-Roman-53"/>
      <use transform="translate(2411.875 0.015625)" xlink:href="#BitstreamVeraSans-Roman-43"/>
      <use transform="translate(2481.69921875 0.015625)" xlink:href="#BitstreamVeraSans-Roman-52"/>
      <use transform="translate(2551.181640625 0.015625)" xlink:href="#BitstreamVeraSans-Roman-41"/>
      <use transform="translate(2619.58984375 0.015625)" xlink:href="#BitstreamVeraSans-Roman-4d"/>
      <use transform="translate(2705.869140625 0.015625)" xlink:href="#BitstreamVeraSans-Roman-42"/>
      <use transform="translate(2774.47265625 0.015625)" xlink:href="#BitstreamVeraSans-Roman-4c"/>
      <use transform="translate(2830.185546875 0.015625)" xlink:href="#BitstreamVeraSans-Roman-45"/>
      <use transform="translate(2893.369140625 0.015625)" xlink:href="#BitstreamVeraSans-Roman-2c"/>
      <use transform="translate(2925.15625 0.015625)" xlink:href="#BitstreamVeraSans-Roman-20"/>
      <use transform="translate(2956.943359375 0.015625)" xlink:href="#BitstreamVeraSans-Roman-33"/>
      <use transform="translate(3020.56640625 0.015625)" xlink:href="#BitstreamVeraSans-Roman-38"/>
      <use transform="translate(3084.189453125 0.015625)" xlink:href="#BitstreamVeraSans-Roman-4b"/>
      <use transform="translate(3149.765625 0.015625)" xlink:href="#BitstreamVeraSans-Roman-20"/>
      <use transform="translate(3181.552734375 0.015625)" xlink:href="#BitstreamVeraSans-Roman-69"/>
      <use transform="translate(3209.3359375 0.015625)" xlink:href="#BitstreamVeraSans-Roman-6e"/>
      <use transform="translate(3272.71484375 0.015625)" xlink:href="#BitstreamVeraSans-Roman-73"/>
      <use transform="translate(3324.814453125 0.015625)" xlink:href="#BitstreamVeraSans-Roman-74"/>
      <use transform="translate(3364.0234375 0.015625)" xlink:href="#BitstreamVeraSans-Roman-61"/>
      <use transform="translate(3425.302734375 0.015625)" xlink:href="#BitstreamVeraSans-Roman-6e"/>
      <use transform="translate(3488.681640625 0.015625)" xlink:href="#BitstreamVeraSans-Roman-63"/>
      <use transform="translate(3543.662109375 0.015625)" xlink:href="#BitstreamVeraSans-Roman-65"/>
      <use transform="translate(3605.185546875 0.015625)" xlink:href="#BitstreamVeraSans-Roman-73"/>
      <use transform="translate(3657.28515625 0.015625)" xlink:href="#BitstreamVeraSans-Roman-5d"/>
     </g>
    </g>
   </g>
   <g id="matplotlib.axis_6"/>
   <g id="text_16">
    <!-- 14.0% -->
    <g style="fill:#ffffff;" transform="translate(112.803749325 346.604881384)scale(0.08 -0.08)">
     <use xlink:href="#BitstreamVeraSans-Bold-31"/>
     <use x="69.580078125" xlink:href="#BitstreamVeraSans-Bold-34"/>
     <use x="139.16015625" xlink:href="#BitstreamVeraSans-Bold-2e"/>
     <use x="177.1484375" xlink:href="#BitstreamVeraSans-Bold-30"/>
     <use x="246.728515625" xlink:href="#BitstreamVeraSans-Bold-25"/>
    </g>
    <!-- ±0.01% -->
    <g style="fill:#ffffff;" transform="translate(109.451874325 355.563131384)scale(0.08 -0.08)">
     <use xlink:href="#BitstreamVeraSans-Bold-b1"/>
     <use x="83.7890625" xlink:href="#BitstreamVeraSans-Bold-30"/>
     <use x="153.369140625" xlink:href="#BitstreamVeraSans-Bold-2e"/>
     <use x="191.357421875" xlink:href="#BitstreamVeraSans-Bold-30"/>
     <use x="260.9375" xlink:href="#BitstreamVeraSans-Bold-31"/>
     <use x="330.517578125" xlink:href="#BitstreamVeraSans-Bold-25"/>
    </g>
   </g>
   <g id="text_17">
    <!-- 72.1% -->
    <g style="fill:#ffffff;" transform="translate(134.726782568 444.879342965)scale(0.08 -0.08)">
     <use xlink:href="#BitstreamVeraSans-Bold-37"/>
     <use x="69.580078125" xlink:href="#BitstreamVeraSans-Bold-32"/>
     <use x="139.16015625" xlink:href="#BitstreamVeraSans-Bold-2e"/>
     <use x="177.1484375" xlink:href="#BitstreamVeraSans-Bold-31"/>
     <use x="246.728515625" xlink:href="#BitstreamVeraSans-Bold-25"/>
    </g>
    <!-- ±0.01% -->
    <g style="fill:#ffffff;" transform="translate(131.374907568 453.837592965)scale(0.08 -0.08)">
     <use xlink:href="#BitstreamVeraSans-Bold-b1"/>
     <use x="83.7890625" xlink:href="#BitstreamVeraSans-Bold-30"/>
     <use x="153.369140625" xlink:href="#BitstreamVeraSans-Bold-2e"/>
     <use x="191.357421875" xlink:href="#BitstreamVeraSans-Bold-30"/>
     <use x="260.9375" xlink:href="#BitstreamVeraSans-Bold-31"/>
     <use x="330.517578125" xlink:href="#BitstreamVeraSans-Bold-25"/>
    </g>
   </g>
   <g id="text_18">
    <!-- 14.0% -->
    <g style="fill:#ffffff;" transform="translate(156.63797834 346.603151524)scale(0.08 -0.08)">
     <use xlink:href="#BitstreamVeraSans-Bold-31"/>
     <use x="69.580078125" xlink:href="#BitstreamVeraSans-Bold-34"/>
     <use x="139.16015625" xlink:href="#BitstreamVeraSans-Bold-2e"/>
     <use x="177.1484375" xlink:href="#BitstreamVeraSans-Bold-30"/>
     <use x="246.728515625" xlink:href="#BitstreamVeraSans-Bold-25"/>
    </g>
    <!-- ±0.01% -->
    <g style="fill:#ffffff;" transform="translate(153.28610334 355.561401524)scale(0.08 -0.08)">
     <use xlink:href="#BitstreamVeraSans-Bold-b1"/>
     <use x="83.7890625" xlink:href="#BitstreamVeraSans-Bold-30"/>
     <use x="153.369140625" xlink:href="#BitstreamVeraSans-Bold-2e"/>
     <use x="191.357421875" xlink:href="#BitstreamVeraSans-Bold-30"/>
     <use x="260.9375" xlink:href="#BitstreamVeraSans-Bold-31"/>
     <use x="330.517578125" xlink:href="#BitstreamVeraSans-Bold-25"/>
    </g>
   </g>
   <g id="legend_3">
    <g id="patch_17">
     <path d="M 238.443574 315.63925 
L 254.443574 315.63925 
L 254.443574 310.03925 
L 238.443574 310.03925 
z
" style="fill:#0cc406;"/>
    </g>
    <g id="text_19">
     <!-- $b&gt;0, d=0$ -->
     <g transform="translate(260.843573555 315.63925)scale(0.08 -0.08)">
      <use transform="translate(0.0 0.609375)" xlink:href="#Cmmi10-62"/>
      <use transform="translate(60.478515625 0.609375)" xlink:href="#Cmmi10-3e"/>
      <use transform="translate(155.72265625 0.609375)" xlink:href="#Cmr10-30"/>
      <use transform="translate(205.72265625 0.609375)" xlink:href="#Cmmi10-3b"/>
      <use transform="translate(250.966796875 0.609375)" xlink:href="#Cmmi10-64"/>
      <use transform="translate(320.52734375 0.609375)" xlink:href="#Cmr10-3d"/>
      <use transform="translate(415.771484375 0.609375)" xlink:href="#Cmr10-30"/>
     </g>
    </g>
    <g id="patch_18">
     <path d="M 238.443574 327.38175 
L 254.443574 327.38175 
L 254.443574 321.78175 
L 238.443574 321.78175 
z
" style="fill:#929999;"/>
    </g>
    <g id="text_20">
     <!-- $b&gt;0, d&gt;0$ -->
     <g transform="translate(260.843573555 327.38175)scale(0.08 -0.08)">
      <use transform="translate(0.0 0.609375)" xlink:href="#Cmmi10-62"/>
      <use transform="translate(60.478515625 0.609375)" xlink:href="#Cmmi10-3e"/>
      <use transform="translate(155.72265625 0.609375)" xlink:href="#Cmr10-30"/>
      <use transform="translate(205.72265625 0.609375)" xlink:href="#Cmmi10-3b"/>
      <use transform="translate(250.966796875 0.609375)" xlink:href="#Cmmi10-64"/>
      <use transform="translate(320.52734375 0.609375)" xlink:href="#Cmmi10-3e"/>
      <use transform="translate(415.771484375 0.609375)" xlink:href="#Cmr10-30"/>
     </g>
    </g>
    <g id="patch_19">
     <path d="M 238.443574 339.12425 
L 254.443574 339.12425 
L 254.443574 333.52425 
L 238.443574 333.52425 
z
" style="fill:#e72929;"/>
    </g>
    <g id="text_21">
     <!-- $b=0, d&gt;0$ -->
     <g transform="translate(260.843573555 339.12425)scale(0.08 -0.08)">
      <use transform="translate(0.0 0.609375)" xlink:href="#Cmmi10-62"/>
      <use transform="translate(60.478515625 0.609375)" xlink:href="#Cmr10-3d"/>
      <use transform="translate(155.72265625 0.609375)" xlink:href="#Cmr10-30"/>
      <use transform="translate(205.72265625 0.609375)" xlink:href="#Cmmi10-3b"/>
      <use transform="translate(250.966796875 0.609375)" xlink:href="#Cmmi10-64"/>
      <use transform="translate(320.52734375 0.609375)" xlink:href="#Cmmi10-3e"/>
      <use transform="translate(415.771484375 0.609375)" xlink:href="#Cmr10-30"/>
     </g>
    </g>
   </g>
  </g>
  <g id="axes_4">
   <g id="patch_20">
    <path d="M 500.428283 309.6 
C 488.261248 309.6 476.231687 312.182963 465.137101 317.177651 
C 454.042515 322.172339 444.133617 329.465883 436.067319 338.574757 
L 500.428283 395.569148 
L 500.428283 309.6 
z
" style="fill:#0cc406;"/>
   </g>
   <g id="patch_21">
    <path d="M 436.067319 338.574757 
C 425.089704 350.971237 417.92388 366.279243 415.435462 382.649598 
C 412.947045 399.019953 415.240437 415.765831 422.038602 430.864364 
C 428.836766 445.962897 439.854484 458.780619 453.760835 467.769174 
C 467.667187 476.75773 483.878726 481.54 500.437129 481.538296 
C 516.995533 481.536592 533.206087 476.750986 547.110589 467.759569 
C 561.01509 458.768152 572.03017 445.948163 578.825227 430.848231 
C 585.620285 415.7483 587.910231 399.00195 585.418444 382.632107 
C 582.926658 366.262265 575.757683 350.955734 564.777518 338.561513 
L 500.428283 395.569148 
L 436.067319 338.574757 
z
" style="fill:#929999;"/>
   </g>
   <g id="patch_22">
    <path d="M 564.777518 338.561513 
C 556.711322 329.456531 546.803781 322.166343 535.7114 317.17402 
C 524.619019 312.181697 512.592337 309.6 500.428283 309.6 
L 500.428283 395.569148 
L 564.777518 338.561513 
z
" style="fill:#e72929;"/>
   </g>
   <g id="matplotlib.axis_7">
    <g id="text_22">
     <!-- ER_Vinayagam -->
     <g transform="translate(470.583637619 492.84125)scale(0.08 -0.08)">
      <use xlink:href="#BitstreamVeraSans-Roman-45"/>
      <use x="63.18359375" xlink:href="#BitstreamVeraSans-Roman-52"/>
      <use x="132.666015625" xlink:href="#BitstreamVeraSans-Roman-5f"/>
      <use x="182.666015625" xlink:href="#BitstreamVeraSans-Roman-56"/>
      <use x="251.04296875" xlink:href="#BitstreamVeraSans-Roman-69"/>
      <use x="278.826171875" xlink:href="#BitstreamVeraSans-Roman-6e"/>
      <use x="342.205078125" xlink:href="#BitstreamVeraSans-Roman-61"/>
      <use x="403.484375" xlink:href="#BitstreamVeraSans-Roman-79"/>
      <use x="462.6640625" xlink:href="#BitstreamVeraSans-Roman-61"/>
      <use x="523.943359375" xlink:href="#BitstreamVeraSans-Roman-67"/>
      <use x="587.419921875" xlink:href="#BitstreamVeraSans-Roman-61"/>
      <use x="648.69921875" xlink:href="#BitstreamVeraSans-Roman-6d"/>
     </g>
     <!-- [$p=100.0, t=000.1$, V4EU, MINKNAP, 4X, BOTH, SCRAMBLE, 38K instances] -->
     <g transform="translate(352.548637619 502.022)scale(0.08 -0.08)">
      <use transform="translate(0.0 0.015625)" xlink:href="#BitstreamVeraSans-Roman-5b"/>
      <use transform="translate(39.013671875 0.015625)" xlink:href="#Cmmi10-70"/>
      <use transform="translate(106.865234375 0.015625)" xlink:href="#Cmr10-3d"/>
      <use transform="translate(202.109375 0.015625)" xlink:href="#Cmr10-31"/>
      <use transform="translate(252.109375 0.015625)" xlink:href="#Cmr10-30"/>
      <use transform="translate(302.109375 0.015625)" xlink:href="#Cmr10-30"/>
      <use transform="translate(352.109375 0.015625)" xlink:href="#Cmmi10-3a"/>
      <use transform="translate(397.353515625 0.015625)" xlink:href="#Cmr10-30"/>
      <use transform="translate(447.353515625 0.015625)" xlink:href="#Cmmi10-3b"/>
      <use transform="translate(492.59765625 0.015625)" xlink:href="#Cmmi10-74"/>
      <use transform="translate(546.240234375 0.015625)" xlink:href="#Cmr10-3d"/>
      <use transform="translate(641.484375 0.015625)" xlink:href="#Cmr10-30"/>
      <use transform="translate(691.484375 0.015625)" xlink:href="#Cmr10-30"/>
      <use transform="translate(741.484375 0.015625)" xlink:href="#Cmr10-30"/>
      <use transform="translate(791.484375 0.015625)" xlink:href="#Cmmi10-3a"/>
      <use transform="translate(836.728515625 0.015625)" xlink:href="#Cmr10-31"/>
      <use transform="translate(886.728515625 0.015625)" xlink:href="#BitstreamVeraSans-Roman-2c"/>
      <use transform="translate(918.515625 0.015625)" xlink:href="#BitstreamVeraSans-Roman-20"/>
      <use transform="translate(950.302734375 0.015625)" xlink:href="#BitstreamVeraSans-Roman-56"/>
      <use transform="translate(1018.7109375 0.015625)" xlink:href="#BitstreamVeraSans-Roman-34"/>
      <use transform="translate(1082.333984375 0.015625)" xlink:href="#BitstreamVeraSans-Roman-45"/>
      <use transform="translate(1145.517578125 0.015625)" xlink:href="#BitstreamVeraSans-Roman-55"/>
      <use transform="translate(1218.7109375 0.015625)" xlink:href="#BitstreamVeraSans-Roman-2c"/>
      <use transform="translate(1250.498046875 0.015625)" xlink:href="#BitstreamVeraSans-Roman-20"/>
      <use transform="translate(1282.28515625 0.015625)" xlink:href="#BitstreamVeraSans-Roman-4d"/>
      <use transform="translate(1368.564453125 0.015625)" xlink:href="#BitstreamVeraSans-Roman-49"/>
      <use transform="translate(1398.056640625 0.015625)" xlink:href="#BitstreamVeraSans-Roman-4e"/>
      <use transform="translate(1472.861328125 0.015625)" xlink:href="#BitstreamVeraSans-Roman-4b"/>
      <use transform="translate(1538.4375 0.015625)" xlink:href="#BitstreamVeraSans-Roman-4e"/>
      <use transform="translate(1613.2421875 0.015625)" xlink:href="#BitstreamVeraSans-Roman-41"/>
      <use transform="translate(1681.650390625 0.015625)" xlink:href="#BitstreamVeraSans-Roman-50"/>
      <use transform="translate(1741.953125 0.015625)" xlink:href="#BitstreamVeraSans-Roman-2c"/>
      <use transform="translate(1773.740234375 0.015625)" xlink:href="#BitstreamVeraSans-Roman-20"/>
      <use transform="translate(1805.52734375 0.015625)" xlink:href="#BitstreamVeraSans-Roman-34"/>
      <use transform="translate(1869.150390625 0.015625)" xlink:href="#BitstreamVeraSans-Roman-58"/>
      <use transform="translate(1937.65625 0.015625)" xlink:href="#BitstreamVeraSans-Roman-2c"/>
      <use transform="translate(1969.443359375 0.015625)" xlink:href="#BitstreamVeraSans-Roman-20"/>
      <use transform="translate(2001.23046875 0.015625)" xlink:href="#BitstreamVeraSans-Roman-42"/>
      <use transform="translate(2069.833984375 0.015625)" xlink:href="#BitstreamVeraSans-Roman-4f"/>
      <use transform="translate(2148.544921875 0.015625)" xlink:href="#BitstreamVeraSans-Roman-54"/>
      <use transform="translate(2209.62890625 0.015625)" xlink:href="#BitstreamVeraSans-Roman-48"/>
      <use transform="translate(2284.82421875 0.015625)" xlink:href="#BitstreamVeraSans-Roman-2c"/>
      <use transform="translate(2316.611328125 0.015625)" xlink:href="#BitstreamVeraSans-Roman-20"/>
      <use transform="translate(2348.3984375 0.015625)" xlink:href="#BitstreamVeraSans-Roman-53"/>
      <use transform="translate(2411.875 0.015625)" xlink:href="#BitstreamVeraSans-Roman-43"/>
      <use transform="translate(2481.69921875 0.015625)" xlink:href="#BitstreamVeraSans-Roman-52"/>
      <use transform="translate(2551.181640625 0.015625)" xlink:href="#BitstreamVeraSans-Roman-41"/>
      <use transform="translate(2619.58984375 0.015625)" xlink:href="#BitstreamVeraSans-Roman-4d"/>
      <use transform="translate(2705.869140625 0.015625)" xlink:href="#BitstreamVeraSans-Roman-42"/>
      <use transform="translate(2774.47265625 0.015625)" xlink:href="#BitstreamVeraSans-Roman-4c"/>
      <use transform="translate(2830.185546875 0.015625)" xlink:href="#BitstreamVeraSans-Roman-45"/>
      <use transform="translate(2893.369140625 0.015625)" xlink:href="#BitstreamVeraSans-Roman-2c"/>
      <use transform="translate(2925.15625 0.015625)" xlink:href="#BitstreamVeraSans-Roman-20"/>
      <use transform="translate(2956.943359375 0.015625)" xlink:href="#BitstreamVeraSans-Roman-33"/>
      <use transform="translate(3020.56640625 0.015625)" xlink:href="#BitstreamVeraSans-Roman-38"/>
      <use transform="translate(3084.189453125 0.015625)" xlink:href="#BitstreamVeraSans-Roman-4b"/>
      <use transform="translate(3149.765625 0.015625)" xlink:href="#BitstreamVeraSans-Roman-20"/>
      <use transform="translate(3181.552734375 0.015625)" xlink:href="#BitstreamVeraSans-Roman-69"/>
      <use transform="translate(3209.3359375 0.015625)" xlink:href="#BitstreamVeraSans-Roman-6e"/>
      <use transform="translate(3272.71484375 0.015625)" xlink:href="#BitstreamVeraSans-Roman-73"/>
      <use transform="translate(3324.814453125 0.015625)" xlink:href="#BitstreamVeraSans-Roman-74"/>
      <use transform="translate(3364.0234375 0.015625)" xlink:href="#BitstreamVeraSans-Roman-61"/>
      <use transform="translate(3425.302734375 0.015625)" xlink:href="#BitstreamVeraSans-Roman-6e"/>
      <use transform="translate(3488.681640625 0.015625)" xlink:href="#BitstreamVeraSans-Roman-63"/>
      <use transform="translate(3543.662109375 0.015625)" xlink:href="#BitstreamVeraSans-Roman-65"/>
      <use transform="translate(3605.185546875 0.015625)" xlink:href="#BitstreamVeraSans-Roman-73"/>
      <use transform="translate(3657.28515625 0.015625)" xlink:href="#BitstreamVeraSans-Roman-5d"/>
     </g>
    </g>
   </g>
   <g id="matplotlib.axis_8"/>
   <g id="text_23">
    <!-- 13.5% -->
    <defs>
     <path d="M 10.59375 72.90625 
L 57.328125 72.90625 
L 57.328125 59.078125 
L 25.59375 59.078125 
L 25.59375 47.796875 
Q 27.734375 48.390625 29.90625 48.703125 
Q 32.078125 49.03125 34.421875 49.03125 
Q 47.75 49.03125 55.171875 42.359375 
Q 62.59375 35.6875 62.59375 23.78125 
Q 62.59375 11.96875 54.515625 5.265625 
Q 46.4375 -1.421875 32.078125 -1.421875 
Q 25.875 -1.421875 19.796875 -0.21875 
Q 13.71875 0.984375 7.71875 3.421875 
L 7.71875 18.21875 
Q 13.671875 14.796875 19.015625 13.078125 
Q 24.359375 11.375 29.109375 11.375 
Q 35.9375 11.375 39.859375 14.71875 
Q 43.796875 18.0625 43.796875 23.78125 
Q 43.796875 29.546875 39.859375 32.859375 
Q 35.9375 36.1875 29.109375 36.1875 
Q 25.046875 36.1875 20.453125 35.125 
Q 15.875 34.078125 10.59375 31.890625 
z
" id="BitstreamVeraSans-Bold-35"/>
     <path d="M 46.578125 39.3125 
Q 53.953125 37.40625 57.78125 32.6875 
Q 61.625 27.984375 61.625 20.703125 
Q 61.625 9.859375 53.3125 4.21875 
Q 45.015625 -1.421875 29.109375 -1.421875 
Q 23.484375 -1.421875 17.84375 -0.515625 
Q 12.203125 0.390625 6.6875 2.203125 
L 6.6875 16.703125 
Q 11.96875 14.0625 17.15625 12.71875 
Q 22.359375 11.375 27.390625 11.375 
Q 34.859375 11.375 38.84375 13.953125 
Q 42.828125 16.546875 42.828125 21.390625 
Q 42.828125 26.375 38.75 28.9375 
Q 34.671875 31.5 26.703125 31.5 
L 19.1875 31.5 
L 19.1875 43.609375 
L 27.09375 43.609375 
Q 34.1875 43.609375 37.640625 45.828125 
Q 41.109375 48.046875 41.109375 52.59375 
Q 41.109375 56.78125 37.734375 59.078125 
Q 34.375 61.375 28.21875 61.375 
Q 23.6875 61.375 19.046875 60.34375 
Q 14.40625 59.328125 9.8125 57.328125 
L 9.8125 71.09375 
Q 15.375 72.65625 20.84375 73.4375 
Q 26.3125 74.21875 31.59375 74.21875 
Q 45.796875 74.21875 52.84375 69.546875 
Q 59.90625 64.890625 59.90625 55.515625 
Q 59.90625 49.125 56.53125 45.046875 
Q 53.171875 40.96875 46.578125 39.3125 
" id="BitstreamVeraSans-Bold-33"/>
    </defs>
    <g style="fill:#ffffff;" transform="translate(465.376698893 346.262624782)scale(0.08 -0.08)">
     <use xlink:href="#BitstreamVeraSans-Bold-31"/>
     <use x="69.580078125" xlink:href="#BitstreamVeraSans-Bold-33"/>
     <use x="139.16015625" xlink:href="#BitstreamVeraSans-Bold-2e"/>
     <use x="177.1484375" xlink:href="#BitstreamVeraSans-Bold-35"/>
     <use x="246.728515625" xlink:href="#BitstreamVeraSans-Bold-25"/>
    </g>
    <!-- ±0.01% -->
    <g style="fill:#ffffff;" transform="translate(462.024823893 355.220874782)scale(0.08 -0.08)">
     <use xlink:href="#BitstreamVeraSans-Bold-b1"/>
     <use x="83.7890625" xlink:href="#BitstreamVeraSans-Bold-30"/>
     <use x="153.369140625" xlink:href="#BitstreamVeraSans-Bold-2e"/>
     <use x="191.357421875" xlink:href="#BitstreamVeraSans-Bold-30"/>
     <use x="260.9375" xlink:href="#BitstreamVeraSans-Bold-31"/>
     <use x="330.517578125" xlink:href="#BitstreamVeraSans-Bold-25"/>
    </g>
   </g>
   <g id="text_24">
    <!-- 73.1% -->
    <g style="fill:#ffffff;" transform="translate(486.556715991 444.879012059)scale(0.08 -0.08)">
     <use xlink:href="#BitstreamVeraSans-Bold-37"/>
     <use x="69.580078125" xlink:href="#BitstreamVeraSans-Bold-33"/>
     <use x="139.16015625" xlink:href="#BitstreamVeraSans-Bold-2e"/>
     <use x="177.1484375" xlink:href="#BitstreamVeraSans-Bold-31"/>
     <use x="246.728515625" xlink:href="#BitstreamVeraSans-Bold-25"/>
    </g>
    <!-- ±0.01% -->
    <g style="fill:#ffffff;" transform="translate(483.204840991 453.837262059)scale(0.08 -0.08)">
     <use xlink:href="#BitstreamVeraSans-Bold-b1"/>
     <use x="83.7890625" xlink:href="#BitstreamVeraSans-Bold-30"/>
     <use x="153.369140625" xlink:href="#BitstreamVeraSans-Bold-2e"/>
     <use x="191.357421875" xlink:href="#BitstreamVeraSans-Bold-30"/>
     <use x="260.9375" xlink:href="#BitstreamVeraSans-Bold-31"/>
     <use x="330.517578125" xlink:href="#BitstreamVeraSans-Bold-25"/>
    </g>
   </g>
   <g id="text_25">
    <!-- 13.5% -->
    <g style="fill:#ffffff;" transform="translate(507.721278245 346.260446242)scale(0.08 -0.08)">
     <use xlink:href="#BitstreamVeraSans-Bold-31"/>
     <use x="69.580078125" xlink:href="#BitstreamVeraSans-Bold-33"/>
     <use x="139.16015625" xlink:href="#BitstreamVeraSans-Bold-2e"/>
     <use x="177.1484375" xlink:href="#BitstreamVeraSans-Bold-35"/>
     <use x="246.728515625" xlink:href="#BitstreamVeraSans-Bold-25"/>
    </g>
    <!-- ±0.01% -->
    <g style="fill:#ffffff;" transform="translate(504.369403245 355.218696242)scale(0.08 -0.08)">
     <use xlink:href="#BitstreamVeraSans-Bold-b1"/>
     <use x="83.7890625" xlink:href="#BitstreamVeraSans-Bold-30"/>
     <use x="153.369140625" xlink:href="#BitstreamVeraSans-Bold-2e"/>
     <use x="191.357421875" xlink:href="#BitstreamVeraSans-Bold-30"/>
     <use x="260.9375" xlink:href="#BitstreamVeraSans-Bold-31"/>
     <use x="330.517578125" xlink:href="#BitstreamVeraSans-Bold-25"/>
    </g>
   </g>
   <g id="legend_4">
    <g id="patch_23">
     <path d="M 590.272211 315.63925 
L 606.272211 315.63925 
L 606.272211 310.03925 
L 590.272211 310.03925 
z
" style="fill:#0cc406;"/>
    </g>
    <g id="text_26">
     <!-- $b&gt;0, d=0$ -->
     <g transform="translate(612.672211174 315.63925)scale(0.08 -0.08)">
      <use transform="translate(0.0 0.609375)" xlink:href="#Cmmi10-62"/>
      <use transform="translate(60.478515625 0.609375)" xlink:href="#Cmmi10-3e"/>
      <use transform="translate(155.72265625 0.609375)" xlink:href="#Cmr10-30"/>
      <use transform="translate(205.72265625 0.609375)" xlink:href="#Cmmi10-3b"/>
      <use transform="translate(250.966796875 0.609375)" xlink:href="#Cmmi10-64"/>
      <use transform="translate(320.52734375 0.609375)" xlink:href="#Cmr10-3d"/>
      <use transform="translate(415.771484375 0.609375)" xlink:href="#Cmr10-30"/>
     </g>
    </g>
    <g id="patch_24">
     <path d="M 590.272211 327.38175 
L 606.272211 327.38175 
L 606.272211 321.78175 
L 590.272211 321.78175 
z
" style="fill:#929999;"/>
    </g>
    <g id="text_27">
     <!-- $b&gt;0, d&gt;0$ -->
     <g transform="translate(612.672211174 327.38175)scale(0.08 -0.08)">
      <use transform="translate(0.0 0.609375)" xlink:href="#Cmmi10-62"/>
      <use transform="translate(60.478515625 0.609375)" xlink:href="#Cmmi10-3e"/>
      <use transform="translate(155.72265625 0.609375)" xlink:href="#Cmr10-30"/>
      <use transform="translate(205.72265625 0.609375)" xlink:href="#Cmmi10-3b"/>
      <use transform="translate(250.966796875 0.609375)" xlink:href="#Cmmi10-64"/>
      <use transform="translate(320.52734375 0.609375)" xlink:href="#Cmmi10-3e"/>
      <use transform="translate(415.771484375 0.609375)" xlink:href="#Cmr10-30"/>
     </g>
    </g>
    <g id="patch_25">
     <path d="M 590.272211 339.12425 
L 606.272211 339.12425 
L 606.272211 333.52425 
L 590.272211 333.52425 
z
" style="fill:#e72929;"/>
    </g>
    <g id="text_28">
     <!-- $b=0, d&gt;0$ -->
     <g transform="translate(612.672211174 339.12425)scale(0.08 -0.08)">
      <use transform="translate(0.0 0.609375)" xlink:href="#Cmmi10-62"/>
      <use transform="translate(60.478515625 0.609375)" xlink:href="#Cmr10-3d"/>
      <use transform="translate(155.72265625 0.609375)" xlink:href="#Cmr10-30"/>
      <use transform="translate(205.72265625 0.609375)" xlink:href="#Cmmi10-3b"/>
      <use transform="translate(250.966796875 0.609375)" xlink:href="#Cmmi10-64"/>
      <use transform="translate(320.52734375 0.609375)" xlink:href="#Cmmi10-3e"/>
      <use transform="translate(415.771484375 0.609375)" xlink:href="#Cmr10-30"/>
     </g>
    </g>
   </g>
  </g>
  <g id="text_29">
   <!--  -->
   <g transform="translate(322.822956429 14.3971875)scale(0.18 -0.18)"/>
   <!-- Green, Grey, and Red Genes -->
   <defs>
    <path d="M 59.515625 10.40625 
L 59.515625 29.984375 
L 43.40625 29.984375 
L 43.40625 38.09375 
L 69.28125 38.09375 
L 69.28125 6.78125 
Q 63.578125 2.734375 56.6875 0.65625 
Q 49.8125 -1.421875 42 -1.421875 
Q 24.90625 -1.421875 15.25 8.5625 
Q 5.609375 18.5625 5.609375 36.375 
Q 5.609375 54.25 15.25 64.234375 
Q 24.90625 74.21875 42 74.21875 
Q 49.125 74.21875 55.546875 72.453125 
Q 61.96875 70.703125 67.390625 67.28125 
L 67.390625 56.78125 
Q 61.921875 61.421875 55.765625 63.765625 
Q 49.609375 66.109375 42.828125 66.109375 
Q 29.4375 66.109375 22.71875 58.640625 
Q 16.015625 51.171875 16.015625 36.375 
Q 16.015625 21.625 22.71875 14.15625 
Q 29.4375 6.6875 42.828125 6.6875 
Q 48.046875 6.6875 52.140625 7.59375 
Q 56.25 8.5 59.515625 10.40625 
" id="BitstreamVeraSans-Roman-47"/>
    <path d="M 41.109375 46.296875 
Q 39.59375 47.171875 37.8125 47.578125 
Q 36.03125 48 33.890625 48 
Q 26.265625 48 22.1875 43.046875 
Q 18.109375 38.09375 18.109375 28.8125 
L 18.109375 0 
L 9.078125 0 
L 9.078125 54.6875 
L 18.109375 54.6875 
L 18.109375 46.1875 
Q 20.953125 51.171875 25.484375 53.578125 
Q 30.03125 56 36.53125 56 
Q 37.453125 56 38.578125 55.875 
Q 39.703125 55.765625 41.0625 55.515625 
z
" id="BitstreamVeraSans-Roman-72"/>
    <path d="M 45.40625 46.390625 
L 45.40625 75.984375 
L 54.390625 75.984375 
L 54.390625 0 
L 45.40625 0 
L 45.40625 8.203125 
Q 42.578125 3.328125 38.25 0.953125 
Q 33.9375 -1.421875 27.875 -1.421875 
Q 17.96875 -1.421875 11.734375 6.484375 
Q 5.515625 14.40625 5.515625 27.296875 
Q 5.515625 40.1875 11.734375 48.09375 
Q 17.96875 56 27.875 56 
Q 33.9375 56 38.25 53.625 
Q 42.578125 51.265625 45.40625 46.390625 
M 14.796875 27.296875 
Q 14.796875 17.390625 18.875 11.75 
Q 22.953125 6.109375 30.078125 6.109375 
Q 37.203125 6.109375 41.296875 11.75 
Q 45.40625 17.390625 45.40625 27.296875 
Q 45.40625 37.203125 41.296875 42.84375 
Q 37.203125 48.484375 30.078125 48.484375 
Q 22.953125 48.484375 18.875 42.84375 
Q 14.796875 37.203125 14.796875 27.296875 
" id="BitstreamVeraSans-Roman-64"/>
   </defs>
   <g transform="translate(193.802331429 34.55325)scale(0.18 -0.18)">
    <use xlink:href="#BitstreamVeraSans-Roman-47"/>
    <use x="77.490234375" xlink:href="#BitstreamVeraSans-Roman-72"/>
    <use x="118.572265625" xlink:href="#BitstreamVeraSans-Roman-65"/>
    <use x="180.095703125" xlink:href="#BitstreamVeraSans-Roman-65"/>
    <use x="241.619140625" xlink:href="#BitstreamVeraSans-Roman-6e"/>
    <use x="304.998046875" xlink:href="#BitstreamVeraSans-Roman-2c"/>
    <use x="336.78515625" xlink:href="#BitstreamVeraSans-Roman-20"/>
    <use x="368.572265625" xlink:href="#BitstreamVeraSans-Roman-47"/>
    <use x="446.0625" xlink:href="#BitstreamVeraSans-Roman-72"/>
    <use x="487.14453125" xlink:href="#BitstreamVeraSans-Roman-65"/>
    <use x="548.66796875" xlink:href="#BitstreamVeraSans-Roman-79"/>
    <use x="607.84765625" xlink:href="#BitstreamVeraSans-Roman-2c"/>
    <use x="639.634765625" xlink:href="#BitstreamVeraSans-Roman-20"/>
    <use x="671.421875" xlink:href="#BitstreamVeraSans-Roman-61"/>
    <use x="732.701171875" xlink:href="#BitstreamVeraSans-Roman-6e"/>
    <use x="796.080078125" xlink:href="#BitstreamVeraSans-Roman-64"/>
    <use x="859.556640625" xlink:href="#BitstreamVeraSans-Roman-20"/>
    <use x="891.34375" xlink:href="#BitstreamVeraSans-Roman-52"/>
    <use x="960.763671875" xlink:href="#BitstreamVeraSans-Roman-65"/>
    <use x="1022.287109375" xlink:href="#BitstreamVeraSans-Roman-64"/>
    <use x="1085.763671875" xlink:href="#BitstreamVeraSans-Roman-20"/>
    <use x="1117.55078125" xlink:href="#BitstreamVeraSans-Roman-47"/>
    <use x="1195.041015625" xlink:href="#BitstreamVeraSans-Roman-65"/>
    <use x="1256.564453125" xlink:href="#BitstreamVeraSans-Roman-6e"/>
    <use x="1319.943359375" xlink:href="#BitstreamVeraSans-Roman-65"/>
    <use x="1381.466796875" xlink:href="#BitstreamVeraSans-Roman-73"/>
   </g>
  </g>
 </g>
</svg>
